<svg xmlns="http://www.w3.org/2000/svg" viewBox="0 0 1980 1080"><defs><style>.cls-1{isolation:isolate;}.cls-2{fill:#fbed21;opacity:0.39;}.cls-14,.cls-3{fill:#03256c;}.cls-15,.cls-22,.cls-4{fill:#06bee1;}.cls-16,.cls-27,.cls-5,.cls-6,.cls-7{fill:#2541b2;}.cls-6{opacity:0.56;}.cls-11,.cls-12,.cls-14,.cls-15,.cls-18,.cls-19,.cls-20,.cls-22,.cls-25,.cls-30,.cls-6,.cls-7,.cls-9{mix-blend-mode:multiply;}.cls-19,.cls-20,.cls-30,.cls-31,.cls-8,.cls-9{fill:#772e25;}.cls-10,.cls-11{fill:#c44536;}.cls-13,.cls-25,.cls-26,.cls-28{fill:#1768ac;}.cls-16{opacity:0.51;}.cls-16,.cls-24,.cls-26,.cls-27,.cls-28,.cls-31{mix-blend-mode:color-dodge;}.cls-17{fill:#fff;}.cls-18{fill:#ddd6d6;opacity:0.28;}.cls-19{opacity:0.35;}.cls-20{opacity:0.86;}.cls-21,.cls-29{fill:none;stroke-miterlimit:10;}.cls-21{stroke:#000;stroke-width:2px;}.cls-22{opacity:0.46;}.cls-23{fill:#ced7de;}.cls-24{opacity:0.43;}.cls-26,.cls-30{opacity:0.57;}.cls-27{opacity:0.41;}.cls-28{opacity:0.25;}.cls-29{stroke:#fff;}.cls-31{opacity:0.49;}</style></defs><g class="cls-1"><g id="圖層_4" data-name="圖層 4"><path class="cls-2" d="M711.73,1080H0V0H600.53C479.75,78.27,307.31,244.16,683,401,1058.33,557.69,892.42,900.29,711.73,1080Z"/><path class="cls-2" d="M1980,0V442.63C1850.26,486.56,1824.72,683.07,1713,712c-139,36-884.52-240-437-420,285.46-114.83,47.1-246-54.55-292Z"/></g><g id="圖層_2_拷貝" data-name="圖層 2 拷貝"><polygon class="cls-3" points="0 507 321 346 321 0 0 0 0 507"/><path class="cls-4" d="M187,290s.72,36.23,15.36,39.11S216,321,216,321,199,298,187,290Z"/><path class="cls-5" d="M210,319a15.06,15.06,0,0,1-1.52-.61c-5.43-2.53-10.14-8.39-6.48-8.39,4,0,14-20,14-20a22.87,22.87,0,0,1,1.92,5.73C220.21,307.19,215.11,320.7,210,319Z"/><path class="cls-6" d="M210,319a15.06,15.06,0,0,1-1.52-.61c3.79-8,7.31-17,9.44-22.66C220.21,307.19,215.11,320.7,210,319Z"/><path class="cls-5" d="M551,657c4,12-200-42-200-42l24-10,4-24-2-43,178,30s-4,38.82-4.94,65.63C549.69,644.58,549.84,653.52,551,657Z"/><path class="cls-7" d="M551,657c1.22,3.66-16.91,1.18-42.71-4C449.53,641.08,351,615,351,615l6-18,152.9,26,6.65-6.63L554,579l-3.94,54.63C549.69,644.58,549.84,653.52,551,657Z"/><path class="cls-7" d="M551,657c1.22,3.66-16.91,1.18-42.71-4l8.26-36.6L554,579l-3.94,54.63C549.69,644.58,549.84,653.52,551,657Z"/><polygon class="cls-8" points="495 1080 617 660 495 963.62 495 1080"/><polygon class="cls-9" points="495 1080 617 660 495 963.62 495 1080"/><rect class="cls-10" y="830" width="21" height="250"/><rect class="cls-11" y="830" width="21" height="250"/><polygon class="cls-8" points="21 1080 387 622 21 830 21 1080"/><polygon class="cls-9" points="21 1080 387 622 21 830 21 1080"/><polygon class="cls-10" points="198 559 656 668 567 959 0 807 0 718 198 559"/><rect class="cls-10" x="462" y="943" width="33" height="137"/><rect class="cls-11" x="462" y="943" width="33" height="137"/><polygon class="cls-8" points="656 668 656 692 567 983 0 830.35 0 806.35 567 959 656 668"/><polygon class="cls-9" points="656 668 656 692 567 983 567 959 656 668"/><g class="cls-12"><path d="M567,959a47.38,47.38,0,0,1,.78,6c.14,2,.22,4,.22,6s-.07,4-.22,6a45.63,45.63,0,0,1-.78,6,45.63,45.63,0,0,1-.78-6c-.15-2-.23-4-.22-6s.08-4,.22-6A47.38,47.38,0,0,1,567,959Z"/></g><polygon points="355 714 287 682 318 652 385 684 355 714"/><polygon points="287 682 287 690 355 722 355 714 287 682"/><polygon class="cls-13" points="350.75 707 298.02 682.18 322.06 658.92 374.01 683.73 350.75 707"/><polygon points="385 692 385 684 355 714 355 722 385 692"/><path class="cls-3" d="M177,545s-3,17-10,21l-3-1s6-6,8-22Z"/><polygon class="cls-3" points="226 821 81 828 77.11 781.35 77 780 222 773 225.1 810.24 226 821"/><path class="cls-14" d="M226,821,81,828l-3.89-46.65c22.76,4.69,103.53,20.31,148,28.89Z"/><polygon class="cls-5" points="240 783 232.17 804.25 226 821 225.1 810.2 222 773 236 735 240 783"/><polygon class="cls-7" points="232.17 804.25 226 821 225.1 810.2 232.17 804.25"/><path class="cls-4" d="M452,428.67s9,11.34,0,27.69c0,0,37.85.39,45.42,1.64,0,0-6.42-18.32-.42-33C497,425,469,437.23,452,428.67Z"/><path class="cls-15" d="M446,425s32,41,54-3S446,425,446,425Z"/><path class="cls-4" d="M513.17,402.44c-4.54,16.42-15.35,29.32-30.47,33.85-26.18,7.83-55.36-12.41-65.18-45.21s3.45-65.75,29.62-73.59a40.25,40.25,0,0,1,7.37-1.47c24.08-2.48,48.91,16.93,57.81,46.68A72.1,72.1,0,0,1,513.17,402.44Z"/><path class="cls-4" d="M409.47,693.1A10.39,10.39,0,0,1,407,696c-7,6-16,6-16,6a137.91,137.91,0,0,1-17.71-.55C350.19,698.88,365,689,365,689s25,2,19,0-4-4-2-5c1.61-.81,16.87,1,22.72,1.71l1.68.22.6.07S411.8,688.74,409.47,693.1Z"/><path class="cls-15" d="M409.47,693.1A10.39,10.39,0,0,1,407,696c-7,6-16,6-16,6a137.91,137.91,0,0,1-17.71-.55c11.69-4.9,27-13.26,31.43-15.74L406,685l.4.93Z"/><path class="cls-5" d="M212,596l-.38,6.43L208,664c-30,15-56-4-56-4l.11-1.81L156,593C182,566,212,596,212,596Z"/><path class="cls-16" d="M209.87,594.26c-8.34-6.74-31.9-22-52.87-.26l-.08,1.39C177.09,576.44,199.36,587.14,209.87,594.26Z"/><path class="cls-7" d="M211.62,602.43,208,664c-30,15-56-4-56-4l.11-1.81C187.59,652.82,204.24,623.12,211.62,602.43Z"/><path class="cls-17" d="M194,571.33v0l0,.38L193,585.85s-10.2,1.94-17.4-.2a14.25,14.25,0,0,1-2.6-1V571s3.65.56,8,.89c4.68.34,10.17.4,12.84-.82A.94.94,0,0,1,194,571.33Z"/><path class="cls-18" d="M194,571.35l0,.38L193,585.85s-10.2,1.94-17.4-.2Z"/><path class="cls-17" d="M194,571.5c0,1.38-4.92,2.5-11,2.5a31.17,31.17,0,0,1-9.21-1.13c-1.13-.39-1.79-.87-1.79-1.37,0-1.38,4.92-2.5,11-2.5a36.57,36.57,0,0,1,7.94.77C192.84,570.22,194,570.83,194,571.5Z"/><path class="cls-18" d="M194,571.5a.64.64,0,0,1-.05.23C193.45,573,188.74,574,183,574a31.17,31.17,0,0,1-9.21-1.13c2.24-.18,4.75-.55,7.21-1,3.78-.68,7.46-1.52,9.94-2.12a5.57,5.57,0,0,1,2.9,1.3.94.94,0,0,1,.14.26A1,1,0,0,1,194,571.5Z"/><path class="cls-5" d="M194,533l-.26,7.15L192.65,570c-8.35,3-17.65-.17-17.65-.17V545s-22,6.15-19,2a10.69,10.69,0,0,0,0-13C179,508,194,533,194,533Z"/><path class="cls-16" d="M194,534.62l0-.62s-14.61-25-37,1l.12.16C176.63,515.7,190.3,529.89,194,534.62Z"/><path class="cls-7" d="M193.74,540.15,192,570c-8.35,3-17-.18-17-.18v-4.53C183.47,559.17,189.87,548.23,193.74,540.15Z"/><ellipse class="cls-3" cx="156.5" cy="541" rx="3.5" ry="7"/><polygon class="cls-4" points="97 742 77 780 222 773 236 735 97 742"/><path class="cls-17" d="M188,748c-.22,2.36-.38,4.07-.51,5.31C187,757.85,187,756,187,756s-51.85,11.31-64.43,5.66v-.24c0-3.35.43-40.51.43-42.42s16,8,34,5,29-4,38,1S189,737,188,748Z"/><path class="cls-18" d="M187.49,753.31C187,757.85,187,756,187,756s-51.85,11.31-64.43,5.66v-.24c12-1.72,29.56-4.49,33.43-6.42C159.68,753.16,175.42,752.82,187.49,753.31Z"/><path class="cls-3" d="M108,759a187.51,187.51,0,0,0,25.17,2.65,128.65,128.65,0,0,0,25.12-1.52c8.31-1.34,16.58-3.17,25-4.47a57.43,57.43,0,0,1,12.78-.87,24.23,24.23,0,0,1,6.3,1.27A23.71,23.71,0,0,1,208,759l-1.41-.73-.7-.36-.74-.29c-.49-.2-1-.42-1.46-.6l-1.5-.45a23.58,23.58,0,0,0-6.19-.8,62.64,62.64,0,0,0-12.46,1.43c-8.28,1.6-16.54,3.51-24.93,4.91l-3.17.48-3.18.34c-2.12.26-4.26.33-6.39.47a123.58,123.58,0,0,1-12.77-.2q-6.37-.42-12.67-1.48C116.24,761,112.1,760.07,108,759Z"/><path class="cls-17" d="M375,759c-1.11,0-2.85,1.09-4.86,2.64-5.2,4-12.25,11.08-15.14,10.36-4-1-5,4-10,6-4.47,1.79-7.34-.42-8.61-3.76A12,12,0,0,1,336,773c-1-4-17-7-17-7,2-7,19-8,20-8s-5-12,0-12,0,8,16,5,8,2,11,4S379,759,375,759Z"/><path class="cls-18" d="M370.14,761.64c-5.2,4-12.25,11.08-15.14,10.36-4-1-5,4-10,6-4.47,1.79-7.34-.42-8.61-3.76C336,764.6,349,761,349,761Z"/><path class="cls-3" d="M522,850c-10.84,36.73-29.29,47-43.35,49.35C469.36,900.9,462,899,460,899c-5,0-35-4-65-10s-48-14-12-83,84-61,84-61c10,0,21-3,44,6a30.42,30.42,0,0,1,17.7,17.56C535.24,784.48,533.64,810.55,522,850Z"/><path class="cls-14" d="M522,850c-10.84,36.73-29.29,47-43.35,49.35,30-27.55,44.81-99.06,50.05-130.79C535.24,784.48,533.64,810.55,522,850Z"/><path class="cls-3" d="M467,725s16-24.82,28,1.09l8.9,2.38s-12.91-45.43-45.4-4Z"/><path class="cls-3" d="M414.61,362.49l4.84,9.33,10.94-7,1.4,7.88,15.44-16,4.53,8.34,13.65-14.62,6.33,7,5.49-9.1,3.69-7.77,9,21.77s4.15-10.9,7.87-1.4-.67,13.32-.67,13.32l4.18,6.37,14.28,2.3s-.41-33.45-23.3-53C470,311,442.39,306.39,422.11,338.13S414.48,362.47,414.61,362.49Z"/><rect class="cls-8" x="1435" y="128" width="517" height="389" transform="translate(2016 -1371) rotate(90)"/><rect class="cls-19" x="1435" y="128" width="517" height="389" transform="translate(2016 -1371) rotate(90)"/><rect class="cls-17" x="1509" y="74" width="369" height="497"/><rect class="cls-8" x="1509" y="74" width="369" height="381"/><rect class="cls-20" x="1509" y="74" width="369" height="383"/><rect class="cls-8" x="1509" y="207.37" width="369" height="6.56"/><rect class="cls-19" x="1509" y="207.37" width="369" height="6.56"/><rect class="cls-10" x="1509" y="462" width="184" height="109"/><rect class="cls-10" x="1694" y="462" width="184" height="109"/><rect class="cls-8" x="1509" y="331.37" width="369" height="6.56"/><rect class="cls-19" x="1509" y="331.37" width="369" height="6.56"/><rect class="cls-8" x="1509" y="455.37" width="369" height="6.56"/><rect class="cls-19" x="1509" y="455.37" width="369" height="6.56"/><line class="cls-21" x1="1693.5" y1="571" x2="1693.5" y2="461.94"/><circle class="cls-21" cx="1674" cy="516" r="9"/><circle class="cls-21" cx="1710" cy="516" r="9"/><rect class="cls-8" x="1277.85" y="99.85" width="153" height="127.3" transform="translate(1517.85 -1190.85) rotate(90)"/><rect class="cls-17" x="1300.7" y="97" width="107.3" height="133"/><path class="cls-5" d="M1362,163c-4,3-35,56-35,56l72-33Z"/><rect class="cls-4" x="1311" y="121" width="38" height="38" transform="translate(80.28 -336.12) rotate(14.85)"/><path class="cls-10" d="M1363,97s-4,40,45,43V97Z"/><polygon class="cls-3" points="1457 434 1439 579 1359 579 1341 434 1457 434"/><polygon class="cls-14" points="1457 434 1439 579 1388.73 579 1444.09 434 1457 434"/><path class="cls-4" d="M1341,434l-7,25a104.72,104.72,0,0,1,43,0c23,5,34,0,35,0s17-7,29,0,24-1,25-4-9-21-9-21"/><path class="cls-22" d="M1441,456c-12-7-28,0-29,0s-12,5-35,0a105.61,105.61,0,0,0-42.1-.2l-.9,3.2a104.72,104.72,0,0,1,43,0c23,5,34,0,35,0s17-7,29,0,24-1,25-4a4.87,4.87,0,0,0-.28-2.45C1463.64,455.86,1452.32,462.61,1441,456Z"/><rect class="cls-10" x="1509" y="363" width="24" height="92"/><rect class="cls-10" x="1533" y="363" width="24" height="92"/><rect class="cls-10" x="1557" y="363" width="24" height="92"/><rect class="cls-10" x="1581" y="363" width="24" height="92"/><rect class="cls-23" x="1605" y="381" width="19.5" height="74"/><rect class="cls-23" x="1624.5" y="381" width="19.5" height="74"/><rect class="cls-23" x="1644" y="381" width="19.5" height="74"/><rect class="cls-23" x="1663.5" y="381" width="19.5" height="74"/><rect class="cls-8" x="1509" y="240" width="24" height="92"/><rect class="cls-8" x="1533" y="240" width="24" height="92"/><rect class="cls-8" x="1557" y="240" width="24" height="92"/><rect class="cls-8" x="1581" y="240" width="24" height="92"/><rect class="cls-17" x="1605" y="258" width="19.5" height="74"/><rect class="cls-17" x="1624.5" y="258" width="19.5" height="74"/><rect class="cls-10" x="1644" y="258" width="19.5" height="74"/><rect class="cls-10" x="1663.5" y="258" width="19.5" height="74"/><rect class="cls-3" x="1509" y="149.5" width="15" height="57.5"/><rect class="cls-3" x="1524" y="149.5" width="15" height="57.5"/><rect class="cls-3" x="1539" y="149.5" width="15" height="57.5"/><rect class="cls-3" x="1554" y="149.5" width="15" height="57.5"/><rect class="cls-23" x="1569" y="149.5" width="15" height="57.5"/><rect class="cls-23" x="1584" y="149.5" width="15" height="57.5"/><rect class="cls-23" x="1599" y="149.5" width="15" height="57.5"/><rect class="cls-23" x="1614" y="149.5" width="15" height="57.5"/><rect class="cls-3" x="1644" y="87" width="19.5" height="120"/><rect class="cls-5" x="1663.5" y="87" width="19.5" height="120"/><rect class="cls-13" x="1683" y="87" width="19.5" height="120"/><rect class="cls-4" x="1702.5" y="87" width="19.5" height="120"/><rect class="cls-10" x="1722" y="87" width="19.5" height="120"/><rect class="cls-8" x="1741.5" y="87" width="19.5" height="120"/><rect class="cls-3" x="1761" y="87" width="19.5" height="120"/><rect class="cls-5" x="1780.5" y="87" width="19.5" height="120"/><rect class="cls-13" x="1800" y="87" width="19.5" height="120"/><rect class="cls-4" x="1819.5" y="87" width="19.5" height="120"/><rect class="cls-10" x="1839" y="87" width="19.5" height="120"/><rect class="cls-8" x="1858.5" y="87" width="19.5" height="120"/><rect class="cls-8" x="1813" y="338" width="16.25" height="117"/><rect class="cls-8" x="1829.25" y="338" width="16.25" height="117"/><rect class="cls-8" x="1845.5" y="338" width="16.25" height="117"/><rect class="cls-8" x="1861.75" y="338" width="16.25" height="117"/><rect class="cls-8" x="1780.28" y="338.06" width="16.25" height="117" transform="matrix(0.97, 0.26, -0.26, 0.97, 161.32, -445.01)"/><circle class="cls-13" cx="1807" cy="287" r="29"/><g class="cls-24"><path class="cls-13" d="M1815.58,264.37a30.71,30.71,0,0,1,6.82,5.16,26,26,0,0,1,5.09,7.08,23.9,23.9,0,0,1,1.63,4.17,13.9,13.9,0,0,1,.49,4.49,16,16,0,0,1-.9,4.4,13.8,13.8,0,0,1-2.07,3.88l-.28-.1a54.36,54.36,0,0,0,.25-8.18,28.24,28.24,0,0,0-1.33-7.72,26.66,26.66,0,0,0-4-7,32.94,32.94,0,0,0-5.85-5.89Z"/></g><polygon class="cls-3" points="1792 330 1795.17 313.48 1819.5 313.17 1824 330 1792 330"/><rect class="cls-5" x="226" width="95" height="346"/><polygon class="cls-25" points="321 140.56 321 346 291.14 346 321 140.56"/><polygon class="cls-13" points="321 346 238.71 387.27 0 507 0 438.49 226 346 321 346"/><polygon class="cls-26" points="230.32 346 0 475.39 0 438.49 226 346 230.32 346"/><polygon class="cls-25" points="321 346 238.71 387.27 291 346 321 346"/><polygon class="cls-8" points="77 0 81 405.34 62.47 412.92 62.47 0 77 0"/><polygon class="cls-8" points="226 191.45 0 244.69 0 233.28 226 182.9 226 191.45"/><polygon class="cls-8" points="241 334 230 385 183 385 181.94 380.48 171 334 241 334"/><path class="cls-9" d="M241,334l-11,51H183l-1.06-4.52c14.65-7.09,27.21-27.92,35.95-46.48Z"/><path class="cls-17" d="M302.51,680.94a2.22,2.22,0,0,1-.51.06C300.78,681,301.14,680.9,302.51,680.94Z"/><path class="cls-17" d="M357.08,678.31c-.3,2-1.95,4.29-7.08,5.69-11,3-11,14-11,14-4,1-8-6-18-12-7-4.17-15.36-5-18.49-5.06,3.66-.7,5.49-8.94,5.49-8.94.9-2.69,3.61-4.38,6.33-5.42A28,28,0,0,1,321,665s2-3,12,3,23,6,23,6A6.62,6.62,0,0,1,357.08,678.31Z"/><path class="cls-18" d="M347,676c-4,0-6,0-8,1s-5,0-7,1-10,2-13,1c-1.43-.48-4-7.67-4.67-12.42A28,28,0,0,1,321,665s2-3,12,3,23,6,23,6S348.1,676,347,676Z"/><path class="cls-4" d="M337.58,675a2,2,0,0,1-.58,0c-6-1-5,3-11,4s-7-3-10-8c-1.62-2.69.25-6.55,2.32-9.53A36,36,0,0,1,322,657s11-1,11,0S342.3,674.74,337.58,675Z"/><path class="cls-15" d="M337.58,675C333,670.4,324,664.7,318.32,661.47A36,36,0,0,1,322,657s11-1,11,0S342.3,674.74,337.58,675Z"/><path class="cls-5" d="M542.86,610.66c-2.43,2.46-4.75,4.58-6.86,6.34-18,15-127,85-127,85s-6.92-2.47-8.6-9.5a15.24,15.24,0,0,1,.11-7.06,22.28,22.28,0,0,1,.67-2.35c.23-.67.51-1.37.82-2.09l3.63-3L480,617s1.61-2.29,3.95-6c6.68-10.47,19.27-32.2,17.05-44L378.53,538.36,377,538c-4.24,18.69-23,24-30,36-23.94,41-10,88-10,88H316c3.7-11.75-8.48-43.16-10-69-1-17,4-40,4-40,30-91,136-102,136-102s115-8,128,51C585.47,554.08,561.11,592.13,542.86,610.66Z"/><path class="cls-7" d="M378.53,538.36,377,538c-4.24,18.69-23,24-30,36-23.94,41-10,88-10,88h-6.42c-8.3-26.83,5.42-74,5.42-74,3-8,16-26,19-27s23-27,23-27Z"/><path class="cls-27" d="M502,603c-1.75,3.5-81.49,66.64-101.49,82.44-2.87,2.27.49-.44.49-.44l.18-1.91,4.45-5.07L480,617s1.61-2.29,3.95-6C494.43,605.51,502.78,601.44,502,603Z"/><path class="cls-7" d="M542.86,610.66c-2.43,2.46-4.75,4.58-6.86,6.34-18,15-127,85-127,85s-6.92-2.47-8.6-9.5C424,679.59,506.35,634.16,542.86,610.66Z"/><path class="cls-13" d="M467,725s-48-8-84,61-18,77,12,83,60,10,65,10,44,12,62-49,12-90-11-99S477,725,467,725Z"/><path class="cls-28" d="M388,790c36-69,84-61,84-61,10,0,21-3,44,6a33.09,33.09,0,0,1,5.73,2.9A30.85,30.85,0,0,0,511,731c-23-9-34-6-44-6,0,0-48-8-84,61-25.77,49.4-23.87,67.53-9.7,76C364.12,852.1,365.68,832.77,388,790Z"/><path class="cls-10" d="M241,333.5c0,3-10.84,5.5-25.61,6.26-3,.16-6.14.24-9.39.24-19.33,0-35-2.91-35-6.5s15.67-6.5,35-6.5c11.2,0,21.18,1,27.58,2.49C238.23,330.6,241,332,241,333.5Z"/><path class="cls-11" d="M241,333.5c0,3-10.84,5.5-25.61,6.26L206,337l15-1C228,338,241,332,241,333.5Z"/><path class="cls-5" d="M200,337a31.83,31.83,0,0,1-16.2-6.07C169.65,320.83,163.26,301.8,163,301c13,14,31,15,31,15s3.62,2.6,7.43,6C209,328.64,217.26,338.33,200,337Z"/><path class="cls-6" d="M200,337a31.83,31.83,0,0,1-16.2-6.07,125.1,125.1,0,0,0,17.63-9C209,328.64,217.26,338.33,200,337Z"/><path class="cls-4" d="M240.92,308.9c-.43,8.87-3.95,26.48-24.79,28.13-6.43.51-10.67,0-13.39-1.07-9.13-3.63-1.14-13.71-1.14-13.71s7.35-8.17,13.34-9.21,12,4.9,25.93-9.2A35.86,35.86,0,0,1,240.92,308.9Z"/><path class="cls-15" d="M240.92,308.9c-.43,8.87-3.95,26.48-24.79,28.13-6.43.51-10.67,0-13.39-1.07C218.1,328.79,235.11,314.13,240.92,308.9Z"/><line class="cls-29" x1="163.5" y1="30.5" x2="163.5" y2="40.5"/><line class="cls-29" x1="160.5" y1="35.5" x2="166.5" y2="35.5"/><line class="cls-29" x1="122.12" y1="81.64" x2="122.12" y2="91.64"/><line class="cls-29" x1="119.12" y1="86.64" x2="125.12" y2="86.64"/><line class="cls-29" x1="152.03" y1="129.64" x2="152.03" y2="136"/><line class="cls-29" x1="150.12" y1="132.82" x2="153.94" y2="132.82"/><line class="cls-29" x1="45.12" y1="32.46" x2="45.12" y2="38.82"/><line class="cls-29" x1="43.21" y1="35.64" x2="47.03" y2="35.64"/><line class="cls-29" x1="20.12" y1="115.46" x2="20.12" y2="121.82"/><line class="cls-29" x1="18.21" y1="118.64" x2="22.03" y2="118.64"/><polygon class="cls-25" points="182 385 211.47 400.94 239.55 386.85 230 385 182 385"/><polygon class="cls-30" points="0 244.69 226 191.45 226 188.45 0 241.69 0 244.69"/><polygon class="cls-31" points="0 233.28 0 234.28 226 183.9 226 182.9 0 233.28"/><polygon class="cls-30" points="77 0 81 405.34 62.47 412.92 62.47 0 77 0"/><path class="cls-3" d="M383,521.25l-2.92,9.39-1.49,4.69c-.51,1.56-1,3.13-1.56,4.67.4-1.59.73-3.19,1.08-4.8l1-4.81,1.95-9.64Z"/><path class="cls-3" d="M395.16,516c-2.05,3.41-4.28,6.69-6.59,9.91s-4.71,6.38-7.24,9.45c-.65.76-1.3,1.52-2,2.26a14.78,14.78,0,0,1-1.12,1.12,5,5,0,0,1-.42.32,1.57,1.57,0,0,1-.5.21,1.21,1.21,0,0,1-.38,0,1.07,1.07,0,0,1-.58-.3,1,1,0,0,1-.25-.44,1,1,0,0,1,0-.41,1.11,1.11,0,0,1,.2-.54l.19-.21a2,2,0,0,1,.27-.21,3,3,0,0,1,.42-.23,25.43,25.43,0,0,1,2.91-1.07c1-.3,1.91-.58,2.86-.85,1.9-.55,3.81-1.06,5.69-1.64.94-.28,1.87-.58,2.79-.92.46-.17.92-.36,1.35-.57a3,3,0,0,0,1.18-.85,5.64,5.64,0,0,1-2.29,1.92c-.87.5-1.78.92-2.69,1.34-1.83.8-3.68,1.52-5.54,2.21l-2.78,1a23.56,23.56,0,0,0-2.61,1.09l-.22.14h0a.23.23,0,0,0,.06-.07.79.79,0,0,0,.14-.37.91.91,0,0,0,0-.32.87.87,0,0,0-.21-.36.89.89,0,0,0-.5-.26.71.71,0,0,0-.29,0c-.19,0-.18.07-.17,0l.18-.14c.3-.28.64-.64.95-1,.65-.71,1.28-1.47,1.9-2.22l7.55-9.12C389.88,521.92,392.45,518.91,395.16,516Z"/><path class="cls-3" d="M507.52,558.94c.11,4.07,0,8.07-.32,12.09a102,102,0,0,1-1.57,12,55.8,55.8,0,0,1-3.43,11.55c-1.63,3.65-3.84,7.22-7.2,9.47,3.26-2.39,5.28-6,6.74-9.66a55.69,55.69,0,0,0,2.91-11.53A100.08,100.08,0,0,0,505.7,571c.12-4,.09-8-.17-11.89Z"/><path class="cls-15" d="M513.17,402.44a15.29,15.29,0,0,1-1.83-5.49c-.51-3-.73-6.22-2.39-8.79-2.56-4-7.8-5.33-10.81-9-2.83-3.42-3.19-8.21-3.41-12.65-2.29,1.43-5.46.5-7.38-1.41s-2.87-4.56-3.77-7.11l-3-8.61q-2.49,5.32-5,10.67c-.62,1.34-1.8,2.94-3.19,2.42a3,3,0,0,1-1.28-1.2q-2.52-3.57-5.06-7.13a53,53,0,0,1-8.36,13.9c-1.45,1.74-3.31,3.53-5.58,3.51a5.64,5.64,0,0,1-4.57-3,16.45,16.45,0,0,1-1.65-5.47,11.64,11.64,0,0,0-8.33,7.19c-.64,1.72-1.08,3.85-2.78,4.54a3.52,3.52,0,0,1-3.72-1.11c-2.42-2.62-3-6.85-3.31-10.21-.44-4.7-1.44-9.43-.52-14.15.88-4.45,3.27-8.45,5.9-12.14A89,89,0,0,1,451.85,318l2.66-2c24.08-2.48,48.91,16.93,57.81,46.68A72.1,72.1,0,0,1,513.17,402.44Z"/></g></g></svg>