<svg xmlns="http://www.w3.org/2000/svg" viewBox="0 0 1980 1080"><defs><style>.cls-1{isolation:isolate;}.cls-2{fill:#a57c52;opacity:0.37;}.cls-3,.cls-6,.cls-7{fill:#26547c;}.cls-3{opacity:0.72;}.cls-20,.cls-4,.cls-5{fill:#720026;}.cls-5{opacity:0.53;}.cls-11,.cls-13,.cls-15,.cls-17,.cls-18,.cls-20,.cls-22,.cls-23,.cls-5,.cls-7,.cls-9{mix-blend-mode:multiply;}.cls-22,.cls-25,.cls-8,.cls-9{fill:#06d6a0;}.cls-10,.cls-11,.cls-23,.cls-26{fill:#ffd166;}.cls-12,.cls-13{fill:#ce4257;}.cls-14,.cls-15,.cls-18{fill:#ef476f;}.cls-16{fill:#fffcf9;}.cls-17{fill:#f5f4f5;}.cls-18{opacity:0.36;}.cls-19,.cls-24{fill:none;stroke-miterlimit:10;stroke-width:2px;}.cls-19{stroke:#000;}.cls-21{fill:#fff;opacity:0.69;}.cls-21,.cls-25,.cls-26{mix-blend-mode:color-dodge;}.cls-22{opacity:0.55;}.cls-23{opacity:0.54;}.cls-24{stroke:#fffcf9;}</style></defs><g class="cls-1"><g id="圖層_4" data-name="圖層 4"><path class="cls-2" d="M1981,0V918.33c-54-4.71-101.72-20.06-121-29.33-77-37-276-158-240-237s13.55-136.27-239-225c-74-26-322-174-51-427Z"/><path class="cls-2" d="M1080,494C958,801,510,827,683,1044c10.12,12.7,17.67,24.68,22.88,36H0V0H835.63C950.39,77.29,1171.94,262.64,1080,494Z"/></g><g id="圖層_2_拷貝" data-name="圖層 2 拷貝"><rect class="cls-3" width="1004" height="585"/><polygon class="cls-4" points="1980 635 1979 801 1669.25 579.02 1492 452 1364 359 1502 354 1645.75 438.32 1980 635"/><polygon class="cls-5" points="1980 635 1979 801 1669.25 579.02 1645.75 438.32 1980 635"/><polygon class="cls-6" points="1641 314.79 1641 453 1533.02 391.57 1502 373.92 1502 265 1641 314.79"/><path class="cls-7" d="M1641,314.79V453l-108-61.43,30-8.57,50-19s18-32,9-29-19,0-26,0-4-17-29-14-61-20-61-20l-4-2.64V265Z"/><path class="cls-8" d="M1673,292c-18,34-19,17-32,23s0,0-19,6,0-1-15-4-27-15-40-14c-11.72.9-21.81-6.32-43.46-9.95q-3.55-.6-7.54-1.05c-27-3-8-12-28-17s-5-11-13-20,5-13,1-21,11-16,4-25-4-13,0-21,32-22,31-32,56.76-3.17,61-6c9-6-5-25,17-22,12.63,1.72,26.59,8.72,39.59,15.32,9.63,4.89,18.75,9.55,26.41,11.68,18,5,27,30,38,67S1691,258,1673,292Z"/><path class="cls-9" d="M1673,292c-18,34-19,17-32,23s0,0-19,6,0-1-15-4-27-15-40-14c-11.72.9-21.81-6.32-43.46-9.95,2.83-4.4,5.53-7.33,7.46-7.05,7,1,46-13,38-21s10-47,41-57c23.61-7.61,21.12-46.54,18.59-64.68,9.63,4.89,18.75,9.55,26.41,11.68,18,5,27,30,38,67S1691,258,1673,292Z"/><polygon class="cls-10" points="1980 0 1980 635 1668 453 1668 0 1980 0"/><polygon class="cls-11" points="1980 0 1980 255.45 1668 0 1980 0"/><polygon class="cls-8" points="1062 872 936.34 872.35 0 875 0 782 1004 782 1062 872"/><polygon class="cls-9" points="1003 782 936.34 872.35 0 875 0 782 1003 782"/><path class="cls-6" d="M528.43,810.16c-.56,4.7-2.4,6.84-3.43,6.84-2,0-83,1-88-3s0-9,0-9l28.17-8.14L482,792s36-21,43-2C528.38,799.17,529,805.78,528.43,810.16Z"/><path class="cls-7" d="M528.43,810.16c-.56,4.7-2.4,6.84-3.43,6.84-2,0-83,1-88-3s0-9,0-9l28.17-8.14C473.42,800.45,491.86,808,501,808,507.31,808,518.88,809.11,528.43,810.16Z"/><rect class="cls-12" x="783" width="221" height="782"/><polygon class="cls-13" points="1004 0 1004 782 783 782 783 605.28 912.31 0 1004 0"/><rect class="cls-12" y="585" width="1004" height="197"/><polygon class="cls-13" points="1004 585 1004 782 0 782 0 585 787.33 585 1004 585"/><path class="cls-14" d="M251,709v99l-7.51-.74-4.49-.44c-12-29.46-11-96.64-11-96.64l10.2-.52Z"/><path class="cls-15" d="M243.49,807.26l-4.49-.44c-12-29.46-11-96.64-11-96.64l10.2-.52Z"/><path class="cls-16" d="M540,628,528,795H479c-6.78-16.54-11.77-62.38-15.26-109.7C459,621,457,554,457,554s54-34,83,2S540,628,540,628Z"/><path class="cls-17" d="M520.18,795H479c-6.78-16.54-11.77-62.38-15.26-109.7C473.89,720.13,492.26,769.35,520.18,795Z"/><path class="cls-14" d="M343.66,344.9l-11.61,4.26-10.33-12A13.29,13.29,0,0,1,316,339c-5,.29-10-7-8-13,1.46-4.38,10.91-5.61,10.91-5.61s-6.46-13.39-9.41-22.12,3.66-3.41,3.66-3.41l11.61,23.9s-.21-2,3.63-1.51a19.66,19.66,0,0,1,3.33.76c6,1.84,3.22,10.71,2,13.83-.26.68-.44,1.09-.44,1.09Z"/><path class="cls-18" d="M333.77,331.84c-4.48,1-10,1.75-11.77,1.16-3-1,0-4,2-5,1.45-.72,3.42-7.22,4.4-10.75a19.66,19.66,0,0,1,3.33.76C337.71,319.85,335,328.72,333.77,331.84Z"/><path class="cls-6" d="M474,578a67.94,67.94,0,0,0,2.72,8,43,43,0,0,0,3.85,7.33,26.3,26.3,0,0,0,2.47,3.28,24.9,24.9,0,0,0,2.9,2.91A30.11,30.11,0,0,0,493,604a18.75,18.75,0,0,1-8-3.24,23.12,23.12,0,0,1-6.08-6.31,30,30,0,0,1-3.65-7.92A27.85,27.85,0,0,1,474,578Z"/><path class="cls-10" d="M228,469.78s-21,2.74-25,43.78,5,97.6,5,97.6,50,6.39,65,0,4-108.54,4-108.54S269,457,228,469.78Z"/><path class="cls-14" d="M225,453.17s5,14.18,0,20.13l21-2.4S242,450,246,449C246,449,233,456.3,225,453.17Z"/><path class="cls-15" d="M225,453s9.55,15,20-3S225,453,225,453Z"/><path class="cls-14" d="M245.87,449.49a29.64,29.64,0,0,1-7.48,3.46c-19.82,6-42.11-9.72-49.79-35.1s2.18-50.8,22-56.8a30.21,30.21,0,0,1,14-.8c15.39,2.63,29.89,16.42,35.79,35.9C267,418.09,260.57,440.07,245.87,449.49Z"/><path class="cls-15" d="M245.87,449.49a29.64,29.64,0,0,1-7.48,3.46c-19.82,6-42.11-9.72-49.79-35.1s2.18-50.8,22-56.8a30.21,30.21,0,0,1,14-.8C204.79,385.5,176.94,434.72,245.87,449.49Z"/><path class="cls-4" d="M208,612s-25,3,1,104c2.06,8,42,8,59,2,15.23-5.38,9-74,7-83s-2-23-2-23S214,609,208,612Z"/><path class="cls-19" d="M264,625s-7,15-22,9"/><rect class="cls-12" x="225" y="672" width="29" height="30"/><path class="cls-4" d="M254,675v1.47c-12.67,8.58-24.44,2.87-29-.05V675Z"/><path class="cls-20" d="M207,722s25,14,66-1v-6s-45,6-64,1Z"/><path class="cls-16" d="M277,819H234s-.95-5.67,1.77-9.66A4,4,0,0,1,236,809l3-4,12,1s22,4,24,6S277,819,277,819Z"/><path class="cls-17" d="M277,819H234s-.95-5.67,1.77-9.66C245.71,812.27,268.39,819,277,819Z"/><path class="cls-14" d="M276,635c0,1.66-5.52-3.58-6.24-4.24l.24.24c1.08,1.08,2.46,6,2.7,10.7.2,4-.41,7.92-2.7,9.3-5,3-14-18-14-18l-2.57-7.14L238,583l12,12c8,21,12,24,17,27S276,633,276,635Z"/><path class="cls-15" d="M270,651c-5,3-14-18-14-18l-2.57-7.14A126.64,126.64,0,0,0,272.7,641.7C272.9,645.72,272.29,649.62,270,651Z"/><path class="cls-4" d="M245.28,372.91S237.51,353,241,347.26c0,0-10.51,6.2-16.42,4.73a127.9,127.9,0,0,1-14.64-5.16s-2.62,7.82-5.61,7.58-10.13,1.21-15.79-3.25,2,13.2-1.1,14-9,.29-9,.29l3.59,5.3-1.7,8.89-1.86,10.89s4.65,17.42,8,25.71,7.66,4.61,7.66,4.61l5.15-1.6-2-13.19,4.64-20.7,10.68-8.19Z"/><path class="cls-14" d="M206,412s-8-4-9,1,5,19,9,15,3-1,3-1Z"/><path class="cls-6" d="M234.65,413.78h24.41a5.41,5.41,0,0,1,5.41,5.41v7.24a7.35,7.35,0,0,1-7.35,7.35H234.65a0,0,0,0,1,0,0v-20a0,0,0,0,1,0,0Z" transform="translate(-61.6 42.93) rotate(-8.76)"/><path class="cls-8" d="M504,338s83,3,60,172l-3,57H446s-12-108,6-144-108-40-129-78l16-7s62,20,79,17S490,334,504,338Z"/><path class="cls-14" d="M511.92,515.33l-30.46,69.93-.91,2.09s-15.68,30.25-24.4,25.93c-2.37-1.18-3.71-3.63-4.33-6.64-1.66-8,1.8-20.07,4.33-22.17l.55-.46c-.42.31-11,8.73-11,6.22,0-2.88,7-14.4,15.68-18.73s15.69-8.64,29.63-38.89Z"/><path class="cls-15" d="M481.46,585.26l-.91,2.09s-15.68,30.25-24.4,25.93c-2.37-1.18-3.71-3.63-4.33-6.64C461.35,600.65,472.67,592.11,481.46,585.26Z"/><path class="cls-14" d="M516,349c-7.68-4-31.75,0-31.75,0,7.6-14.57-2.2-26.73-8.91-32.82A44.66,44.66,0,0,0,470,312c17.3,4.94,39.95-4.75,40.51-5a14.52,14.52,0,0,0-.78,2.28C506.34,322.24,515.74,348.3,516,349Z"/><path class="cls-15" d="M510.51,307a14.52,14.52,0,0,0-.78,2.28c-8.28,17.75-23.57,13.26-34.4,6.89A44.66,44.66,0,0,0,470,312C487.3,316.94,510,307.25,510.51,307Z"/><ellipse class="cls-14" cx="477" cy="256" rx="48" ry="63" transform="translate(-55.77 159.96) rotate(-18)"/><path class="cls-15" d="M395,218s19.68-6.26,27.57-14,30.55-31.94,51.24-26.13,13.8-3.87,13.8-3.87,11.82,8.71,13.8,18.39,18.72,35.8,18.72,35.8L529,247.55,521,293l-14,2-8.55-32s13.8-1.93,4.93-19.35-11.83-3.87-15.77-2.91-10.84-6.77-18.73-21.29-16.75,20.33-29.56,24.2S420,248,395,218Z"/><line class="cls-19" x1="1641" x2="1641" y2="453"/><rect class="cls-6" x="1641" width="27" height="453"/><rect class="cls-21" x="1641" width="5" height="453"/><path class="cls-7" d="M1668,0V453h-9.22c-.41-124.42-1.17-397.39-.19-453Z"/><polygon class="cls-14" points="1849 109 1849 321 1737 261 1737 68 1756.44 75.12 1849 109"/><polygon class="cls-15" points="1849 109 1849 153.73 1756.44 75.12 1849 109"/><polygon class="cls-16" points="1980 502 1898 457.7 1898 264.7 1980 295 1980 502"/><polygon class="cls-6" points="1980 53 1980 265 1868 204.7 1868 11.7 1980 53"/><polygon class="cls-7" points="1980 53 1980 261.07 1868 167.36 1868 11.7 1980 53"/><polygon class="cls-4" points="1980 586 1980 622 1725.97 481.28 1563 391 1563 366 1840.81 512.56 1980 586"/><path class="cls-20" d="M1980,586v36L1726,481.28c37.09,10.47,107.87,36.56,140,44.72Z"/><path class="cls-8" d="M514.93,540.5C509.6,554.74,505,560,505,560s-30.73-10.76-25.36-18a4.19,4.19,0,0,1,.68-.74c8.23-7.21-6.86-144,12.34-165.66s37,0,37,0C534.83,467.59,523.86,516.66,514.93,540.5Z"/><path class="cls-22" d="M514.93,540.5C509.6,554.74,505,560,505,560s-30.73-10.76-25.36-18C490.1,541.46,504.41,540.9,514.93,540.5Z"/><path class="cls-10" d="M260,604.82a21.5,21.5,0,0,1-6.14,4.23A95.88,95.88,0,0,1,242,614s-2.89-3.14-6.42-11.5C229,586.78,220.08,552.58,224,486c0,0,13-15,27,0,13.82,14.81,3.28,107.56,8.78,114.76a1,1,0,0,0,.22.24C261.39,602.16,261.17,603.48,260,604.82Z"/><path class="cls-23" d="M260,604.82l-6.14,4.23A95.88,95.88,0,0,1,242,614s-2.89-3.14-6.42-11.5c8.37-.22,17.86-1.09,24.2-1.74a1,1,0,0,0,.22.24C261.39,602.16,261.17,603.48,260,604.82Z"/><polygon class="cls-12" points="1981 541 1980 586 1866.07 525.89 1563 366 1641 366 1791.75 443.59 1981 541"/><polygon class="cls-13" points="1981 541 1980 586 1866.07 525.89 1791.75 443.59 1981 541"/><line class="cls-24" x1="1756" y1="128" x2="1807" y2="154"/><line class="cls-24" x1="1756" y1="163" x2="1835" y2="199"/><line class="cls-24" x1="1756" y1="191" x2="1835" y2="226"/><line class="cls-24" x1="1756" y1="221" x2="1835" y2="255"/><line class="cls-19" x1="1924" y1="313" x2="1962" y2="327"/><line class="cls-19" x1="1922" y1="427" x2="1961" y2="445"/><line class="cls-19" x1="1922" y1="433" x2="1961" y2="452"/><line class="cls-19" x1="1922" y1="440" x2="1961" y2="459"/><polygon points="1962 427 1922 406 1922 339 1963 354 1962 427"/><path class="cls-12" d="M1004,585q-27.63.87-55.25,1.17c-9.21.13-18.42.16-27.63.25l-27.62.08-27.62-.08c-9.21-.08-18.42-.11-27.63-.25q-27.63-.3-55.25-1.17,27.63-.87,55.25-1.17c9.21-.14,18.42-.17,27.63-.25l27.62-.08,27.62.08c9.21.09,18.42.12,27.63.25Q976.38,584.13,1004,585Z"/><path class="cls-9" d="M531,373s2.21,1.82-.34-.21c7.78,136.74-20.7,180.09-25.48,186.35C508,560.29,510,561,510,561S539.23,519.93,531,373Z"/><path class="cls-25" d="M480.64,546.46a4.28,4.28,0,0,1,.68-.76c8.23-7.43-6.86-148.52,12.34-170.8a38.54,38.54,0,0,1,3.79-3.85,37,37,0,0,0-4.79,4.55c-19.2,21.61-4.11,158.45-12.34,165.66a4.19,4.19,0,0,0-.68.74c-1.12,1.51-.65,3.18.77,4.87A3.3,3.3,0,0,1,480.64,546.46Z"/><path class="cls-4" d="M393,215s22-7,30-15,31-33,52-27,14-4,14-4,12,9,14,19,19,37,19,37l9,20-3,48H508l-8-32s14-2,5-20-12-4-16-3-11-7-19-22-17,21-30,25S415,257,393,215Z"/><path class="cls-12" d="M223,667h33a0,0,0,0,1,0,0v8a3,3,0,0,1-3,3H226a3,3,0,0,1-3-3v-8A0,0,0,0,1,223,667Z"/><path class="cls-11" d="M224,486s4.84-5.57,11.79-6.52C226.77,478.2,220,486,220,486c-6,102,18,128,18,128s1.26-.42,3.12-1.12C236.85,607,218.69,576.21,224,486Z"/><path class="cls-26" d="M259.78,600.76c-5.5-7.2,5-99.95-8.78-114.76-5.06-5.42-10-6.91-14.21-6.62,3.75.26,7.93,2,12.21,6.62,13.82,14.81,3.28,107.56,8.78,114.76a1,1,0,0,0,.22.24C263.34,605,259.85,600.86,259.78,600.76Z"/><path class="cls-6" d="M235.29,421.71l0,0s0,0,0,0l-.2-.1-.47-.21-1-.39-2.07-.76-4.2-1.44-8.44-2.79-17-5.42,17.23,4.46,8.6,2.32,4.29,1.21,2.15.65,1.09.35.56.21.3.13a1,1,0,0,1,.23.13l.28.19Z"/><path class="cls-6" d="M237.29,433.71c0,.05.16.11.1.08l-.16-.06-.41-.15c-.3-.09-.6-.18-.92-.26-.62-.17-1.25-.32-1.89-.48l-3.84-.87c-2.57-.56-5.16-1.09-7.74-1.62q-7.76-1.56-15.54-3,7.86,1,15.71,2.05c2.61.36,5.23.73,7.84,1.12l3.93.64c.65.11,1.3.23,2,.37.33.06.66.14,1,.22.18,0,.34.08.53.15l.3.1a2.15,2.15,0,0,1,.54.32Z"/><path class="cls-6" d="M441.73,281.1h35a7.35,7.35,0,0,1,7.35,7.35v15.65a5.41,5.41,0,0,1-5.41,5.41h-37a0,0,0,0,1,0,0V281.1A0,0,0,0,1,441.73,281.1Z" transform="translate(1010.34 338.08) rotate(151.93)"/><path class="cls-6" d="M475,280.47c.26-1.09.54-1.89.82-2.81l.85-2.66,1.73-5.3,3.51-10.58L489,238l-6.15,21.42-3,10.72-1.49,5.36-.72,2.68c-.23.87-.49,1.85-.64,2.57Z"/><path class="cls-6" d="M482.92,295.82a7.46,7.46,0,0,1,.55-1.37l.55-1.11,1.14-2.14L487.5,287l4.78-8.36L502,262l-8.84,17.1-4.33,8.59L486.72,292l-1,2.16c-.3.68-.67,1.55-.8,1.94Z"/><path class="cls-16" d="M531,180l11-21s-24-95,22-97S701,9,731,62s10.64,118.05-27,114c-65-7-97,45-146-2Z"/><path d="M585.13,104a32.86,32.86,0,0,1-10.54,13.1,17.3,17.3,0,0,1-4.32,2.67c-.23,0-.54,0-.95.13a3.94,3.94,0,0,0-.74,0l-.94.18c-.47.09-.76.21-.88.23-2.18.42-3.39-.2-3.71-1.85a2.81,2.81,0,0,1,.36-1.9,2.14,2.14,0,0,1,1.44-1.08c.59-.11,1.13-.15,1.73-.21-.09-.47-1.14-5.28-3-14.33s-3-14-3.2-15A2.53,2.53,0,0,1,558,83.87c-.26-1.35.7-3,2.9-4.9a18.07,18.07,0,0,1,8.38-4.06,16,16,0,0,1,11.85,2.16,15.18,15.18,0,0,1,6.68,10.2C588.82,92.51,587.9,98.13,585.13,104Zm-6.74-22.83A11.38,11.38,0,0,0,570.21,80a14.65,14.65,0,0,0-5.9,2.67q.23,1.25,4,17.75l2.91,13.12a28,28,0,0,0,9.38-11.16q3.84-7.71,2.6-14.07A9.92,9.92,0,0,0,578.39,81.21Z"/><path d="M614.47,107.9a8.7,8.7,0,0,1-6.41,5.39,8.06,8.06,0,0,1-6.74-1.69,11.2,11.2,0,0,1-3.85-6.95,15.44,15.44,0,0,1,.32-7.52A11,11,0,0,1,601.6,91a15.71,15.71,0,0,0,1.75-1.38,3.56,3.56,0,0,1,1.56-1.1,12.68,12.68,0,0,1,1.48.08,10.77,10.77,0,0,1,5.87,2.84,11.07,11.07,0,0,1,3.16,5.93A17.26,17.26,0,0,1,614.47,107.9ZM608.3,94.61a4.52,4.52,0,0,1-2.4-.09c-1.65.32-2.81,1.59-3.51,3.68a10.72,10.72,0,0,0-.33,5.56,6.37,6.37,0,0,0,1.84,3.5,3.27,3.27,0,0,0,3.15,1.1c1.41-.28,2.48-1.4,3.31-3.39a10.51,10.51,0,0,0,.58-5.86C610.46,96.64,609.55,95.1,608.3,94.61Z"/><path d="M644.61,104.76c.08,1.08-.27,1.76-1.1,1.92a2.76,2.76,0,0,1-2.38-.64,4.13,4.13,0,0,1-1.38-2.36c0-.06-.11-1.2-.29-3.43l-.58-7.71c-4.17,4.66-6.91,8.79-8.28,12.48-.27.79-.48,1.62-.69,2.4-.41,1-.9,1.7-1.49,1.81-2.47.48-4.32-2.77-5.68-9.78A54.25,54.25,0,0,1,622,85.06c.08-.87.4-1.42,1.11-1.56a3,3,0,0,1,2.43.57,4.06,4.06,0,0,1,1.37,2.36c-.06,1.24-.11,2.59-.13,4.06a50,50,0,0,0,.87,9.24,48.77,48.77,0,0,1,11.19-14.2,4.32,4.32,0,0,1,2.47.44,2.81,2.81,0,0,1,1.54,2C643.34,90.64,643.94,96.27,644.61,104.76Z"/><path d="M652.34,56.94a37.68,37.68,0,0,1-2.24,6.42c-.89,1.7-1.7,2.59-2.4,2.73a1.93,1.93,0,0,1-2.59-1.7,2.84,2.84,0,0,1,.36-1.91,22.78,22.78,0,0,0,2.28-6.55,2.32,2.32,0,0,0,0-1,7.49,7.49,0,0,1,.49-4.43,3.29,3.29,0,0,1,2.66-2,2.1,2.1,0,0,1,1.68.47,2.64,2.64,0,0,1,1,1.58C653.73,51.47,653.29,53.64,652.34,56.94Z"/><path d="M685.94,77.69a2.05,2.05,0,0,1-1.36,1.18,3,3,0,0,1-2.34-.4c-.42.08-1.42.27-3.08.53s-2.72.47-3.31.58c-.17,4.8-.27,7.75-.29,8.92a55.76,55.76,0,0,0,.54,9.12,2.51,2.51,0,0,1,1.29,1.89,2.4,2.4,0,0,1-.51,1.81,2.75,2.75,0,0,1-1.57,1c-1.94.37-3.21-1.09-3.82-4.27a48.36,48.36,0,0,1-.51-8.64l.12-8.83c-1.82.36-2.87-.3-3.2-2a2.19,2.19,0,0,1,.65-2.32,6.76,6.76,0,0,1,2.69-1c.33-6.54.69-11.62,1.06-15.36a2.23,2.23,0,0,1,1.76-2.3c1.53-.29,2.53.43,3,2.16-.11,1.31-.31,2.82-.52,4.57-.24,2.55-.4,5.82-.47,9.87.41-.08,1.89-.31,4.38-.73,3.45-.48,5.35.19,5.72,2.07A3.52,3.52,0,0,1,685.94,77.69Z"/><path d="M623.29,151.3a2.05,2.05,0,0,1-1.36,1.18,3,3,0,0,1-2.34-.4c-.41.08-1.41.27-3.07.53s-2.72.47-3.31.58c-.17,4.8-.27,7.75-.29,8.92a55.76,55.76,0,0,0,.54,9.12,2.48,2.48,0,0,1,1.28,1.89,2.39,2.39,0,0,1-.5,1.81,2.78,2.78,0,0,1-1.57,1c-1.95.37-3.21-1.09-3.83-4.27a49.35,49.35,0,0,1-.51-8.64l.13-8.83c-1.83.36-2.87-.3-3.2-2a2.16,2.16,0,0,1,.65-2.32,6.64,6.64,0,0,1,2.69-1c.32-6.54.68-11.62,1.06-15.36a2.22,2.22,0,0,1,1.75-2.3c1.54-.29,2.53.43,3.05,2.17-.11,1.3-.31,2.8-.52,4.56-.24,2.55-.4,5.82-.48,9.87.42-.08,1.9-.31,4.39-.73,3.45-.48,5.35.19,5.71,2.07A3.37,3.37,0,0,1,623.29,151.3Z"/><path d="M645.79,163.33a8.75,8.75,0,0,1-6.42,5.39,8.06,8.06,0,0,1-6.74-1.69,11.25,11.25,0,0,1-3.85-6.95,15.44,15.44,0,0,1,.32-7.52,11,11,0,0,1,3.81-6.18,14.3,14.3,0,0,0,1.75-1.37,3.56,3.56,0,0,1,1.56-1.1,10.21,10.21,0,0,1,7.35,2.92,11.08,11.08,0,0,1,3.16,5.92A17.36,17.36,0,0,1,645.79,163.33ZM639.61,150a4.52,4.52,0,0,1-2.4-.09c-1.65.32-2.81,1.59-3.51,3.67a10.76,10.76,0,0,0-.33,5.57,6.31,6.31,0,0,0,1.84,3.49,3.26,3.26,0,0,0,3.15,1.11c1.41-.28,2.48-1.4,3.31-3.4a10.46,10.46,0,0,0,.58-5.85C641.77,152.06,640.86,150.53,639.61,150Z"/><path d="M676.27,142.09a45.63,45.63,0,0,0-.2,7.19,45.73,45.73,0,0,0,.36,6A10.83,10.83,0,0,0,677,157a14.08,14.08,0,0,1,.45,1.38,3.91,3.91,0,0,1-.26,2.43,2.28,2.28,0,0,1-1.74,1.44,3.37,3.37,0,0,1-2-.23,1.74,1.74,0,0,1-1.19-1.41,2.52,2.52,0,0,1,.15-1.44c-.19-1-.43-3.46-.71-7.44-4.48,7.77-8.26,11.93-11.38,12.53a5.33,5.33,0,0,1-3.63-.4,4,4,0,0,1-2-3,40.22,40.22,0,0,1-.2-7.36,67.52,67.52,0,0,0-.18-7.91c0-.12-.06-.29-.13-.65a2.67,2.67,0,0,1-.18-.63,2.84,2.84,0,0,1,.36-1.91,1.8,1.8,0,0,1,1.3-1.17c1.59-.3,2.67.83,3.15,3.31a45.92,45.92,0,0,1,.25,7,42.55,42.55,0,0,0,.17,6.87.63.63,0,0,0,.84.57c2.77-.54,6.79-6.94,12.1-19.27.43-.94.94-1.46,1.64-1.6,1.42-.27,2.29.41,2.61,2.06A9.39,9.39,0,0,1,676.27,142.09Z"/><path d="M700.07,154.23a11.19,11.19,0,0,1-6.27,4,8.74,8.74,0,0,1-6.65-1.22,8.61,8.61,0,0,1-3.69-5.82,16.71,16.71,0,0,1,1.46-10.74c2.09-4.37,5-7,8.73-7.67a4.39,4.39,0,0,1,2.63.34,2.79,2.79,0,0,1,1.49,2,3.13,3.13,0,0,1-.6,2.25,3.4,3.4,0,0,1-2.1,1.45,6.74,6.74,0,0,1-3.36,0,13.62,13.62,0,0,0-3.11,5.07,10.59,10.59,0,0,0-.54,5.73c.57,2.94,2,4.14,4.32,3.68a6,6,0,0,0,3.49-1.83c.47-.71,1.07-1.43,1.66-2.16a3.8,3.8,0,0,1,1.78-1.57,2.32,2.32,0,0,1,1.73.46,2.84,2.84,0,0,1,1.05,1.63C702.32,151,701.62,152.46,700.07,154.23Z"/><path d="M729.78,152.39c-2.48.48-4.31-2-5.64-7.65l-1.67-7.07q-6.81,7.46-8.3,12.06c-.23,1-.46,2-.76,3-.46,1.43-.86,2.18-1.34,2.27a3.05,3.05,0,0,1-2.5-.62,4,4,0,0,1-1.35-2.24c0-.12-.13-.65-.31-1.59s-.35-1.52-.42-1.87a87.66,87.66,0,0,1-1.68-16.91l-.22-19.45c0-2,.43-3.14,1.37-3.32a2.31,2.31,0,0,1,2.18.86,4.3,4.3,0,0,1,1.37,2.3c0,.29.06,1.27.08,3s-.06,4.41,0,7.94l0,9.59c0,1.59.21,5.15.61,10.7a43.94,43.94,0,0,1,5.63-7.51c2.9-3.37,4.93-5.17,6-5.37a2.8,2.8,0,0,1,2.4.69,4.61,4.61,0,0,1,1.45,2.47c0,.18.08,1,.25,2.52s.35,2.44.42,2.79a60.89,60.89,0,0,0,2,7.73c.32,1,.74,2.25,1.21,3.74C730.72,151.59,730.48,152.25,729.78,152.39Z"/></g></g></svg>