<svg xmlns="http://www.w3.org/2000/svg" viewBox="0 0 1980 1080"><defs><style>.cls-1{fill:#ec1c00;opacity:0.3;}.cls-2{fill:#fff;}.cls-3{fill:#f18701;}.cls-4{fill:#f35b04;}.cls-5{fill:#3d348b;}.cls-6{fill:#90bdef;}.cls-7{fill:#f7b801;}.cls-8{fill:#7678ed;}.cls-10,.cls-11,.cls-12,.cls-13,.cls-9{fill:none;stroke-miterlimit:10;}.cls-9{stroke:#000;}.cls-10,.cls-11{stroke:#3d348b;}.cls-10{stroke-width:0.75px;}.cls-12{stroke:#f7b801;stroke-width:4px;}.cls-13{stroke:#fff;stroke-width:2px;}</style></defs><g id="圖層_4" data-name="圖層 4"><path class="cls-1" d="M825,1080,0,1083V0H654.16C811,170,381,243,413,441c21.71,134.32,44.23,249.53,435,319C983,784,889.87,918.72,825,1080Z"/><path class="cls-1" d="M1980,14.31V855.46c-47.8,52.5-98.24,82.35-148,73.54-110.71-19.6-168-303-408-357-281.92-63.43,65.79-297.41-273-378-98.22-23.36-102.08-106.82-74.86-194H1943.6Q1962.11,7.14,1980,14.31Z"/></g><g id="圖層_2_拷貝" data-name="圖層 2 拷貝"><polygon class="cls-2" points="89 1080 89 917 97 881 97 1078 89 1080"/><polygon class="cls-3" points="1804 783 1804 802 1811 804 1812 780 1804 783"/><polygon class="cls-4" points="1813 801 1811 804 1812 780 1814 779 1813 801"/><polygon class="cls-3" points="1777 788 1780 833 1787 835 1787 790 1777 788"/><polygon class="cls-4" points="1790 832 1787 835 1787 790 1791 788 1790 832"/><polygon class="cls-3" points="1719 784 1721 821 1727 824 1728 786 1719 784"/><polygon class="cls-4" points="1730 822 1727 824 1728 786 1730 786 1730 822"/><polygon class="cls-5" points="1742 579 1832 598 1827 711 1737 699 1742 579"/><rect class="cls-6" x="1097" width="883" height="339"/><polygon class="cls-2" points="1829.67 0 1519.85 0 1980 143.96 1980 54.17 1829.67 0"/><path class="cls-7" d="M1482,257l29-4,25,30s-6,21-7,21-28,3-29,3-21-2-21-2l-7-12Z"/><path class="cls-5" d="M214.81,1032.31l-1.85,7-1,3.64-63-8v-29l31.16,1,29,13.4A10.24,10.24,0,0,1,214.81,1032.31Z"/><path class="cls-4" d="M295.72,471.71l1.51-10.1s10.19-3.9,4.28,10.67c0,0-4.28,6.3-5.56,0"/><rect class="cls-8" x="17" y="58" width="259" height="403"/><polygon class="cls-5" points="172 461 17 461 17 58 172 461"/><rect class="cls-6" x="47" y="82.4" width="199" height="354.2"/><polygon class="cls-2" points="246 82.4 246 275.65 182.41 82.4 246 82.4"/><polygon class="cls-8" points="502 804.07 502 989 484 986 484 817 502 804.07"/><polygon class="cls-5" points="502 997 508 996 508 797.04 502 804 502 997"/><polyline class="cls-9" points="88.87 885.81 88.99 1072.38 89 1080"/><polygon class="cls-8" points="89 1080 71 1076 71 876.25 89 881 89 1080"/><polyline class="cls-5" points="89 1080 89 881 97 881 96.75 1078 96.75 886.76"/><path class="cls-8" d="M527.39,751.18c-8.47,49.63-104.62,103.57-228.58,125.36-135.55,23.82-253.06.17-262.56-52.84,0,0,0-.06,0-.09-9.39-53.06,93-115.4,228.59-139.24s253.2-.14,262.59,52.93A40.44,40.44,0,0,1,527.39,751.18Z"/><polygon class="cls-4" points="213 899.81 184.1 1007 146 1007 158.78 897.85 213 899.81"/><line class="cls-10" x1="36.5" y1="817.5" x2="37.5" y2="835.5"/><line class="cls-11" x1="527.5" y1="742.5" x2="526.5" y2="763.5"/><polygon class="cls-5" points="152 757 216 790 216 800 152 762 152 757"/><polyline class="cls-5" points="221.74 775.81 200 764 236.51 754.46"/><ellipse class="cls-5" cx="183" cy="858.5" rx="40" ry="8.5"/><ellipse class="cls-6" cx="183" cy="858.5" rx="25.88" ry="5.5"/><polyline class="cls-5" points="249 737 225 743 239 751"/><path class="cls-7" d="M160,825l4,32s13,11,39,0l4-32"/><path class="cls-12" d="M160.89,834.27s-9.16.66-5.16,10.62,7.28,4.74,7.28,4.74"/><path class="cls-4" d="M1491,237s8,8,18,0l2-3h-21Z"/><path class="cls-3" d="M212.83,509s8.86,17-10.83,30l60.06-2c-7.64-7.89,3.94-23,3.94-23"/><polyline class="cls-5" points="134 568.01 97 568 96.75 601.1"/><path class="cls-5" d="M111,702l-5,19,12,9,13,4,15-16s3-14-3-16S111,702,111,702Z"/><rect class="cls-5" x="1097" y="339" width="883" height="17"/><rect class="cls-5" x="1449" y="392" width="103" height="11" rx="5.5"/><polygon class="cls-3" points="1462.4 403 1453 525 1467 525 1474.44 403 1462.4 403"/><polygon class="cls-3" points="1543.04 403 1552.44 525 1538.44 525 1531 403 1543.04 403"/><polygon class="cls-3" points="1467.84 464 1537.5 464 1538 479.64 1467 479.64 1467.84 464"/><path class="cls-5" d="M1494.76,397c40.24,0,44.24-2.37,44.24-32h-80"/><path class="cls-5" d="M1503.24,397c-40.24,0-44.24-2.37-44.24-32h80"/><path class="cls-3" d="M1491,237.06a13.84,13.84,0,0,1,0,11.94h17.53s-1.53-9.61.47-11.94S1501,245,1491,237.06Z"/><ellipse class="cls-3" cx="1499.5" cy="206" rx="28.5" ry="32"/><path class="cls-4" d="M1489,162s-8,9-10,10-10,3-8,8-3,13,0,16,3,18,18,20,22,0,22,0,14.45-4,15.72-19.5S1535,182,1531,180s-6-4-9-6-10-4-10-8-4-9-4-9-7,4-12,3S1492,159,1489,162Z"/><path class="cls-3" d="M1528,202.88s3-.88,3,2.12,0,6-1,6-1,0-2.22-1"/><path class="cls-3" d="M1470.78,202.88s-3-.88-3,2.12,0,6,1,6,1,0,2.22-1"/><rect class="cls-5" x="1126.06" y="387.44" width="103" height="11" rx="5.5"/><polygon class="cls-3" points="1151.5 398.44 1144.06 520.44 1130.06 520.44 1139.46 398.44 1151.5 398.44"/><polygon class="cls-4" points="1142.97 398.44 1140.15 520.44 1130.06 520.44 1139.46 398.44 1142.97 398.44"/><polygon class="cls-4" points="1465.97 403 1463.15 525 1453.06 525 1462.46 403 1465.97 403"/><polygon class="cls-3" points="1220.1 398.44 1229.5 520.44 1215.5 520.44 1208.06 398.44 1220.1 398.44"/><polygon class="cls-3" points="1145.83 459.44 1214.51 459.44 1215 475.08 1145 475.08 1145.83 459.44"/><rect class="cls-5" x="1848.39" y="387.92" width="103" height="11" rx="5.5"/><polygon class="cls-3" points="1861.79 398.92 1852.39 520.92 1866.39 520.92 1873.83 398.92 1861.79 398.92"/><polygon class="cls-3" points="1942.43 398.92 1951.83 520.92 1937.83 520.92 1930.39 398.92 1942.43 398.92"/><polygon class="cls-3" points="1868.84 459.92 1938.5 459.92 1939 475.56 1868 475.56 1868.84 459.92"/><polygon class="cls-5" points="1530.2 403 1528.39 454 1512.39 454 1508.46 403 1530.2 403"/><polygon class="cls-5" points="1497.2 403 1495.39 454 1479.39 454 1475.46 403 1497.2 403"/><rect class="cls-5" x="17" width="259" height="58"/><rect class="cls-6" x="24" y="6" width="246" height="46"/><line class="cls-13" x1="115" y1="10" x2="152" y2="40"/><path class="cls-6" d="M352,348s33,23,100,6C452,354,423,337,352,348Z"/><path class="cls-6" d="M452,354,436,457a127.36,127.36,0,0,1-28.11,6.37C393.76,465,376.4,464.47,361,457l-9-108,1.32.07Z"/><path class="cls-8" d="M407.89,463.37C393.76,465,376.4,464.47,361,457l-9-108,1.32.07C357.27,373.17,371.14,438.65,407.89,463.37Z"/><path class="cls-7" d="M397,354s11-253,5-259c0,0,18,115,11,259Z"/><path class="cls-7" d="M410,323s14-63,46-78,32-44,35-51-6,128-54,143-31,12-31,12Z"/><path class="cls-7" d="M400.25,265.12s-9.9-44.57-32.54-55.18S345.07,178.81,343,173.86s4.25,90.55,38.2,101.16,21.93,8.49,21.93,8.49Z"/><path class="cls-8" d="M408.61,223.77s8.14-36.63,26.74-45.35,18.6-25.58,20.35-29.65-3.49,74.41-31.39,83.13-18,7-18,7Z"/><path class="cls-3" d="M401,213.48s-10-33.38-33-41.32-22.94-23.31-25.09-27,4.3,67.81,38.72,75.76,22.22,6.36,22.22,6.36Z"/><path class="cls-8" d="M428,110c3.53-3.65-2.92,16.52-27,30-10.51,5.88-8,34-4,40s10.08,18.5,10.08,18.5S425,176,427,170,433,124,428,110Z"/><path class="cls-3" d="M256,775c-.46,0-13.58-3.38-27.63-7-16.54-4.3-34.37-9-34.37-9l1.81-6.65L197,748l29-3s11,4-3,4l33,7S257,775,256,775Z"/><path class="cls-4" d="M228.37,768c-16.54-4.3-34.37-9-34.37-9l1.81-6.65Z"/><polygon class="cls-6" points="151.89 756.51 250.41 734.36 152.11 757.49 151.89 756.51"/><path class="cls-7" d="M302,540c-56-11-108,0-108,0S54.24,570.84,47.25,734.72a13.06,13.06,0,0,0,8.32,12.75C81.18,757.37,159.69,787.41,196,761l5-15c-32,4-93-29-93-29l17.74-4.67c-.43,6.37.56,23.21,24.26,16.67,29-8,162-37,164-39,1.25-1.25,9.58-18.23,15.13-31.22l31.17-8.2C370.59,605.15,358,551,302,540Z"/><path class="cls-4" d="M136.42,674.25S113,724,136,730"/><path class="cls-4" d="M302.86,627.42s12.61,31,2.77,39.82"/><ellipse class="cls-4" cx="183.5" cy="825" rx="23.5" ry="5"/><polygon class="cls-5" points="97 1078 96.75 1070.81 502 989 502 997 97 1078"/><polygon class="cls-2" points="264 1058 362 989 371 991 266 1074 264 1058"/><polygon class="cls-5" points="371 991 266.12 1071 266 1080 371 997 371 991"/><polygon class="cls-6" points="97 1065.42 97 1071 502 989 484 986 97 1065.42"/><polygon class="cls-5" points="353 871 353 991 371 991 371 867 353 871"/><polygon class="cls-6" points="353 991 266.1 1053.76 266 1057 371 991 353 991"/><polygon class="cls-6" points="484 621 482 619 297 667 213 788.45 218 790 300 672 484 621"/><polygon class="cls-5" points="301 669 216 790 216 800 397 762 484 621 301 669"/><polygon class="cls-6" points="215.91 789.51 401.65 754.46 216.09 790.49 215.91 789.51"/><line class="cls-13" x1="161.89" y1="45.78" x2="168" y2="50"/><line class="cls-13" x1="155" y1="12" x2="200.89" y2="49.78"/><path class="cls-8" d="M1482,454h11a4,4,0,0,1,4,4v6a0,0,0,0,1,0,0h-19a0,0,0,0,1,0,0v-6A4,4,0,0,1,1482,454Z"/><rect class="cls-5" x="1478" y="462" width="19" height="2"/><path class="cls-8" d="M1515,454h11a4,4,0,0,1,4,4v6a0,0,0,0,1,0,0h-19a0,0,0,0,1,0,0v-6A4,4,0,0,1,1515,454Z"/><rect class="cls-5" x="1511" y="462" width="19" height="2"/><path class="cls-8" d="M1506,247s-66.69-3-70,46,17.49,46,18.59,46"/><path class="cls-8" d="M1544.4,339c1.07,0,21.48,3,18.26-46S1495,247,1495,247"/><path class="cls-5" d="M1532,343s18-2,20-13-9-35-9-35l-4-2h-20l2,42Z"/><polygon class="cls-4" points="1864.97 399 1862.15 521 1852.06 521 1861.46 399 1864.97 399"/><path class="cls-4" d="M200,461l3-12s-10-9-10,10c0,0,2,9,6.47,2.5"/><path class="cls-4" d="M213,509s6.86,34,53,5"/><ellipse class="cls-3" cx="250" cy="461.5" rx="61.5" ry="49" transform="translate(-273.08 504.72) rotate(-66.28)"/><path class="cls-5" d="M318,392s-15,17-74,1-44,7-44,17-12,20-6,26,18,5,22,5c10.58,0,6-24,47-17C283.79,427.55,318,437,318,392Z"/><polygon class="cls-5" points="217.05 500.71 199.5 461.5 217.95 500.29 217.05 500.71"/><polygon class="cls-5" points="273.13 490.16 300.47 461.53 273.87 490.84 273.13 490.16"/><polygon class="cls-5" points="266.13 508.16 297.5 474.5 266.87 508.84 266.13 508.16"/><polygon class="cls-5" points="222.08 480.76 202.5 448.5 222.92 480.24 222.08 480.76"/><path class="cls-6" d="M266.56,510.4l-49.45-8.22a1,1,0,0,1-.79-1.26l6.44-22.08a1,1,0,0,1,1.1-.71l50.95,7.69a1,1,0,0,1,.79,1.32l-7.94,22.6A1,1,0,0,1,266.56,510.4Z"/><path class="cls-6" d="M213,1039.36l-1,3.64-63-8v-5.51C159.72,1031.27,196.46,1037.29,213,1039.36Z"/><path class="cls-5" d="M332,1018.62l-1.67,7.09-.87,3.67L266.28,1023l-.74-29,31.17.2,29.38,12.66A10.23,10.23,0,0,1,332,1018.62Z"/><path class="cls-6" d="M330.33,1025.71l-.87,3.67L266.28,1023l-.14-5.51C276.9,1019,313.78,1024.07,330.33,1025.71Z"/><polygon class="cls-4" points="325 883.05 298.69 995 264 995 275.64 881 325 883.05"/><polygon class="cls-5" points="248 1080 249 892 266 892 266 1080 248 1080"/><path class="cls-5" d="M299,890.54c-135.19,23.83-252.36.14-261.72-52.93a40.12,40.12,0,0,1,0-13.91c9.47,53,126.59,76.66,261.7,52.84,123.55-21.79,219.39-75.73,227.83-125.36,0,0,0,.08,0,.12C536.15,804.36,434.14,866.7,299,890.54Z"/><polygon class="cls-2" points="1861 912 1861 831 1855 786 1854.94 910.62 1861 912"/><polygon class="cls-8" points="1556.65 733 1556.64 852.97 1569.89 851.02 1569.89 741.39 1556.65 733"/><polygon class="cls-5" points="1556.64 858.16 1552.22 857.51 1552.22 728.44 1556.64 732.96 1556.64 858.16"/><polyline class="cls-9" points="1860.81 786.03 1860.72 907.06 1860.71 912"/><polygon class="cls-8" points="1860.71 912 1873.96 909.4 1873.96 779.83 1860.71 782.91 1860.71 912"/><polyline class="cls-5" points="1860.71 912 1860.71 782.91 1854.82 782.91 1855 910.7 1855 786.64"/><path class="cls-8" d="M1538,698.69c6.24,32.2,77,67.19,168.29,81.32,99.8,15.45,186.31.11,193.3-34.28l0-.05c6.91-34.43-68.44-74.87-168.3-90.33s-186.41-.09-193.32,34.34A23.1,23.1,0,0,0,1538,698.69Z"/><line class="cls-10" x1="1899.36" y1="741.71" x2="1898.63" y2="753.39"/><line class="cls-11" x1="1537.87" y1="693.06" x2="1538.6" y2="706.68"/><polygon class="cls-5" points="1854.82 910.7 1855 906.04 1556.64 852.97 1556.64 858.16 1854.82 910.7"/><polygon class="cls-2" points="1735 900 1695.06 876.32 1675.23 869.14 1735 910 1735 900"/><polygon class="cls-5" points="1653.09 854.26 1730.3 906.16 1730.39 912 1653.09 858.16 1653.09 854.26"/><polygon class="cls-6" points="1854.82 902.54 1854.82 906.16 1556.64 852.97 1569.89 851.02 1854.82 902.54"/><polygon class="cls-5" points="1666.34 776.42 1666.34 854.26 1653.09 854.26 1653.09 773.82 1666.34 776.42"/><polygon class="cls-6" points="1666.34 854.26 1730.32 894.98 1730.39 897.08 1653.09 854.26 1666.34 854.26"/><polygon class="cls-5" points="1743.65 912 1742.91 790.04 1730.39 790.04 1730.39 912 1743.65 912"/><path class="cls-5" d="M1706.14,789.09c99.53,15.46,185.79.1,192.68-34.33a22.88,22.88,0,0,0,0-9c-7,34.39-93.2,49.73-192.67,34.28-91-14.13-161.53-49.12-167.74-81.32l0,.08C1531.5,733.19,1606.6,773.63,1706.14,789.09Z"/><line class="cls-13" x1="1219.21" y1="47.46" x2="1369" y2="118"/><line class="cls-13" x1="1120.26" y1="63.08" x2="1243" y2="121"/><line class="cls-13" x1="1269.79" y1="140.39" x2="1341" y2="173.99"/><path class="cls-5" d="M1467.69,344s-18-2-20-13,9-35,9-35l4-2h20l-2,42Z"/><path class="cls-8" d="M1461,293c-1.62,2.52-8,53.8-10,70.08a4.33,4.33,0,0,0,4.16,4.94c11.87.06,43.28.38,62.45,2,24,2,22.08-3,27.84-5s-6.72-72-6.72-72"/><path class="cls-5" d="M352,348a69.28,69.28,0,0,0,11.1,7.19,89.71,89.71,0,0,0,12.08,5.26,86.18,86.18,0,0,0,12.7,3.39,82.75,82.75,0,0,0,13,1.46,88.51,88.51,0,0,0,13.12-.45c1.09-.07,2.18-.24,3.26-.39s2.18-.27,3.26-.49c2.15-.43,4.32-.77,6.45-1.32A137.65,137.65,0,0,0,452,354a105.81,105.81,0,0,1-24.61,10.16,88.67,88.67,0,0,1-26.55,3.14,81.3,81.3,0,0,1-26.2-5.39A69.48,69.48,0,0,1,352,348Z"/><path class="cls-8" d="M398.59,315s-14-63-46-78-32-44-35-51,6,128,54,143,31,12,31,12Z"/><path class="cls-3" d="M400.89,273.87S395,224,446.66,216c12.83-2,15.35-13.83,18.34-19s10.51,76.12-37.25,87.25S403,290,403,290Z"/></g></svg>