<svg xmlns="http://www.w3.org/2000/svg" xmlns:xlink="http://www.w3.org/1999/xlink" viewBox="0 0 1980 1080"><defs><style>.cls-1{isolation:isolate;}.cls-2{fill:#06f;opacity:0.24;}.cls-26,.cls-3,.cls-4{fill:#d90429;}.cls-10,.cls-12,.cls-14,.cls-15,.cls-18,.cls-20,.cls-24,.cls-25,.cls-29,.cls-4,.cls-7,.cls-9{mix-blend-mode:multiply;}.cls-27,.cls-33,.cls-34,.cls-5{fill:#fff;}.cls-6{fill:#ff1654;}.cls-7{fill:#f21654;}.cls-10,.cls-8{fill:#f3ffbd;}.cls-9{fill:#f3f3bd;}.cls-11{opacity:0.43;fill:url(#未命名漸層_97);}.cls-12{fill:url(#未命名漸層_98);}.cls-13,.cls-14,.cls-15{fill:#ffe66d;}.cls-15{opacity:0.51;}.cls-16,.cls-22,.cls-30,.cls-31,.cls-32{fill:none;}.cls-16{stroke:#ffe66d;stroke-width:2px;}.cls-16,.cls-30,.cls-31,.cls-32{stroke-miterlimit:10;}.cls-17,.cls-18{fill:#247ba0;}.cls-19,.cls-20,.cls-21{fill:#70c1b3;}.cls-21{opacity:0.34;}.cls-21,.cls-26,.cls-27{mix-blend-mode:color-dodge;}.cls-23{fill:#e51654;mix-blend-mode:color-burn;}.cls-24{opacity:0.12;}.cls-27{opacity:0.9;}.cls-28,.cls-29{fill:#d90457;}.cls-30{stroke:#247ba0;}.cls-31,.cls-32{stroke:#fff;}.cls-32{stroke-width:0.75px;}.cls-33{opacity:0.26;}.cls-34{opacity:0.19;}</style><linearGradient id="未命名漸層_97" x1="375.35" y1="469.8" x2="676.41" y2="703.71" gradientUnits="userSpaceOnUse"><stop offset="0.25" stop-color="#fff" stop-opacity="0"/><stop offset="0.31" stop-color="#f9fcfa" stop-opacity="0.02"/><stop offset="0.36" stop-color="#e6f3ea" stop-opacity="0.06"/><stop offset="0.4" stop-color="#c6e5d0" stop-opacity="0.15"/><stop offset="0.43" stop-color="#b2dbbf" stop-opacity="0.2"/><stop offset="0.47" stop-color="#c8a2a0" stop-opacity="0.17"/><stop offset="0.56" stop-color="#f03c68" stop-opacity="0.12"/><stop offset="0.61" stop-color="#ff1654" stop-opacity="0.1"/><stop offset="0.65" stop-color="#ff3858" stop-opacity="0.21"/><stop offset="0.71" stop-color="#ff6d5e" stop-opacity="0.39"/><stop offset="0.77" stop-color="#ff9864" stop-opacity="0.54"/><stop offset="0.83" stop-color="#ffba68" stop-opacity="0.65"/><stop offset="0.89" stop-color="#ffd36b" stop-opacity="0.73"/><stop offset="0.94" stop-color="#ffe16c" stop-opacity="0.78"/><stop offset="1" stop-color="#ffe66d" stop-opacity="0.8"/></linearGradient><linearGradient id="未命名漸層_98" x1="344.76" y1="326.28" x2="740.69" y2="633.9" gradientUnits="userSpaceOnUse"><stop offset="0.25" stop-color="#fff" stop-opacity="0"/><stop offset="0.31" stop-color="#f9fcfa" stop-opacity="0.02"/><stop offset="0.36" stop-color="#e6f3ea" stop-opacity="0.06"/><stop offset="0.4" stop-color="#c6e5d0" stop-opacity="0.15"/><stop offset="0.43" stop-color="#b2dbbf" stop-opacity="0.2"/><stop offset="0.47" stop-color="#c8a2a0" stop-opacity="0.17"/><stop offset="0.57" stop-color="#f03c68" stop-opacity="0.12"/><stop offset="0.63" stop-color="#ff1654" stop-opacity="0.1"/><stop offset="0.67" stop-color="#ff3858" stop-opacity="0.21"/><stop offset="0.72" stop-color="#ff6d5e" stop-opacity="0.39"/><stop offset="0.78" stop-color="#ff9864" stop-opacity="0.54"/><stop offset="0.84" stop-color="#ffba68" stop-opacity="0.65"/><stop offset="0.89" stop-color="#ffd36b" stop-opacity="0.73"/><stop offset="0.95" stop-color="#ffe16c" stop-opacity="0.78"/><stop offset="1" stop-color="#ffe66d" stop-opacity="0.8"/></linearGradient></defs><g class="cls-1"><g id="圖層_4" data-name="圖層 4"><path class="cls-2" d="M891,255C715,558,674.85,504,743.66,623,808.43,735,540.78,940.88,0,804.68V0H857.06C924.17,58.33,957.36,140.74,891,255Z"/><path class="cls-2" d="M1980,360.53V1080H1255.41c39.38-54.52,122.64-149.27,12.59-321-157-245,160-362,262-310,53.37,27.21,191,5,302-117C1883.55,275.34,1937.26,308.62,1980,360.53Z"/></g><g id="圖層_2_拷貝" data-name="圖層 2 拷貝"><path class="cls-3" d="M1638,714h10a4,4,0,0,1,4,4v12a0,0,0,0,1,0,0h-18a0,0,0,0,1,0,0V718A4,4,0,0,1,1638,714Z" transform="translate(-140.88 918.23) rotate(-30)"/><path class="cls-4" d="M1632.72,720.51a4,4,0,0,0,.49,2.53l6,10.39,15.58-9-1.09-1.9Z"/><path class="cls-5" d="M1638,722s1-8,8-4Z"/><path class="cls-6" d="M1951,766l-63,94s-46-51-56-99a98.55,98.55,0,0,1-1.85-14.37C1827.31,699,1852.66,635.24,1878,628c28-8,22.8-61.86,25-59,27.34,35.55,41.6,69.8,48.52,99.5C1964.86,725.71,1951,766,1951,766Z"/><path class="cls-7" d="M1951,766l-63,94s-46-51-56-99a98.55,98.55,0,0,1-1.85-14.37c9.67-13.14,20.76-21.64,32.85-19.63,42,7,55-10,55-10l33.52-48.5C1964.86,725.71,1951,766,1951,766Z"/><polygon class="cls-8" points="472 769 472 822 543 822 472 769"/><polygon class="cls-9" points="472 769 472 822 543 822 472 769"/><polygon class="cls-8" points="472 769 543 822 729 822 729 667.57 472 769"/><path class="cls-10" d="M729,708c-1.65.55-25.11,23.75-49,34-38.53,16.54-80.37,45.74-118,62-23.62,10.21-24,14-24,14l5,4H729Z"/><polygon class="cls-11" points="725 504 653 388 308 715 537 769 725 504"/><polygon class="cls-12" points="725 504 653 397 364 510 541 563 725 504"/><rect class="cls-13" x="619" y="532" width="8" height="21"/><rect class="cls-14" x="619" y="532" width="8" height="21"/><rect class="cls-13" x="550" y="532" width="8" height="21"/><rect class="cls-14" x="550" y="532" width="8" height="21"/><polygon class="cls-13" points="509 507 509 350 544 370 544 535 509 507"/><polygon class="cls-14" points="509 507 509 350 544 370 544 535 509 507"/><polyline class="cls-13" points="632 535 637 367 544 370 544 535 632 535"/><polyline class="cls-15" points="632 535 637 367 544 370 544 535 632 535"/><polyline class="cls-8" points="627.54 528 632 374 549 376.75 549 528 627.54 528"/><polygon class="cls-13" points="509 350 544 370 637 367 597 343 509 350"/><line class="cls-16" x1="549" y1="419.29" x2="630.76" y2="416.92"/><line class="cls-15" x1="549" y1="419.29" x2="630.76" y2="416.92"/><path class="cls-13" d="M603,399v.09a2.19,2.19,0,0,1-.13.77,2.49,2.49,0,0,1-2.27,1.74l-19,.74A2.49,2.49,0,0,1,579,400v-.09a2.49,2.49,0,0,1,2.4-2.51l19-.74A2.49,2.49,0,0,1,603,399Z"/><polygon class="cls-14" points="543 351 546 365 585 364 587 363 543 351"/><path class="cls-14" d="M602.86,399.89a2.49,2.49,0,0,1-2.27,1.74l-19,.74A2.49,2.49,0,0,1,579,400v-.09a2.54,2.54,0,0,1,.76-1.81C585.8,399.05,597.3,399.65,602.86,399.89Z"/><path class="cls-13" d="M625,432v24a3,3,0,0,1-6,0V432a3,3,0,0,1,6,0Z"/><path class="cls-14" d="M625,452.89V456a3,3,0,0,1-6,0V439.53c1.29,7.06,2.93,14.47,4,14.47A3.05,3.05,0,0,0,625,452.89Z"/><path class="cls-17" d="M135,561c-23,13-81-50-117-99s-5-254,2-259c.45-.32,5.05-.56,12.94-.71C101.77,200.87,421,205,421,205l4,4H51l8,173,39.51,46.81L134,467C156,486,135,561,135,561Z"/><path class="cls-18" d="M135,561c-23,13-81-50-117-99s-5-254,2-259c.45-.32,4.11,4.15,12,4C25.11,250.42,6.59,390.71,49,417c19.34,12,64.18,56.2,78,56l7-6C156,486,135,561,135,561Z"/><path class="cls-19" d="M444.77,381h-3.24l-117.71.3-119.8.3c-.08.8-.16,1.59-.25,2.39,0,0-.12-.83-.35-2.38h-1.14L52.77,382c9.78-88-21.13-175-21.13-175s55.23-14.89,150,1.82c.18-1.55.62-1.6,1.38.18,0,0,9.72-1.88,24-3.82,12.66-1.72,28.9-3.48,45.11-4,22-.73,44,.81,56.89,7.83,0,0,48.75-16.44,96.25-7.76A126.78,126.78,0,0,1,423.64,206S454.55,293,444.77,381Z"/><path class="cls-20" d="M323.82,381.31,219,383c-.08.8-3.91-.8-4,0,0,0-11.77.55-12-1l10,1c-8-95-22-73.89-22-145,0-28,11-22,16-32.82,12.66-1.72,28.9-3.48,45.11-4L307,237s16,46,22,59C334,306.88,326.43,361.91,323.82,381.31Z"/><path class="cls-21" d="M444.77,381h-3.24c4.28-68.79-19.89-140.18-36.28-179.77A126.78,126.78,0,0,1,423.64,206S454.55,293,444.77,381Z"/><path class="cls-19" d="M540.49,465l-11.81.59c-24,1.19-81.9,3.95-146.44,6.49-32.7,1.3-67.11,2.53-99.71,3.47C199,477.93,127.42,478.41,127,473c-1-13-72-91-72-91l148.06-.76,147-.75,82.79-.43L444,380C509,411,540.49,465,540.49,465Z"/><path class="cls-20" d="M392.24,472.82c-32.7,1.3-67.11,2.53-99.71,3.47L267,458l-28-35c-18-18-25.94-28.32-25.94-41l147-.75,7,8.51Z"/><path class="cls-21" d="M540.49,465l-11.81.59C519.32,429.46,474.51,397.16,441,380h3C509,411,540.49,465,540.49,465Z"/><path class="cls-17" d="M49,381.5c16.5-.34,33-.48,49.5-.73l49.5-.42c16.5-.18,33-.15,49.5-.21L247,380l49.5.13c16.5.08,33,0,49.5.22l49.5.41c16.5.25,33,.4,49.5.74-16.5.34-33,.49-49.5.74l-49.5.41c-16.5.19-33,.14-49.5.22L247,383l-49.5-.14c-16.5-.06-33,0-49.5-.21l-49.5-.42C82,382,65.5,381.84,49,381.5Z"/><path class="cls-19" d="M540,465s16,77.58,0,83.71S125,563,125,563s22-80.65,2-89.83Z"/><path class="cls-20" d="M540,465s16,77.58,0,83.71S125,563,125,563s22-80.65,2-89.83Z"/><path class="cls-17" d="M215,381.59c6.43,6.22,12.48,12.82,18.31,19.59,2.94,3.38,5.77,6.85,8.58,10.33s5.5,7.06,8.16,10.66,5.21,7.29,7.66,11.06,4.82,7.57,6.94,11.54A97.92,97.92,0,0,1,270.38,457c1.53,4.21,2.83,8.67,2.62,13.17a39.69,39.69,0,0,0-4-12.6,127.56,127.56,0,0,0-6.39-11.63q-3.5-5.65-7.28-11.13c-2.49-3.68-5.09-7.29-7.72-10.87-5.23-7.19-10.66-14.24-16.12-21.28Z"/><path class="cls-17" d="M182.5,209.5q7.31,20.87,13.46,42.12t11.45,42.72c3.41,14.35,6.53,28.78,8.76,43.39a217.52,217.52,0,0,1,2.38,22,91.53,91.53,0,0,1-.12,11.11,39.33,39.33,0,0,1-.8,5.51,14.37,14.37,0,0,1-2.13,5.1,14.28,14.28,0,0,0,1.69-5.19,41.59,41.59,0,0,0,.45-5.46,89.21,89.21,0,0,0-.56-11c-.71-7.3-1.91-14.55-3.22-21.77s-2.79-14.42-4.4-21.59-3.23-14.34-5-21.49-3.48-14.29-5.29-21.42-3.66-14.25-5.48-21.38Z"/><path class="cls-13" d="M429,489l-134,2-61-81c-15-11-2-43-2-43s9.57-.48,23.74-1.16c40-1.95,116.78-5.58,118.26-4.84,2,1,5,39,21,44,6.75,2.11,13.85,17.38,19.81,34.34h0C423,462.6,429,489,429,489Z"/><path class="cls-14" d="M429,489l-134,2-61-81c-15-11-2-43-2-43s9.57-.48,23.74-1.16c-1.36,8.55-2.81,22.73,1.26,28.16,6,8,35,41,35,47a135.73,135.73,0,0,1,47-1c21.94,3.56-15-29-12-30,3.91-1.3,26.23,27.91,29,28,26.92.83,53.11,2,60,5l-1.18-3.65C423,462.6,429,489,429,489Z"/><path class="cls-3" d="M376,367c-7,1.56-23.84,2.52-45.17,5.73-6,.89-12.28,2-18.83,3.27-30,6-66-1-76-3,0,0-31-1-24-61l1.6-27.15L216,244l105-7,30,17,19.35,70S385,365,376,367Z"/><path class="cls-4" d="M330.83,372.73c-6,.89-12.28,2-18.83,3.27-30,6-66-1-76-3,0,0-31-1-24-61l1.6-27.15c2.22,18.61,11.5,75.63,42.4,83.15,37,9,59.62.45,74.81,4.72Z"/><path class="cls-17" d="M128,473.5c16.46-.38,32.92-.57,49.37-.86l49.38-.54c16.45-.22,32.91-.23,49.37-.34l49.38-.26h49.37c16.46,0,32.92-.05,49.38.09l49.37.29c16.46.21,32.92.31,49.38.61-16.46.38-32.92.57-49.37.86l-49.38.54c-16.45.23-32.91.23-49.37.34l-49.38.26H276.13c-16.46,0-32.92.05-49.38-.09l-49.37-.29C160.92,473.9,144.46,473.8,128,473.5Z"/><path class="cls-3" d="M492.59,528.1l1.73,41.1s-.53,9.63-5.88,1.61-16.29-38.49-16.29-38.49Z"/><path class="cls-3" d="M529.49,612s-.5,8.92-4.28,9c-1.59,0-3.76-1.53-6.72-6-10-15-30.47-72-30.47-72l24.82-5.13,13.41-2.77Z"/><path class="cls-4" d="M525.21,621c-1.59,0-3.76-1.53-6.72-6-10-15-30.47-72-30.47-72l24.82-5.13C514.87,556.4,520.21,602.34,525.21,621Z"/><path class="cls-4" d="M488.57,528.93l-16.42,3.39s11,30.47,16.29,38.49c2.94,4.41,4.43,3.48,5.16,1.75Z"/><line class="cls-22" x1="493.6" y1="572.56" x2="488.57" y2="528.93"/><path class="cls-3" d="M226.34,532.32s-10.94,30.47-16.29,38.49c-2.27,3.41-3.68,3.63-4.54,2.76l-.14-.17c-1-1.28-1.2-4.2-1.2-4.2l1.73-41.11,3.82.79Z"/><path class="cls-4" d="M226.34,532.32s-10.94,30.47-16.29,38.49c-2.27,3.41-3.68,3.63-4.54,2.76l-.14-.17,4.35-44.52Z"/><path class="cls-3" d="M367,261c-30.53-74.27-84.22-77-102.06-75.73a96.19,96.19,0,0,1-11.39.2c-18.82-.86-78.88,5-58.55,118.53a20.57,20.57,0,0,0,3.78,7.66h0C205.4,320.31,223,330.79,268,311l-3.65-12.4,57.65.9V312l26,10c18.85,4.79,27.59.3,30.77-8C385.52,296.19,367,261,367,261ZM235.24,298.14c-4.17.36-7.62.4-9.24-.14Zm113.42,1.78L354,300A29.25,29.25,0,0,1,348.66,299.92Z"/><path class="cls-3" d="M256.47,543S236,600,226,615s-11-3-11-3l.46-10.81,2.78-66.07,31.64,6.55Z"/><path class="cls-4" d="M256.47,543S236,600,226,615s-11-3-11-3l.46-10.81,34.42-59.52Z"/><ellipse class="cls-6" cx="364.5" cy="504" rx="206.5" ry="54"/><ellipse class="cls-23" cx="364.5" cy="504" rx="206.5" ry="54"/><path class="cls-8" d="M323,297l-11-4s2,7,6,8,5-4,5-4"/><path class="cls-24" d="M323,297l-11-4s2,7,6,8,5-4,5-4"/><path class="cls-8" d="M263,297l9-6S276,301,263,297Z"/><path class="cls-24" d="M263,297l9-6S276,301,263,297Z"/><rect x="271" y="283" width="45" height="26" rx="8.21"/><path class="cls-19" d="M307.79,309c-1.79,0-.79-26,0-26a8.22,8.22,0,0,1,8.21,8.21v9.58A8.22,8.22,0,0,1,307.79,309Z"/><path class="cls-6" d="M279.21,309a8.22,8.22,0,0,1-8.21-8.21v-9.58a8.22,8.22,0,0,1,8.21-8.21C280,283,279.21,309,279.21,309Z"/><g class="cls-25"><path class="cls-3" d="M263,294a58.43,58.43,0,0,1-9.19,3.19c-1.56.44-3.15.76-4.74,1.11s-3.2.56-4.82.77-3.25.3-4.88.4a42.39,42.39,0,0,1-4.91-.09A24.33,24.33,0,0,1,225,297a40.25,40.25,0,0,0,9.51.82,83.86,83.86,0,0,0,9.49-.74c3.17-.36,6.32-.88,9.48-1.41Z"/></g><g class="cls-25"><path class="cls-3" d="M357,300a38.38,38.38,0,0,1-9.08.81,51.45,51.45,0,0,1-9.09-.95c-1.5-.28-3-.69-4.46-1.06s-2.93-.88-4.33-1.51a38.55,38.55,0,0,1-8-4.29c2.89,1,5.67,2,8.55,2.81a86.54,86.54,0,0,0,8.66,2.08c2.91.6,5.85,1,8.81,1.37S354,299.85,357,300Z"/></g><g class="cls-25"><path class="cls-3" d="M228,271.75c.9,3.89,1.72,7.77,2.43,11.7.36,2,.68,3.93.93,5.91a32.69,32.69,0,0,1,.37,6,9.37,9.37,0,0,1-.3,1.58.82.82,0,0,1-.05.14.32.32,0,0,1-.07.11c-.07,0,.07,0-.25.17a.46.46,0,0,1-.54-.23c-.09-.21-.05-.2-.06-.24a.88.88,0,0,1,0-.24l0-.39.1-.75.47-2.94,1-5.87c.65-3.91,1.39-7.82,2-11.74-.41,3.95-1,7.88-1.47,11.81l-.74,5.9-.34,3-.07.74,0,.35v.13s0,0,0-.15a.45.45,0,0,0-.52-.23c-.32.16-.18.12-.25.16l0,.07s0,0,0,0a8.77,8.77,0,0,0,.19-1.35,33,33,0,0,0-.6-5.81c-.33-1.94-.73-3.87-1.17-5.8-.86-3.85-1.84-7.69-2.9-11.49Z"/></g><g class="cls-25"><path class="cls-3" d="M330.34,258c1.92,3.17,3.66,6.4,5.32,9.68s3.21,6.62,4.59,10c.71,1.69,1.31,3.43,1.95,5.15s1.14,3.5,1.56,5.29A34.56,34.56,0,0,1,345,299a34.18,34.18,0,0,0-1.73-10.76c-.49-1.75-1.16-3.45-1.78-5.16s-1.37-3.37-2.16-5q-2.28-5-5-9.71c-1.79-3.17-3.68-6.3-5.68-9.31Z"/></g><path class="cls-4" d="M378.77,314c-3.18,8.34-11.92,12.83-30.77,8l-26-10v-2.39c12.67,3.07,47.86,11.35,49.5,8.89A49.47,49.47,0,0,0,378.77,314Z"/><path class="cls-4" d="M268,311c-45,19.79-62.6,9.31-69.21.66A122.41,122.41,0,0,0,268,311Z"/><path class="cls-26" d="M234.24,299.14,225,299C226.62,299.54,230.07,299.5,234.24,299.14Z"/><path class="cls-26" d="M367,261c-30.53-74.27-84.22-77-102.06-75.73a96.19,96.19,0,0,1-11.39.2c-9.3-.43-28.67.8-43.44,15.84,14.63-14.1,33.35-15.26,42.44-14.84a96.19,96.19,0,0,0,11.39-.2C281.78,185,335.47,187.73,366,262c0,0,18.52,35.19,11.77,53a15.09,15.09,0,0,1-2.86,4.78,14.76,14.76,0,0,0,3.86-5.78C385.52,296.19,367,261,367,261Z"/><path class="cls-26" d="M353,301l-5.34-.08A29.25,29.25,0,0,0,353,301Z"/><path class="cls-8" d="M268.9,185.48H247.59C251.18,175,246,168,246,168a23.39,23.39,0,0,0,4.62.74c7.47.58,17.38-.74,17.38-.74C265,174,268.9,185.48,268.9,185.48Z"/><path class="cls-10" d="M252.48,185.48h-4.89C251.18,175,246,168,246,168a23.39,23.39,0,0,0,4.62.74C251.48,172.77,252.89,180.37,252.48,185.48Z"/><path class="cls-10" d="M239,163s17,20,32,1S239,163,239,163Z"/><ellipse class="cls-8" cx="257" cy="124" rx="36" ry="46"/><ellipse class="cls-6" cx="364.5" cy="497" rx="206.5" ry="54"/><path class="cls-10" d="M246.72,103s34.65,26,46.54,15.51c0,0,3-25.51-3-29.51s-10.11.17-20.9-6.42S241.77,78,234.83,83,222,92,222,97s-4,18-4,18l5.26,23.28L229.88,108Z"/><path class="cls-8" d="M291.91,120s6-6,6,1-4,10.3-6,8.65S291.91,120,291.91,120Z"/><path class="cls-10" d="M291.91,120s0,.07,0,.16c1.7-1.36,5-3.38,5,1.84a12,12,0,0,1-2.14,7.42c1.63-1.22,3.14-4.12,3.14-8.42C297.91,114,291.91,120,291.91,120Z"/><polygon points="587 358 547 358 543 346 582 345 587 358"/><polygon points="543 346 547 358 547 363 543 351 543 346"/><rect x="547" y="358" width="40" height="5"/><polygon points="729 512 550 568 550 775 729 712 729 512"/><polygon points="550 775 541 770 541 563 550 568 550 775"/><polygon points="729 504 541 563 550 568 729 512 729 504"/><polygon points="702 687 680 742 691 750 702 687"/><polygon points="728.95 735.09 690.92 749.96 702.07 686.98 729.08 682.04 728.95 735.09"/><circle class="cls-13" cx="1411" cy="558" r="101"/><path class="cls-14" d="M1411,653a101,101,0,0,1-101-98c0,1,0,2,0,3a101,101,0,0,0,202,0c0-1,0-2,0-3A101,101,0,0,1,1411,653Z"/><path class="cls-27" d="M1411,463a101,101,0,0,1,101,99c0-.67,0-1.33,0-2a101,101,0,0,0-202,0c0,.67,0,1.33,0,2A101,101,0,0,1,1411,463Z"/><circle class="cls-8" cx="1411" cy="558" r="91"/><path class="cls-10" d="M1408,473a91,91,0,0,1,82.9,128.52,91,91,0,1,0-162.8-81A91.07,91.07,0,0,1,1408,473Z"/><rect class="cls-17" x="1428" y="750" width="301" height="330"/><polygon class="cls-18" points="1729 769.36 1729 1080 1583.6 1080 1729 769.36"/><rect class="cls-19" x="1438" y="760" width="281" height="320"/><polygon class="cls-20" points="1719 794.17 1719 1080 1624.24 1080 1719 794.17"/><rect class="cls-13" x="1791" y="886" width="189" height="42"/><path class="cls-14" d="M1934.57,886H1980v42H1832.41C1859.73,916.72,1900.22,900,1934.57,886Z"/><polygon class="cls-8" points="1980 928 1980 1080 1835 1080 1832.23 1050.54 1820.73 928 1980 928"/><polygon class="cls-10" points="1980 928 1980 1080 1835 1080 1832.23 1050.54 1921.54 928 1980 928"/><path class="cls-28" d="M1903,886s-40-4.61-79.32-36.28c-40.51-32.64-80.26-94-74.68-208.72,0,0,56,66,103,90,14.2,7.25,28.85,57,38.78,98.16C1898.21,860,1903,886,1903,886Z"/><path class="cls-29" d="M1903,886s-40-4.61-79.32-36.28c22.37-2.69,45.6-10.74,67.1-20.56C1898.21,860,1903,886,1903,886Z"/><path class="cls-3" d="M1980,631.79V796.47c0,.17-.08.33-.13.51-.41,1.67-.84,3.32-1.27,4.93v0q-.66,2.42-1.35,4.74c-.3,1-.61,2-.93,3-.4,1.28-.81,2.54-1.22,3.78-13,38.88-32.94,57-49.45,65.38l-1.85.9c-1.23.58-2.43,1.11-3.62,1.59l-1.49.59c-.74.27-1.46.53-2.17.77l-1.24.42-1.25.38-1.35.39-1.53.4c-2,.5-3.86.86-5.52,1.11l-1.13.17a40.26,40.26,0,0,1-8,.4c-.14-.52-.27-1-.4-1.57-25.22-97.39,35.95-167.79,47.72-176.77C1953.19,700.54,1972.33,652,1980,631.79Z"/><line class="cls-30" x1="1578.5" y1="760" x2="1578.5" y2="1080"/><path class="cls-8" d="M1625,726s64,3,71,0S1671,779,1625,726Z"/><path class="cls-10" d="M1629.46,730.84c38.35,39.21,66,3.44,67.43-3.75C1689.59,737.81,1663.84,759.09,1629.46,730.84Z"/><polygon class="cls-17" points="580.23 356 552.54 356 550.3 349.28 549.77 347.69 576.77 347 580.07 355.59 580.23 356"/><polygon class="cls-18" points="580.23 356 552.54 356 550.3 349.28 580.07 355.59 580.23 356"/><path class="cls-8" d="M263,297s48-6,3,11Z"/><path class="cls-8" d="M323,297s-51-3-1,14Z"/><ellipse class="cls-19" cx="283" cy="509.5" rx="29" ry="8.5"/><ellipse class="cls-20" cx="282.5" cy="511.5" rx="29.5" ry="9.09"/><ellipse class="cls-19" cx="283" cy="510.5" rx="31" ry="9.09"/><ellipse class="cls-20" cx="281" cy="510" rx="13" ry="5"/><ellipse class="cls-8" cx="281" cy="509.5" rx="12.86" ry="2.5"/><ellipse class="cls-10" cx="281" cy="509.5" rx="12.86" ry="2.5"/><ellipse class="cls-31" cx="281" cy="509.5" rx="12.86" ry="2.5"/><polygon class="cls-8" points="299 461 294.42 505.91 294 510 268 510 263 461 299 461"/><path class="cls-10" d="M294.42,505.91,294,510H268l-5-49h2.78C268.2,472.36,276.55,504.14,294.42,505.91Z"/><path class="cls-8" d="M379,476s16-4,28,0,21-4,24-5,24,39,24,39-12,17-28,18-25-3-25-3Z"/><path class="cls-13" d="M455,510c-1,0-40,0-55,18,0,0,39,10,54-18"/><polygon class="cls-13" points="379 476 400 528 402.5 525.5 379 476"/><path class="cls-17" d="M246,101s35,26,47,15.51c0,0,3-25.51-3-29.51s-10.2.17-21.1-6.42S241,76,234,81s-13,9-13,14-4,18-4,18l5.31,23.28L229,106Z"/><path class="cls-8" d="M221,124s-6-6-6,1,4,10.31,6,8.65S221,124,221,124Z"/><path class="cls-10" d="M217,127c0-4.38,2.35-3.67,4.11-2.52L221,124s-6-6-6,1c0,4.77,1.86,7.82,3.68,8.76A12.71,12.71,0,0,1,217,127Z"/><ellipse class="cls-13" cx="281" cy="460.5" rx="18" ry="3.5"/><ellipse class="cls-32" cx="281" cy="460.5" rx="18" ry="3.5"/><polygon class="cls-33" points="729 504 541 563 550 568 729 512 729 504"/><polygon class="cls-34" points="550 775 541 770 541 563 550 568 550 775"/><circle class="cls-17" cx="1593.5" cy="932.5" r="9"/><circle class="cls-17" cx="1563.5" cy="932.5" r="9"/><path class="cls-18" d="M1564,940a9,9,0,0,1-9-9,9.17,9.17,0,0,1,.26-2.11,8.84,8.84,0,0,0-.76,3.61,9,9,0,0,0,17.74,2.11A9,9,0,0,1,1564,940Z"/><path class="cls-18" d="M1594,940a9,9,0,0,1-9-9,9.17,9.17,0,0,1,.26-2.11,8.84,8.84,0,0,0-.76,3.61,9,9,0,0,0,17.74,2.11A9,9,0,0,1,1594,940Z"/><polygon class="cls-13" points="1409.61 560.56 1442 532 1412.39 563.44 1409.61 560.56"/><polygon class="cls-13" points="1409.15 560.36 1468 604 1406.85 563.64 1409.15 560.36"/><path class="cls-4" d="M1980,664.74V796.47c0,.17-.08.33-.13.51-.41,1.67-.84,3.31-1.27,4.93v0q-.66,2.42-1.35,4.74c-.3,1-.61,2-.93,3-.4,1.28-.81,2.54-1.22,3.78-13,38.88-32.94,57-49.45,65.38l-1.85.9c-1.23.58-2.43,1.11-3.62,1.59l-1.49.59c-.74.27-1.46.53-2.17.77l-1.24.42-1.25.38-1.35.39-1.53.4c-2,.5-3.86.86-5.52,1.11l-1.13.17a40.26,40.26,0,0,1-8,.4c-.14-.52-.27-1-.4-1.57-4.36-17.39-5.28-40.24-5.14-55.42C1926.64,783.16,1959.28,715.07,1980,664.74Z"/></g></g></svg>