<svg xmlns="http://www.w3.org/2000/svg" xmlns:xlink="http://www.w3.org/1999/xlink" viewBox="0 0 1980 1080"><defs><style>.cls-1{isolation:isolate;}.cls-2{fill:#0c0073;opacity:0.41;}.cls-3{opacity:0.48;fill:url(#未命名漸層_5);}.cls-18,.cls-4,.cls-5{fill:#a37774;}.cls-5{opacity:0.47;}.cls-11,.cls-18,.cls-19,.cls-21,.cls-24,.cls-25,.cls-5,.cls-6,.cls-9{mix-blend-mode:multiply;}.cls-6,.cls-7{fill:#e88873;}.cls-25,.cls-8,.cls-9{fill:#e0ac9d;}.cls-9{opacity:0.38;}.cls-10,.cls-11,.cls-22{fill:#484a47;}.cls-12,.cls-19,.cls-21,.cls-23{fill:#64b6ac;}.cls-13{opacity:0.57;}.cls-14,.cls-24,.cls-27{fill:#5c6d70;}.cls-15,.cls-16,.cls-20{fill:none;stroke-miterlimit:10;}.cls-15{stroke:#a37774;}.cls-16{stroke:#5c6d70;stroke-width:2px;}.cls-17,.cls-26{fill:#fff;}.cls-18{opacity:0.87;}.cls-19{opacity:0.4;}.cls-20{stroke:#fff;}.cls-22,.cls-23,.cls-27{mix-blend-mode:color-dodge;}.cls-26{opacity:0.18;}</style><linearGradient id="未命名漸層_5" x1="641.31" y1="1222.54" x2="315.35" y2="840.98" gradientUnits="userSpaceOnUse"><stop offset="0" stop-color="#fff" stop-opacity="0"/><stop offset="1"/></linearGradient></defs><g class="cls-1"><g id="圖層_3" data-name="圖層 3"><path class="cls-2" d="M1115,873c-11.4,88.87-48.17,157-88.58,207H0V174.14C41.68,153.21,109.47,122.22,184.61,100,283,70.91,393.85,56.83,475.22,100A187.81,187.81,0,0,1,536,151c156,200,99,411,280,448S1144,647,1115,873Z"/><path class="cls-2" d="M1980,0V494.53C1900,377,1608,506,1516,475c-99.67-33.58-97-115-109-245C1395,99.82,1320.71,30.8,1261.83,0Z"/></g><g id="圖層_2_拷貝" data-name="圖層 2 拷貝"><polygon class="cls-3" points="649 784 135.5 1078 235.5 1078 606.5 869 649 784"/><polygon points="409 915.5 1203 916 409 916.5 409 915.5"/><polygon class="cls-4" points="649 784 649 618 0 965 0 1080 136 1079.63 649 784"/><polygon class="cls-5" points="130 1054 163 878 84 920.09 0 965 0 1080 136 1079.63 649 784 649 777 130 1054"/><rect class="cls-6" x="1485" y="391" width="10" height="18"/><rect class="cls-7" x="1681" y="391" width="10" height="18"/><polygon class="cls-8" points="649 618 162.74 877.99 0 965 0 828 493 618 649 618"/><polygon class="cls-9" points="162.74 877.99 0 965 0 828.71 162.74 877.99"/><path class="cls-10" d="M269,711l17-18s7,1,7,5l-22,26Z"/><path class="cls-11" d="M291.35,695.05a3.26,3.26,0,0,1,.65,2l-21.28,25.15L271,724l22-26A3.7,3.7,0,0,0,291.35,695.05Z"/><path class="cls-12" d="M142,734h2a0,0,0,0,1,0,0v8.15a.85.85,0,0,1-.85.85h-.33a.81.81,0,0,1-.81-.81V734A0,0,0,0,1,142,734Z"/><polygon class="cls-7" points="364 692 468 692 310 786 169 786 364 692"/><polygon class="cls-4" points="364 692 364 743 284.21 786 169 786 364 692"/><path class="cls-4" d="M666.37,1080H516.28c2.89-34.65,6.24-73.4,9.74-111,8.55-91.77,18-176.63,24-178,13-3,65,4,65,4s31.07,65.13,44.9,174A824.94,824.94,0,0,1,666.37,1080Z"/><path class="cls-13" d="M573.68,1020a561.11,561.11,0,0,1-4.58,60h-130l24.81-60L559,790S576.7,914.13,573.68,1020Z"/><path class="cls-12" d="M147,771l-.24-.11C146,768.4,143,764,145,758c-1.4.86-3,2.11-9,1.73a37.34,37.34,0,0,1-9-1.73c1.94,6-1.61,10.55-1.76,12.89l-.24.11c-3,1-15,2-14,43,0,0,2,4.91,4,6v0a36.55,36.55,0,0,0,21,5.54,36.55,36.55,0,0,0,21-5.54v0c2-1.06,3.95-6,3.95-6C162,773,150,772,147,771Z"/><ellipse class="cls-14" cx="136" cy="756" rx="10" ry="3"/><path class="cls-14" d="M127.92,763.71s9.93,3.71,16.5,0c0,0-.06-6.23,1.26-7a23.36,23.36,0,0,1-19.36,0A8.11,8.11,0,0,1,127.92,763.71Z"/><rect class="cls-12" x="135" y="731" width="3" height="26"/><rect class="cls-14" x="129" y="730" width="17" height="5" rx="2.03"/><rect class="cls-8" x="1720" y="51.31" width="210" height="354.37"/><rect class="cls-4" x="1657.81" y="133.5" width="334.38" height="190" transform="translate(2053.5 -1596.5) rotate(90)"/><rect class="cls-4" x="1491" y="181" width="194" height="226" transform="translate(1882 -1294) rotate(90)"/><rect class="cls-8" x="1485" y="207" width="206" height="174"/><line class="cls-15" x1="1588" y1="207" x2="1588" y2="381"/><circle class="cls-7" cx="1575" cy="294" r="6"/><circle class="cls-7" cx="1598" cy="294" r="6"/><path class="cls-12" d="M1523,162h17a25,25,0,0,1,25,25v5a4,4,0,0,1-4,4h-59a4,4,0,0,1-4-4v-5a25,25,0,0,1,25-25Z"/><path class="cls-14" d="M1516,162h31a0,0,0,0,1,0,0v15a5,5,0,0,1-5,5h-21a5,5,0,0,1-5-5V162A0,0,0,0,1,1516,162Z"/><path class="cls-16" d="M1510.41,165.4S1505,132,1520,131h20.46c15,1,9.59,34.4,9.59,34.4"/><circle class="cls-10" cx="1908" cy="234" r="8"/><circle class="cls-10" cx="1383" cy="101" r="50"/><circle class="cls-12" cx="1383" cy="101" r="45"/><polygon points="1383.79 102.47 1368.9 122.88 1382.13 101.36 1383.79 102.47"/><polygon points="1383.44 103.84 1344.67 101.49 1383.51 101.84 1383.44 103.84"/><polygon class="cls-14" points="1641.5 190.5 1657.5 188.5 1658.5 193.5 1656.5 193.5 1655.5 191.5 1653.5 191.5 1654.5 193.5 1651.5 193.5 1651.5 192.5 1648.5 192.5 1649.5 193.5 1645.5 194.5 1644.5 192.5 1641.5 193.5 1640.5 190.5 1641.5 190.5"/><circle class="cls-10" cx="1661.5" cy="190.5" r="5"/><path class="cls-17" d="M1663.5,188.5l1,3S1666.5,188.5,1663.5,188.5Z"/><path class="cls-8" d="M555.56,947c-2.77,45.26-8.08,93.62-14.25,133H418v-2.57c3.83-37,13.48-85.5,23.7-130.43C457.19,879,474,819,474,819s55-60,75.26-8A93,93,0,0,1,554,829C558.57,855.77,558.45,899.69,555.56,947Z"/><path class="cls-4" d="M549.46,1018c-2.39,21.86-5.17,43-8.15,62H468.25c4.56-19.66,10-40.64,15.87-62,22.14-80.22,50.92-165.82,65.14-207A93,93,0,0,1,554,829C560.83,869,557.19,947.34,549.46,1018Z"/><path class="cls-4" d="M549.46,1018c-2.39,21.86-5.17,43-8.15,62H468.25c4.56-19.66,10-40.64,15.87-62"/><path class="cls-14" d="M591,693s-22,34-27,37c-2.75,1.65-44.89,17.84-83.05,31.58C482.14,749.73,483,738.81,483,732c-13.31,9.11-88,16.25-131.5,19.72-8.23-3.58-14-6.19-14.5-6.72-1.47-1.47-6.16-10.46-8.56-15.16-.87-1.7-1.44-2.84-1.44-2.84l14-4.86L402,701l123-76s48,17,50,18S591,693,591,693Z"/><path class="cls-7" d="M340.74,720.72,316,720s2,5,5,5-19,5-19,5-2,13,22,5,18.36-6.2,18.36-6.2Z"/><path class="cls-10" d="M343,732H483c-13.31,9.11-88,16.25-131.5,19.72C332.91,753.19,320,754,320,754V732l8.44-2.16,13.44-3.43Z"/><path class="cls-10" d="M623,813s-63,32-149,6c0,0,4.29-31,6.95-57.42C482.14,749.73,483,738.81,483,732c0,0,91-28,93-57s-8-39-30-35-94,58-113,63c-13.14,3.46-62.14,16-91.12,23.41l-.85-4.27L340,717c32-8,95-45,95-45l72-48S649,562,623,813Z"/><path class="cls-7" d="M507,601s12,13,8,20.48c0,0,30-8.48,35-.48s-10-20-5-26S524,607,507,601Z"/><path class="cls-4" d="M549,589s-7,37-45,10Z"/><path class="cls-7" d="M557.58,540.19c4.73,32.24-9.17,60.82-31,64.18C503,608,483.16,584.05,478.42,551.81s9.15-61,31-64.18S552.84,508,557.58,540.19Z"/><path class="cls-4" d="M492,528.58c5.21.09,10-3.46,15.19-3.36a2.67,2.67,0,0,1,1.54.39,5,5,0,0,1,1,1.21c1.47,1.94,5.88,3.16,8.31,3.18,4.37,0,7.17-.44,11.3,1a104.26,104.26,0,0,1,7.55,22.34,50.62,50.62,0,0,0,1.34,5.43,45.86,45.86,0,0,0,2.46,5.51,62.31,62.31,0,0,1,4.47,11.34,51.9,51.9,0,0,1,1.39,15.86,12.74,12.74,0,0,0,.26,4.53,3.94,3.94,0,0,0,3.18,2.89c3.06-3.37,6.39-6.76,8.77-10.63a130.5,130.5,0,0,0,8.55-17.35c2.12-5,4.2-10.07,4.81-15.45a29.82,29.82,0,0,0-6.92-22.54,52.38,52.38,0,0,0-6.66-6.23,72.79,72.79,0,0,0-13.52-9.2c-7.73-3.84-16.39-5.31-24.62-7.94-5.1-1.62-10.72-3.68-15.59-1.47-5.13,2.33-7.38,8.57-12.15,11.56-1.24.77-2.62,1.31-3.82,2.13-2,1.35-3.43,4.32-1.81,6.1C488.18,529.15,490.34,529.19,492,528.58Z"/><path d="M498,524a19.66,19.66,0,0,1,12-2c3,.42,6,6,10,6s10-2,13,2,11,0,13,3-7-26-11-27-11-3-19-5-11-5-15,0-9,6-11,11S498,524,498,524Z"/><path class="cls-12" d="M310.42,698a.63.63,0,0,0-.59.37C308.16,702,295.06,730.89,296,744s9.65,32.12.39,40.35a.65.65,0,0,0,.55,1.12L316,782l.09,0c.61-.2,6.8-2.67,3.95-16-3.11-14.54,5-34,0-42-4.36-7-.36-21.53.74-25.16a.66.66,0,0,0-.63-.84Z"/><path class="cls-7" d="M323,741l-24.38-4.25s1.26,5.24,4.23,5.66-19.52,2.24-19.52,2.24-3.83,12.58,21.06,8.09,19.06-3.52,19.06-3.52Z"/><polygon class="cls-4" points="455 286.38 455 577.84 157.6 693.31 95.11 717.57 92.95 427.18 100.4 424.28 455 286.38"/><polygon class="cls-18" points="455 576 157.6 693.31 95.11 717.57 92.95 427.18 100.4 424.28 455 576"/><polygon class="cls-14" points="445 571 105 703 103 434 445 301 445 571"/><polygon class="cls-7" points="410 464.23 427 446.23 445 463.97 445 571 410 571 410 464.23"/><polygon class="cls-7" points="375 464.23 392 446.23 410 463.97 410 571 375 571 375 464.23"/><polygon class="cls-7" points="340 464.23 357 446.23 375 463.97 375 571 340 571 340 464.23"/><polygon class="cls-7" points="305 464.23 322 446.23 340 463.97 340 571 305 571 305 464.23"/><polygon class="cls-7" points="270 464.23 287 446.23 305 463.97 305 571 270 571 270 464.23"/><polygon class="cls-7" points="235 464.23 252 446.23 270 463.97 270 571 235 571 235 464.23"/><polygon class="cls-7" points="200 464.23 217 446.23 235 463.97 235 571 200 571 200 464.23"/><polygon class="cls-7" points="165 464.23 182 446.23 200 463.97 200 571 165 571 165 464.23"/><polygon class="cls-7" points="130 464.23 147 446.23 165 463.97 165 571 130 571 130 464.23"/><polygon class="cls-7" points="103 464.23 116.11 446.23 130 463.97 130 571 103 571 103 464.23"/><path d="M472,487s14-24,40-21,47,27,68,30,24,41,25,66,27,83,38,96,51,72,35,101c-8.23,14.91-67-5-91,7s-79-6-80-9-21,5-18-5,10-95,18-100,40.87-65,42-69c2-7-9-27-9-27s13-3,10-16-15,0-15,0-5-29-17-29c-11.39,0-36.15,32.26-40,29-7-6-17-2-22-18C451.57,507.81,459,487,472,487Z"/><path class="cls-14" d="M255,726.12s9.54,8.86,20,.88V691.29a8.75,8.75,0,0,1,2.55-6.19c4.79-4.79,15.7-12.72,27.18-.6a9.34,9.34,0,0,1,2.58,6.43v9.92s9.15,4,15.69,0V687a28.53,28.53,0,0,0-22-27.87c-8.76-2-19.92-1.71-33,4.61a23.06,23.06,0,0,0-13,20.81Z"/><polygon class="cls-12" points="445 571 311.7 622.9 106 703 104.03 616.43 103 571 445 571"/><polygon class="cls-19" points="445 571 371 600 104.03 595.51 103 571 445 571"/><polygon class="cls-4" points="410 466 418 566 445 571 410 571 410 466"/><polygon class="cls-4" points="375 466 383 566 410 571 375 571 375 466"/><polygon class="cls-4" points="340 466 348 566 375 571 340 571 340 466"/><polygon class="cls-4" points="305 466 313 566 340 571 305 571 305 466"/><polygon class="cls-4" points="270 466 278 566 305 571 270 571 270 466"/><polygon class="cls-4" points="235 466 243 566 270 571 235 571 235 466"/><polygon class="cls-4" points="200 466 208 566 235 571 200 571 200 466"/><polygon class="cls-4" points="165 466 173 566 200 571 165 571 165 466"/><polygon class="cls-4" points="130 466 138 566 165 571 130 571 130 466"/><polygon class="cls-4" points="103 566 130 571 103 571 103 566"/><line class="cls-20" x1="418" y1="349" x2="418" y2="357"/><line class="cls-20" x1="414.5" y1="353.5" x2="421" y2="353.5"/><line class="cls-20" x1="375.63" y1="360.18" x2="375.63" y2="368.18"/><line class="cls-20" x1="372.13" y1="364.68" x2="378.63" y2="364.68"/><line class="cls-20" x1="403.44" y1="399.7" x2="403.44" y2="404"/><line class="cls-20" x1="401.56" y1="402.12" x2="405.06" y2="402.12"/><line class="cls-20" x1="301.21" y1="370.77" x2="301.21" y2="375.07"/><line class="cls-20" x1="299.33" y1="373.19" x2="302.83" y2="373.19"/><line class="cls-20" x1="325.21" y1="413.77" x2="325.21" y2="418.07"/><line class="cls-20" x1="323.33" y1="416.19" x2="326.83" y2="416.19"/><line class="cls-20" x1="441.21" y1="376.77" x2="441.21" y2="381.07"/><line class="cls-20" x1="439.33" y1="379.19" x2="442.83" y2="379.19"/><polygon class="cls-14" points="1910 238 1880 236 1880 232 1910 230 1910 238"/><path class="cls-21" d="M1383,60a45.05,45.05,0,0,1,45,43c0-.66,0-1.33,0-2a45,45,0,0,0-90,0c0,.67,0,1.34,0,2A45.05,45.05,0,0,1,1383,60Z"/><path class="cls-22" d="M1383,51a49.84,49.84,0,0,0-36.33,15.67,50,50,0,0,1,70.66,70.66A50,50,0,0,0,1383,51Z"/><path class="cls-23" d="M1385.5,144c-25.85,0-46.92-19.66-47.47-44,0,.35,0,.69,0,1a45,45,0,0,0,68.56,38.32A49.35,49.35,0,0,1,1385.5,144Z"/><path class="cls-11" d="M1384,150a50,50,0,0,1-35.84-84.84,50,50,0,1,0,70.68,70.68A49.79,49.79,0,0,1,1384,150Z"/><path class="cls-21" d="M1506,194a4,4,0,0,1-4-4v-5a25,25,0,0,1,11.86-21.27A25,25,0,0,0,1498,187v5a4,4,0,0,0,4,4h59a4,4,0,0,0,3.45-2Z"/><path class="cls-24" d="M1543.32,181.67l-24-1.58a4.89,4.89,0,0,1-2.9-1.2A5,5,0,0,0,1521,182h21a4.94,4.94,0,0,0,1.81-.35C1543.65,181.65,1543.49,181.68,1543.32,181.67Z"/><polygon class="cls-25" points="1475 197 1598 391 1475 391 1475 197"/><polygon class="cls-25" points="1720 226 1791.79 405.69 1720 406 1720 226"/><path class="cls-26" d="M509.94,514.27A7.39,7.39,0,0,0,508,514c-8.07,0-22.86,16.2-32.15,24.48A14,14,0,0,1,478,540C481.1,542.62,497.63,522.38,509.94,514.27Z"/><path class="cls-26" d="M534.44,537.24c.38,1.7.56,2.76.56,2.76a29.83,29.83,0,0,1,2.18-2A4.28,4.28,0,0,0,534.44,537.24Z"/><path class="cls-26" d="M577,769l-.43.2A36.83,36.83,0,0,0,587,766l.18-.08A36.07,36.07,0,0,0,577,769Z"/><path class="cls-26" d="M643,658c-11-13-37-71-38-96s-4-63-25-66-42-27-68-30a37.06,37.06,0,0,0-20,3.17,37.54,37.54,0,0,1,10-.17c26,3,47,27,68,30s24,41,25,66,27,83,38,96,51,72,35,101a7.75,7.75,0,0,1-2.31,2.54c6-.59,10.45-2.18,12.31-5.54C694,730,654,671,643,658Z"/><path class="cls-21" d="M161,814.05A36.53,36.53,0,0,1,140,819.54,36.55,36.55,0,0,1,119,814v0c-2-1.06-4-6-4-6-.43-17.74,1.57-28,4.22-34-4.22,4-8.86,13.89-8.22,40,0,0,2,4.91,4,6v0a36.55,36.55,0,0,0,21,5.54,36.55,36.55,0,0,0,21-5.54v0C158.93,819,160.79,814.52,161,814.05Z"/><path class="cls-24" d="M144.44,762.58c-6.42,2.16-14.52-.87-14.52-.87a8.52,8.52,0,0,0,0-3.67,23,23,0,0,1-3.6-1.3,8.11,8.11,0,0,1,1.6,7s9.93,3.71,16.5,0C144.42,763.71,144.42,763.25,144.44,762.58Z"/><path class="cls-24" d="M138,758c-5.52,0-10-1.34-10-3a1.39,1.39,0,0,1,.59-1c-1.6.53-2.59,1.24-2.59,2,0,1.66,4.48,3,10,3,4.34,0,8-.83,9.41-2A24.67,24.67,0,0,1,138,758Z"/><path class="cls-24" d="M145,734H132a2,2,0,0,1-2-2V731a2,2,0,0,1,.19-.84A2,2,0,0,0,129,732V733a2,2,0,0,0,2,2H144a2,2,0,0,0,1.84-1.19A2,2,0,0,1,145,734Z"/><path class="cls-24" d="M308.92,698.85v-9.92a9,9,0,0,0-2.8-6.43c-12.49-12.12-24.37-4.19-29.58.6a8.39,8.39,0,0,0-2.78,6.19V725A17.32,17.32,0,0,1,255,726.06v.06s9.54,8.86,20,.88V691.29a8.75,8.75,0,0,1,2.55-6.19c4.79-4.79,15.7-12.72,27.18-.6a9.34,9.34,0,0,1,2.58,6.43v9.92s9.15,4,15.69,0v-.79C316.38,701.84,308.92,698.85,308.92,698.85Z"/><path class="cls-27" d="M256,686.53a23.06,23.06,0,0,1,13-20.81c13.13-6.32,24.29-6.63,33-4.61a28.26,28.26,0,0,1,18.38,13.94A28.29,28.29,0,0,0,301,659.11c-8.76-2-19.92-1.71-33,4.61a23.06,23.06,0,0,0-13,20.81v41.59s.36.33,1,.8Z"/><path class="cls-27" d="M308.31,701.23v-8.3a9.39,9.39,0,0,0-1.56-5.15,9.33,9.33,0,0,1,.56,3.15v9.92S307.68,701,308.31,701.23Z"/></g></g></svg>