<svg xmlns="http://www.w3.org/2000/svg" viewBox="0 0 1980 1080"><defs><style>.cls-1{isolation:isolate;}.cls-2{opacity:0.3;}.cls-3{fill:#c33c54;}.cls-25,.cls-4,.cls-8{fill:#aef3e7;}.cls-17,.cls-22,.cls-23,.cls-25,.cls-27,.cls-29,.cls-5,.cls-9{mix-blend-mode:multiply;}.cls-6{fill:#253b70;}.cls-22,.cls-7,.cls-9{fill:#37718e;}.cls-8{opacity:0.31;}.cls-30,.cls-8{mix-blend-mode:color-dodge;}.cls-10{fill:#9cc5a1;}.cls-11,.cls-27{fill:#ec1c24;}.cls-12{fill:#254e70;}.cls-13{fill:#49a078;}.cls-14,.cls-17{fill:#8ee3ef;}.cls-15{fill:#ff3c54;}.cls-16,.cls-18,.cls-19,.cls-24{fill:none;stroke-miterlimit:10;}.cls-16{stroke:#9cc5a1;}.cls-16,.cls-18{stroke-width:2px;}.cls-18{stroke:#c33c54;}.cls-19{stroke:#254e70;}.cls-20{opacity:0.92;}.cls-21{fill:#fff;}.cls-22{opacity:0.57;}.cls-23{opacity:0.63;}.cls-24{stroke:#37718e;}.cls-26,.cls-29{fill:#256870;}.cls-28{fill:#b61c24;}</style></defs><g class="cls-1"><g id="圖層_4" data-name="圖層 4"><g class="cls-2"><ellipse class="cls-3" cx="1654" cy="429" rx="330" ry="310"/></g><g class="cls-2"><path class="cls-3" d="M436,509c0,171.21-147.75,310-330,310A349.09,349.09,0,0,1,0,802.66V215.34A349.09,349.09,0,0,1,106,199c179.57,0,325.64,134.73,329.9,302.46Q436,505.23,436,509Z"/></g><g class="cls-2"><path class="cls-3" d="M1003,1080H357c31.4-140.51,164.07-246,323-246a354.48,354.48,0,0,1,41.86,2.47C861.77,853.11,974.36,952,1003,1080Z"/></g><g class="cls-2"><path class="cls-3" d="M721.86,836.47C722,923.85,685,1008.83,621.1,1080H0V531.12a648.2,648.2,0,0,1,147.92-44.73c102.25-18.16,201.54-11.42,288,15.07,147.33,45.14,257.37,147.63,281.23,282A307.65,307.65,0,0,1,721.86,836.47Z"/></g><g class="cls-2"><ellipse class="cls-3" cx="1463.41" cy="160.29" rx="72.59" ry="68.19"/></g><g class="cls-2"><path class="cls-3" d="M1980,552.2V706.38a89.88,89.88,0,0,1-20.59,2.37c-46.71,0-84.58-35.57-84.58-79.46s37.87-79.46,84.58-79.46A89.88,89.88,0,0,1,1980,552.2Z"/></g></g><g id="圖層_2_拷貝" data-name="圖層 2 拷貝"><polygon class="cls-4" points="54 723 53.85 773.72 51.22 775.48 46 779 46 729.34 48.9 727.04 54 723"/><g class="cls-5"><polygon class="cls-4" points="51.22 775.48 46 779 46 729.34 48.9 727.04 51.22 775.48"/></g><polygon class="cls-4" points="88 656 88 705 16 750 16 695 88 656"/><g class="cls-5"><polygon class="cls-4" points="88 704.55 88 705 16 750 16 699.5 25 737 88 704.55"/></g><polygon class="cls-4" points="197 642 196.85 692.72 194.22 694.48 189 698 189 648.34 191.9 646.04 197 642"/><g class="cls-5"><polygon class="cls-4" points="194.22 694.48 189 698 189 648.34 191.9 646.04 194.22 694.48"/></g><polygon class="cls-4" points="231 575 231 624 159 669 159 614 231 575"/><g class="cls-5"><polygon class="cls-4" points="231 623.55 231 624 159 669 159 618.5 168 656 231 623.55"/></g><polygon class="cls-4" points="322.61 569.93 322.49 610.75 320.37 612.17 316.17 615 316.17 575.03 318.5 573.18 322.61 569.93"/><g class="cls-5"><polygon class="cls-4" points="320.37 612.17 316.17 615 316.17 575.03 318.5 573.18 320.37 612.17"/></g><polygon class="cls-4" points="349.98 516 349.98 555.44 292.02 591.66 292.02 547.39 349.98 516"/><g class="cls-5"><polygon class="cls-4" points="349.98 555.08 349.98 555.44 292.02 591.66 292.02 551.01 299.27 581.2 349.98 555.08"/></g><polygon class="cls-6" points="0 807 359 578 492 578 0 964 0 807"/><polygon class="cls-7" points="0 813 360.46 583 477.53 583 0 958 0 813"/><polygon class="cls-6" points="270.94 640.1 313 640.15 309.78 644.22 263.76 644.22 270.94 640.1"/><polygon class="cls-6" points="124.94 735.1 283 735.15 279 739.22 117.76 739.22 124.94 735.1"/><polygon class="cls-8" points="131 751 241 751 122 845 131 751"/><polygon class="cls-8" points="265.71 650 360 650 279 727 265.71 650"/><polygon class="cls-8" points="365.71 586 454 589 380 639 365.71 586"/><polygon class="cls-7" points="492 578 492 662 381.9 769.53 64 1080 0 1080 0 964 70.99 908.3 492 578"/><polygon class="cls-9" points="381.9 769.53 64 1080 0 1080 0 964 70.99 908.3 381.9 769.53"/><polygon class="cls-4" points="568 642 523.35 669.4 480 696 415 683 431.96 668.65 467 639 568 642"/><path class="cls-10" d="M449,661q12.25-.45,24.51-.53c8.17-.07,16.33,0,24.5,0s16.33.23,24.5.47,16.33.56,24.49,1q-12.25.46-24.51.53c-8.17.08-16.33,0-24.5,0s-16.33-.23-24.5-.47S457.16,661.47,449,661Z"/><path class="cls-10" d="M448,690q12.25-.45,24.51-.53c8.17-.07,16.33,0,24.5,0s16.33.23,24.5.47,16.33.56,24.49,1q-12.25.46-24.51.53c-8.17.08-16.33,0-24.5,0s-16.33-.23-24.5-.47S456.16,690.47,448,690Z"/><polygon class="cls-11" points="421 662 438 662 441 670 424 675 421 675 421 662"/><polygon class="cls-12" points="0 979 492 589.12 492 578 0 964 0 979"/><rect class="cls-4" x="1829.5" y="147.5" width="83" height="148" transform="translate(1350.77 2032.32) rotate(-80.72)"/><g class="cls-5"><polygon class="cls-4" points="1951 193 1936.87 267.76 1802.33 252.33 1937.34 274.39 1950.72 192.47 1951 193"/></g><rect class="cls-4" x="1783.31" y="315.69" width="129" height="12.1" transform="translate(1112.74 2047.31) rotate(-76.8)"/><g class="cls-5"><polygon class="cls-4" points="1856.64 257.57 1855.65 261.8 1866.42 264.33 1837.97 385.69 1838.97 385.92 1868.42 260.33 1856.64 257.57"/></g><circle class="cls-13" cx="1817" cy="322" r="14"/><path class="cls-13" d="M1814,310s3-9,8-9A22,22,0,0,1,1814,310Z"/><path d="M1810,304a18.62,18.62,0,0,1,1.39-1.5s1.85-1.17,1.85,0c0,.75-2.32,2.25-2.78,2.25,0,0,2.78,2.25,3.24,5.25,0,0,.92-9-.46-9C1811.39,301,1810.46,302.5,1810,304Z"/><path class="cls-14" d="M1712,111h11s-2,17-1,17-5,2-5,2l-5-3"/><path class="cls-15" d="M1730,187c-46-34-101-5-101-5s-73,27-45,96a23.41,23.41,0,0,0,2.93,5.53c4.46,6.44,14.84,15.67,36.29,11.23l-.75,10.3L1619,353l99.43-.9L1730,352l1.67-89.49L1732,245l1.07,8.06,3.57,26.87L1747,358h18C1769.13,337,1786.3,228.62,1730,187Zm-117,77,.64,1.16A2.15,2.15,0,0,1,1613,264Z"/><polygon class="cls-3" points="1718.43 352.1 1731.67 262.51 1730 352 1718.43 352.1"/><polygon class="cls-3" points="1735.64 271.93 1732.07 245.06 1734 232 1735.64 271.93"/><circle class="cls-13" cx="1681" cy="250" r="14"/><g class="cls-5"><path class="cls-13" d="M1693,242.8a13.84,13.84,0,0,1,1,5.2,14,14,0,0,1-26,7.2,14,14,0,1,0,25-12.4Z"/></g><path class="cls-14" d="M1664.48,266.48S1675,255,1678,256s1,8,0,8,17-6,17-6,3.86,7.86-25.57,13.43Z"/><path class="cls-13" d="M1678,238s3-9,8-9A22,22,0,0,1,1678,238Z"/><path class="cls-14" d="M1664,153s5,13,0,21c0,0,23.63-4.35,29.07,0,0,0-2.09-15.93,2.93-20.28C1696,153.72,1675.92,159.52,1664,153Z"/><ellipse class="cls-14" cx="1678" cy="112" rx="38" ry="44"/><polyline class="cls-14" points="1642 105 1634 105 1633 113 1644 113"/><g class="cls-5"><path class="cls-14" d="M1726.72,107.5a18.19,18.19,0,0,0-3.38-5.77c-3.37-3.62-8.59-4.64-13.35-6-12.69-3.62-24-10.76-35.88-16.54a16.67,16.67,0,0,0-4.33-1.62,15.84,15.84,0,0,0-3.77-.09,97.68,97.68,0,0,0-21.26,3.66,17.74,17.74,0,0,0-5.54,2.38,14.09,14.09,0,0,0-4.35,5.75,20.72,20.72,0,0,0-1.8,10.07h0a1.9,1.9,0,0,0-.8.69c-2.64,3.43-3,8-3.16,12.38a14.91,14.91,0,0,0,.17,4,31.87,31.87,0,0,0,2,4.81c1.21,3,1.31,6.34,2.06,9.5a46.5,46.5,0,0,0,3.17,8.42,11.51,11.51,0,0,0,1.88,3.17,8.69,8.69,0,0,0,3.44,2,12.07,12.07,0,0,0,6.53.62,3.17,3.17,0,0,0,1.23-.5,3.55,3.55,0,0,0,1.06-1.74c.86-2.39,1.49-5,.84-7.46-.26-1-.72-1.9-1.06-2.86a15.71,15.71,0,0,1-.77-6.53,39.08,39.08,0,0,0,.52-6c-.28-3.72-2.64-6.73-5-9.44l-.21-.25a23.09,23.09,0,0,0,6.1-.3,14.71,14.71,0,0,0,8.19-5.9,43.94,43.94,0,0,0,4.7-9.15,14.07,14.07,0,0,0,4,9.4c1.85,1.9,5.76,5.59,8.11,6.81,7.64,4,14.13,4.77,22.42,7.08,3.6,1,7.44,1.86,11,.85.76,7-3.83,13.37-5,20.29-.72,4.16-.19,8.42.33,12.6a6.53,6.53,0,0,0,.68,2.55,4.72,4.72,0,0,0,2.3,1.85,8.46,8.46,0,0,0,6.71,0,14.13,14.13,0,0,0,4.72-3.88A44.65,44.65,0,0,0,1726.72,107.5Z"/></g><ellipse class="cls-13" cx="541" cy="815.5" rx="7" ry="17.5"/><line class="cls-16" x1="469" y1="887" x2="534" y2="820.48"/><path class="cls-10" d="M472,699q11.44-7.62,23.1-14.91c7.75-4.89,15.56-9.68,23.38-14.44s15.7-9.45,23.62-14.07S558,646.42,566,642q-11.44,7.62-23.1,14.92t-23.38,14.43c-7.85,4.74-15.7,9.45-23.62,14.06S480,694.58,472,699Z"/><line class="cls-16" x1="541" y1="798" x2="541" y2="775.76"/><path class="cls-10" d="M538,680c-.41-3.25-.63-6.5-.78-9.75s-.2-6.5-.22-9.75.06-6.5.22-9.75.36-6.5.78-9.75c.42,3.25.63,6.5.78,9.75s.2,6.5.22,9.75-.06,6.5-.22,9.75S538.41,676.75,538,680Z"/><path class="cls-10" d="M515,687c-.41-3.92-.63-7.83-.78-11.75s-.2-7.83-.22-11.75.06-7.83.22-11.75.36-7.83.78-11.75c.42,3.92.63,7.83.78,11.75s.2,7.83.22,11.75-.06,7.83-.22,11.75S515.41,683.08,515,687Z"/><path class="cls-10" d="M495,704c-.41-5.33-.63-10.67-.78-16s-.2-10.67-.22-16,.06-10.67.22-16,.36-10.67.78-16c.42,5.33.63,10.67.78,16s.2,10.67.22,16-.06,10.67-.22,16S495.41,698.67,495,704Z"/><path class="cls-10" d="M474,717q-.58-9.75-.78-19.5c-.16-6.5-.2-13-.22-19.5s.06-13,.22-19.5.39-13,.78-19.5q.58,9.75.78,19.5c.16,6.5.2,13,.22,19.5s-.06,13-.22,19.5S474.39,710.5,474,717Z"/><line class="cls-16" x1="478.5" y1="819.5" x2="534" y2="820"/><path class="cls-14" d="M380,570s11.37,10.23,4.69,19.12c0,0,22.52-2.2,29.92-.66,0,0-5.61-18.46-3.61-22.46C411,566,391,577,380,570Z"/><path class="cls-17" d="M376,566s28,31,35,2c.33-1.37,1,0,1-4C412,524.8,376,566,376,566Z"/><ellipse class="cls-14" cx="389.82" cy="534.96" rx="32.91" ry="39.86" transform="translate(-124.26 117.99) rotate(-14.87)"/><path class="cls-18" d="M1610,256s2.1,14.05,15,13c0,0-4-10,2-19"/><polyline class="cls-18" points="1625 269 1664 266 1671 274"/><path class="cls-3" d="M1671,274l-2.59,1.66L1633,292a79.37,79.37,0,0,1-9.78,2.76c-21.45,4.44-31.83-4.79-36.29-11.23Z"/><path d="M1674,232a18.62,18.62,0,0,1,1.39-1.5s1.85-1.17,1.85,0c0,.75-2.32,2.25-2.78,2.25,0,0,2.78,2.25,3.24,5.25,0,0,.92-9-.46-9C1675.39,229,1674.46,230.5,1674,232Z"/><g class="cls-5"><path class="cls-14" d="M1678,156c-20.41,0-37-18.63-38-42,0,.66,0,1.33,0,2,0,24.3,17,44,38,44s38-19.7,38-44c0-.67,0-1.34,0-2C1715.05,137.37,1698.41,156,1678,156Z"/></g><rect class="cls-12" x="1660" y="132" width="37" height="16"/><line class="cls-19" x1="1661" y1="134" x2="1643" y2="117"/><line class="cls-19" x1="1693" y1="135.35" x2="1717" y2="114"/><line class="cls-19" x1="1693.84" y1="144.35" x2="1713.52" y2="136.35"/><path d="M1664,88s-9,22-27,20c0,0,10,2,10,6s1,19,3,21,10,8,12,10,7,8,7,11-11,39-9,39-14,24-23,24h-30c-6,0-30,31-24,3,0,0-11.17-24,16-48,17-15-8-42,9-49s5-52,8-53,29-26,43-14,32-10,40-10,12,5,22,16,39,40,36,58-16,48-8,57,33,21.39,22,49c-8,20-20,9-24,8s-31-20-28-29-25-17-25-18-5-33-5-33,13-16,14-17,9-17,9-17l9-7S1675,127,1664,88Z"/><path class="cls-15" d="M1837.9,204.08l-4.28-.8q.26-4.44-3.24-5.1a4.88,4.88,0,0,0-3.61.44,4.36,4.36,0,0,0-1.74,3,4.71,4.71,0,0,0,.66,3.27l7.18,11.91a9.18,9.18,0,0,1,1.37,6.56l-.4,2.11a8.8,8.8,0,0,1-10.22,7l-4.27-.8q-4.27-.81-6-3.36c-1.17-1.7-1.49-4-.94-6.87l4.32.82c-.06.31-.1.55-.13.72a3.08,3.08,0,0,0,.83,2.93,5.06,5.06,0,0,0,2.76,1.48,4.27,4.27,0,0,0,3.47-.48,4.76,4.76,0,0,0,1.62-3,4.58,4.58,0,0,0-.66-3.27l-7.18-11.92a9,9,0,0,1-1.38-6.55l.4-2.11a8.5,8.5,0,0,1,3.67-5.57,8.38,8.38,0,0,1,6.56-1.4l4.27.81Q1839,195.39,1837.9,204.08Z"/><path class="cls-15" d="M1840.76,235.71l5.68-30a8.82,8.82,0,0,1,10.22-7l8.6,1.63a8.32,8.32,0,0,1,5.54,3.69,8.41,8.41,0,0,1,1.37,6.52l-5.68,30L1858,239l3.24-17.14-8.59-1.62-3.25,17.14Zm12.66-19.84,8.59,1.63,1.62-8.54a4.38,4.38,0,0,0-3.5-5.14,4.1,4.1,0,0,0-3.25.69,4.21,4.21,0,0,0-1.84,2.82Z"/><path class="cls-15" d="M1875.09,242.21l7.31-38.6,8.59,1.62-6.5,34.33,12.87,2.44-.81,4.27Z"/><path class="cls-15" d="M1905.09,247.89l7.31-38.6,21.47,4.06-.81,4.27-12.87-2.43-2.44,12.87,8.6,1.62-.82,4.33-8.6-1.63-2.43,12.87,12.87,2.43-.81,4.27Z"/><g class="cls-20"><path class="cls-21" d="M1666,63c14,12,32-10,40-10a14.53,14.53,0,0,1,5.3.92A15.27,15.27,0,0,0,1701,50c-7.13,0-22.22,17.47-35.33,12.75Z"/><path class="cls-21" d="M1590,227s-11.17-24,16-48c17-15-8-42,9-49s5-52,8-53c2.71-.9,24.22-21.42,38.67-16.48-.22-.17-.45-.33-.67-.52-14-12-40,13-43,14s9,46-8,53,8,34-9,49c-27.17,24-16,48-16,48-2.39,11.15-.09,9.88,4,8C1588.88,230.16,1589.23,230.6,1590,227Z"/><path class="cls-21" d="M1726,212c1.38-4.15-3.82-8.08-9.84-11.22,3.53,2.5,5.81,5.31,4.84,8.22-2.79,8.38,19.57,23.89,26,27C1737.89,229.9,1723.72,218.84,1726,212Z"/></g><circle class="cls-13" cx="1477" cy="343" r="14"/><path class="cls-13" d="M1474,331s3-9,8-9A22,22,0,0,1,1474,331Z"/><path d="M1470,325a18.62,18.62,0,0,1,1.39-1.5s1.85-1.17,1.85,0c0,.75-2.32,2.25-2.78,2.25,0,0,2.78,2.25,3.24,5.25,0,0,.92-9-.46-9C1471.39,322,1470.46,323.5,1470,325Z"/><circle class="cls-13" cx="1454" cy="353" r="14"/><path class="cls-13" d="M1451,341s3-9,8-9A22,22,0,0,1,1451,341Z"/><path d="M1447,335a18.62,18.62,0,0,1,1.39-1.5s1.85-1.17,1.85,0c0,.75-2.32,2.25-2.78,2.25,0,0,2.78,2.25,3.24,5.25,0,0,.92-9-.46-9C1448.39,332,1447.46,333.5,1447,335Z"/><circle class="cls-13" cx="1428.06" cy="346.01" r="14"/><path class="cls-13" d="M1433.11,334.72s7.92-5.22,11.85-2.14A21.94,21.94,0,0,1,1433.11,334.72Z"/><path d="M1433.67,327.53a19.37,19.37,0,0,1,2-.32s2.17.22,1.45,1.14c-.46.59-3.21.34-3.57.06a9.79,9.79,0,0,1-.7,6.13s6.29-6.51,5.2-7.37C1436.61,326,1435,326.64,1433.67,327.53Z"/><circle class="cls-13" cx="1502" cy="349" r="14"/><path class="cls-13" d="M1499,337s3-9,8-9A22,22,0,0,1,1499,337Z"/><path d="M1495,331a18.62,18.62,0,0,1,1.39-1.5s1.85-1.17,1.85,0c0,.75-2.32,2.25-2.78,2.25,0,0,2.78,2.25,3.24,5.25,0,0,.92-9-.46-9C1496.39,328,1495.46,329.5,1495,331Z"/><circle class="cls-13" cx="1525" cy="341" r="14"/><path class="cls-13" d="M1522,329s3-9,8-9A22,22,0,0,1,1522,329Z"/><path d="M1518,323a18.62,18.62,0,0,1,1.39-1.5s1.85-1.17,1.85,0c0,.75-2.32,2.25-2.78,2.25,0,0,2.78,2.25,3.24,5.25,0,0,.92-9-.46-9C1519.39,320,1518.46,321.5,1518,323Z"/><circle class="cls-13" cx="1553" cy="343" r="14"/><path class="cls-13" d="M1550,331s3-9,8-9A22,22,0,0,1,1550,331Z"/><path d="M1546,325a18.62,18.62,0,0,1,1.39-1.5s1.85-1.17,1.85,0c0,.75-2.32,2.25-2.78,2.25,0,0,2.78,2.25,3.24,5.25,0,0,.92-9-.46-9C1547.39,322,1546.46,323.5,1546,325Z"/><circle class="cls-13" cx="1631" cy="347" r="14"/><path class="cls-13" d="M1628,335s3-9,8-9A22,22,0,0,1,1628,335Z"/><path d="M1624,329a18.62,18.62,0,0,1,1.39-1.5s1.85-1.17,1.85,0c0,.75-2.32,2.25-2.78,2.25,0,0,2.78,2.25,3.24,5.25,0,0,.92-9-.46-9C1625.39,326,1624.46,327.5,1624,329Z"/><circle class="cls-13" cx="1692" cy="347" r="14"/><path class="cls-13" d="M1689,335s3-9,8-9A22,22,0,0,1,1689,335Z"/><path d="M1685,329a18.62,18.62,0,0,1,1.39-1.5s1.85-1.17,1.85,0c0,.75-2.32,2.25-2.78,2.25,0,0,2.78,2.25,3.24,5.25,0,0,.92-9-.46-9C1686.39,326,1685.46,327.5,1685,329Z"/><ellipse class="cls-13" cx="1721.79" cy="343.39" rx="18.5" ry="16.4" transform="translate(-20.41 560.69) rotate(-18.39)"/><path class="cls-13" d="M1713.6,331.3s.43-11.25,6.7-13.34C1720.3,318,1719.64,324.35,1713.6,331.3Z"/><path d="M1706.36,326.3a25.1,25.1,0,0,1,1.19-2.25s1.89-2.06,2.32-.77c.27.84-2.07,3.47-2.65,3.66,0,0,4.31,1.35,6,4.49,0,0-2.17-10.39-3.91-9.81C1707,322.39,1706.39,324.44,1706.36,326.3Z"/><circle class="cls-13" cx="1754" cy="347" r="14"/><path class="cls-13" d="M1751,335s3-9,8-9A22,22,0,0,1,1751,335Z"/><path d="M1747,329a18.62,18.62,0,0,1,1.39-1.5s1.85-1.17,1.85,0c0,.75-2.32,2.25-2.78,2.25,0,0,2.78,2.25,3.24,5.25,0,0,.92-9-.46-9C1748.39,326,1747.46,327.5,1747,329Z"/><circle class="cls-13" cx="1854" cy="332" r="14"/><path class="cls-13" d="M1851,320s3-9,8-9A22,22,0,0,1,1851,320Z"/><path d="M1847,314a18.62,18.62,0,0,1,1.39-1.5s1.85-1.17,1.85,0c0,.75-2.32,2.25-2.78,2.25,0,0,2.78,2.25,3.24,5.25,0,0,.92-9-.46-9C1848.39,311,1847.46,312.5,1847,314Z"/><circle class="cls-13" cx="1799" cy="332" r="14"/><path class="cls-13" d="M1796,320s3-9,8-9A22,22,0,0,1,1796,320Z"/><path d="M1792,314a18.62,18.62,0,0,1,1.39-1.5s1.85-1.17,1.85,0c0,.75-2.32,2.25-2.78,2.25,0,0,2.78,2.25,3.24,5.25,0,0,.92-9-.46-9C1793.39,311,1792.46,312.5,1792,314Z"/><circle class="cls-13" cx="1603.43" cy="343.09" r="14"/><path class="cls-13" d="M1604.18,330.75s5.57-7.68,10.34-6.18A22,22,0,0,1,1604.18,330.75Z"/><path d="M1602.17,323.82s.9-.58,1.77-1c0,0,2.12-.56,1.77.55-.23.72-2.88,1.45-3.32,1.31a9.8,9.8,0,0,1,1.5,6s3.59-8.3,2.27-8.72C1604.4,321.38,1603.06,322.53,1602.17,323.82Z"/><circle class="cls-13" cx="1578" cy="351" r="14"/><path class="cls-13" d="M1575,339s3-9,8-9A22,22,0,0,1,1575,339Z"/><path d="M1571,333a18.62,18.62,0,0,1,1.39-1.5s1.85-1.17,1.85,0c0,.75-2.32,2.25-2.78,2.25,0,0,2.78,2.25,3.24,5.25,0,0,.92-9-.46-9C1572.39,330,1571.46,331.5,1571,333Z"/><circle class="cls-13" cx="1812" cy="349" r="14"/><path class="cls-13" d="M1809,337s3-9,8-9A22,22,0,0,1,1809,337Z"/><path d="M1805,331a18.62,18.62,0,0,1,1.39-1.5s1.85-1.17,1.85,0c0,.75-2.32,2.25-2.78,2.25,0,0,2.78,2.25,3.24,5.25,0,0,.92-9-.46-9C1806.39,328,1805.46,329.5,1805,331Z"/><g class="cls-5"><circle class="cls-13" cx="1781" cy="342" r="14"/></g><circle class="cls-13" cx="1780" cy="342" r="14"/><path class="cls-13" d="M1777,330s3-9,8-9A22,22,0,0,1,1777,330Z"/><path d="M1773,324a18.62,18.62,0,0,1,1.39-1.5s1.85-1.17,1.85,0c0,.75-2.32,2.25-2.78,2.25,0,0,2.78,2.25,3.24,5.25,0,0,.92-9-.46-9C1774.39,321,1773.46,322.5,1773,324Z"/><g class="cls-5"><circle class="cls-13" cx="1810" cy="349" r="14"/></g><g class="cls-5"><ellipse class="cls-13" cx="1832.5" cy="329.5" rx="13.5" ry="11.5"/></g><g class="cls-5"><circle class="cls-13" cx="1854" cy="332" r="14"/></g><circle class="cls-13" cx="1834" cy="332" r="14"/><path class="cls-13" d="M1831,320s3-9,8-9A22,22,0,0,1,1831,320Z"/><path d="M1827,314a18.62,18.62,0,0,1,1.39-1.5s1.85-1.17,1.85,0c0,.75-2.32,2.25-2.78,2.25,0,0,2.78,2.25,3.24,5.25,0,0,.92-9-.46-9C1828.39,311,1827.46,312.5,1827,314Z"/><circle class="cls-13" cx="1856" cy="349" r="14"/><path class="cls-13" d="M1853,337s3-9,8-9A22,22,0,0,1,1853,337Z"/><path d="M1849,331a18.62,18.62,0,0,1,1.39-1.5s1.85-1.17,1.85,0c0,.75-2.32,2.25-2.78,2.25,0,0,2.78,2.25,3.24,5.25,0,0,.92-9-.46-9C1850.39,328,1849.46,329.5,1849,331Z"/><g class="cls-5"><circle class="cls-13" cx="1578" cy="351" r="14"/></g><g class="cls-5"><circle class="cls-13" cx="1454" cy="353" r="14"/></g><circle class="cls-13" cx="1669.96" cy="331.09" r="13.2"/><path class="cls-13" d="M1674.74,320.45s7.47-4.91,11.17-2A20.69,20.69,0,0,1,1674.74,320.45Z"/><path d="M1675.28,313.68a16.68,16.68,0,0,1,1.9-.3s2,.21,1.37,1.07c-.44.56-3,.32-3.37.05a9.22,9.22,0,0,1-.67,5.78s5.94-6.13,4.91-6.94C1678.05,312.26,1676.49,312.84,1675.28,313.68Z"/><ellipse class="cls-13" cx="1654.5" cy="349" rx="14.5" ry="14"/><path class="cls-13" d="M1657.61,337s-3.11-9-8.29-9A22.13,22.13,0,0,0,1657.61,337Z"/><path d="M1661.75,331a20.1,20.1,0,0,0-1.44-1.5s-1.91-1.17-1.91,0c0,.75,2.39,2.25,2.87,2.25,0,0-2.87,2.25-3.35,5.25,0,0-1-9,.48-9C1660.31,328,1661.27,329.5,1661.75,331Z"/><g class="cls-5"><ellipse class="cls-13" cx="1654.5" cy="349" rx="14.5" ry="14"/></g><rect class="cls-7" x="1413" y="344" width="475" height="273"/><polygon class="cls-22" points="1888 344 1888 617 1750.3 617 1886.06 344 1888 344"/><rect class="cls-12" x="1407" y="344" width="487" height="22"/><g class="cls-23"><polygon class="cls-12" points="1891 344 1891 363 1407 363 1407 366 1894 366 1894 344 1891 344"/></g><g class="cls-5"><path class="cls-14" d="M363.49,493.59s-10.63,26.74-8.1,28.91c36,30.83,16.2,1,20.7-1C387,516.88,388,527,390,532l6.53,13a14,14,0,0,0,4.1,4.93L416,562c4-3,6-23.12,6-23.12s-4.5-37.58-4.5-38.54-11.61-11.08-24.3-8.67c-10.81,2-13,2.88-20.71,1C367.53,491.39,364.39,495.52,363.49,493.59Z"/></g><path class="cls-7" d="M383.7,561.13l-10.32,6a4.74,4.74,0,0,1-6.47-1.73l-3.78-6.56a1.93,1.93,0,0,1,.71-2.65l12.73-7.35Z"/><line class="cls-24" x1="377" y1="551" x2="393" y2="530"/><path d="M360,490s-11.82,27.75-9,30c40,32,18,1,23-1,12.07-4.83,15,5,16,9l2,4s5-6,8,0,2,12,0,11a4.83,4.83,0,0,1-4,0l9,9,14,9c.71-1.42,6-24,6-24s-5-39-5-40-12.9-11.49-27-9c-12,2.12-14.44,3-23,1C364.49,487.72,361,492,360,490Z"/><line class="cls-24" x1="380.64" y1="560.46" x2="397" y2="544"/><polygon class="cls-4" points="568 642 567.78 648.26 564 756 476.53 831.15 451.04 835.97 435 839 398 677 480 695 568 642"/><path class="cls-10" d="M474,832q10.88-9.94,22-19.59t22.36-19.17c7.51-6.32,15-12.62,22.64-18.84S556.25,762,564,756q-10.87,9.94-22,19.6c-7.39,6.45-14.87,12.82-22.36,19.16s-15,12.62-22.64,18.83S481.75,826,474,832Z"/><path class="cls-10" d="M472,792q11-9.09,22.28-17.87c7.49-5.88,15-11.66,22.62-17.43s15.2-11.45,22.88-17.07S555.18,728.44,563,723q-11,9.09-22.28,17.87c-7.49,5.88-15,11.66-22.62,17.43s-15.2,11.45-22.88,17.07S479.82,786.56,472,792Z"/><path class="cls-10" d="M472,745q10.8-8.22,21.81-16.14c7.32-5.3,14.71-10.5,22.12-15.68s14.87-10.28,22.37-15.32,15.06-10,22.7-14.86q-10.79,8.24-21.8,16.14c-7.33,5.3-14.72,10.5-22.13,15.68s-14.87,10.28-22.38,15.32S479.64,740.15,472,745Z"/><path class="cls-10" d="M466,839q-.58-17.88-.78-35.75c-.16-11.92-.2-23.83-.22-35.75s.06-23.83.22-35.75.39-23.83.78-35.75q.58,17.88.78,35.75c.16,11.92.2,23.83.22,35.75s-.06,23.83-.22,35.75S466.39,827.08,466,839Z"/><path class="cls-10" d="M487,820q-.58-16.25-.78-32.5c-.16-10.83-.2-21.67-.22-32.5s.06-21.67.22-32.5.39-21.67.78-32.5q.58,16.25.78,32.5c.16,10.83.2,21.67.22,32.5s-.06,21.67-.22,32.5S487.39,809.17,487,820Z"/><path class="cls-10" d="M358,742q13.26-.46,26.51-.53c8.83-.08,17.67,0,26.5,0s17.67.22,26.5.46,17.66.55,26.49,1q-13.26.46-26.51.54c-8.83.08-17.67,0-26.5,0s-17.67-.23-26.5-.47S366.83,742.47,358,742Z"/><path class="cls-10" d="M357,792q13.38-.42,26.76-.46c8.92,0,17.84,0,26.75.1s17.83.28,26.75.55,17.83.6,26.74,1.1q-13.38.42-26.76.46c-8.92,0-17.84,0-26.75-.11s-17.83-.27-26.75-.54S365.91,792.49,357,792Z"/><path class="cls-10" d="M506,804q-.58-15.75-.78-31.5c-.16-10.5-.2-21-.22-31.5s.06-21,.22-31.5.39-21,.78-31.5q.58,15.75.78,31.5c.16,10.5.2,21,.22,31.5s-.06,21-.22,31.5S506.39,793.5,506,804Z"/><path class="cls-10" d="M527,788q-.59-15.25-.78-30.5c-.16-10.17-.2-20.33-.22-30.5s.06-20.33.22-30.5.39-20.33.78-30.5q.59,15.25.78,30.5c.16,10.17.2,20.33.22,30.5s-.06,20.33-.22,30.5S527.39,777.83,527,788Z"/><path class="cls-10" d="M550,766q-.59-14.25-.78-28.5c-.16-9.5-.2-19-.22-28.5s.06-19,.22-28.5.39-19,.78-28.5q.59,14.25.78,28.5c.16,9.5.2,19,.22,28.5s-.06,19-.22,28.5S550.39,756.5,550,766Z"/><polygon class="cls-25" points="523.35 669.4 480 696 415 683 431.96 668.65 464 668 523.35 669.4"/><polygon class="cls-25" points="567.78 648.26 564 756 476.53 831.15 451.04 835.97 423 685 464 691 477 794 567.78 648.26"/><path class="cls-26" d="M333,769s-24,101-16,192l46,3s30-100,28-129c0,0,26,12,28,39,0,0,5,39,0,60l33,5s26-64,27-81,7-23-20-44c0,0-15-29-13-50S333,769,333,769Z"/><path class="cls-11" d="M475,680s-6.22-11.2-4-24c0,0-2.28-14.6-4-20-7.13-22.43-15.12-39-45-46-34-8-42,2-42,2s-57.29,26.74-75.39,60.3c-9.68,18-8.14,37.88,19.39,56.7l-4,18.09L310,772s51,20,77,15,40-19,67-17l-15.49-65.6-1.5-6.34c10,2.37,21.73,4.29,25,4.94a24.47,24.47,0,0,0,6.93.53,13.84,13.84,0,0,0,2.74-.49,12.27,12.27,0,0,0,8-7.29c.11-.24.22-.49.32-.75C484,685,482,685,475,680Zm-48.7-9c-.54-3.09-.45-5.63.7-7Z"/><path class="cls-27" d="M479.68,695.75a12.27,12.27,0,0,1-8,7.29c-.88.18-1.8.35-2.74.49A24.47,24.47,0,0,1,462,703c-3.26-.65-15-2.57-25-4.94,0,0-.16.12,0-.06l-3-11c-8-25-6-15-11-35l11,12s3,12,6,15c1.61,1.61,25,13,40,8C484.84,685.39,479.35,695.62,479.68,695.75Z"/><path class="cls-28" d="M322.71,708.24Q330.48,695.69,338,683q3.76-6.36,7.41-12.78c1.21-2.15,2.38-4.31,3.54-6.48.54-1.11,1.14-2.19,1.65-3.31l.76-1.68c.23-.56.4-1.16.6-1.74-.17.59-.31,1.19-.51,1.78l-.68,1.72c-.46,1.15-1,2.26-1.49,3.39q-1.56,3.36-3.21,6.67-3.3,6.62-6.76,13.16-6.89,13.1-14.06,26Z"/><path class="cls-28" d="M334.5,661.91a91.24,91.24,0,0,0,.7,9.18,32.5,32.5,0,0,0,2.15,8.8,6.35,6.35,0,0,0,1.14,1.76c.11.12.24.21.35.32l0,0a.21.21,0,0,0-.12,0h-.11a.62.62,0,0,0-.49.27.6.6,0,0,0-.1.27.29.29,0,0,0,0,.13.34.34,0,0,0,0,.16c0,.08,0,0,0,0l-.14-.21-.71-.9c-1-1.2-2-2.38-3-3.57L328,671l6.69,6.55c1.11,1.1,2.21,2.2,3.3,3.34.27.28.54.56.81.87l.21.26a1.29,1.29,0,0,1,.15.24.6.6,0,0,1,0,.2.38.38,0,0,1,0,.15s0,.08-.1.28a.7.7,0,0,1-.51.28h-.13l-.15,0-.18-.09c-.18-.13-.38-.26-.55-.41a7.92,7.92,0,0,1-1.57-2,22.77,22.77,0,0,1-1.85-4.48c-.48-1.53-.85-3.07-1.19-4.62a92.17,92.17,0,0,1-1.48-9.39Z"/><path class="cls-28" d="M434.56,699.42q-3.26-12.42-6.38-24.88-1.56-6.22-3.05-12.47l-1.44-6.26c-.44-2.1-.94-4.18-1.19-6.31.37,2.11,1,4.16,1.55,6.22l1.8,6.15c1.23,4.1,2.5,8.19,3.78,12.27q3.83,12.24,7.81,24.44Z"/><g class="cls-5"><path class="cls-26" d="M451,929l-28-2c5.24-21-4.14-66.91-4.14-66.91-2.1-27-29.32-39-29.32-39C391.63,850.09,363,951,363,951l-46.55,3c.17,2.35.34,4.69.55,7l46,3s30-100,28-129c0,0,26,12,28,39,0,0,5,39,0,60l33,5s26-64,27-81c0-.72.1-1.41.15-2.09C471.78,881.37,451,929,451,929Z"/></g><g class="cls-5"><path class="cls-26" d="M459,814a41.6,41.6,0,0,1,2.06,8.44,30.14,30.14,0,0,1,.31,4.36,14.83,14.83,0,0,1-.18,2.2,3.41,3.41,0,0,1-.9,2,3.6,3.6,0,0,0,.41-2c0-.71-.05-1.42-.11-2.13-.14-1.42-.32-2.83-.52-4.25C459.69,819.74,459.24,816.9,459,814Z"/></g><g class="cls-5"><path class="cls-26" d="M458.82,813.76a41.55,41.55,0,0,1-3.7,7.87,32.27,32.27,0,0,1-2.49,3.58,13.6,13.6,0,0,1-1.53,1.6,3.39,3.39,0,0,1-2,1,3.7,3.7,0,0,0,1.6-1.33c.45-.55.85-1.14,1.25-1.72.78-1.19,1.53-2.41,2.27-3.64C455.75,818.66,457.19,816.17,458.82,813.76Z"/></g><g class="cls-5"><path class="cls-26" d="M444,781a19,19,0,0,1,1.86,5.39,28.61,28.61,0,0,1,.55,5.61,27.86,27.86,0,0,1-.55,5.61A19.16,19.16,0,0,1,444,803a49.53,49.53,0,0,1-.49-5.58c-.06-1.82-.1-3.62-.1-5.42s0-3.6.1-5.43S443.72,782.92,444,781Z"/></g><path class="cls-27" d="M323,708c-27.53-18.82-27.68-38-18-56,4.34,15.08,14,45,24,46Z"/><rect class="cls-26" x="313" y="954" width="57" height="15"/><rect class="cls-26" x="414" y="930" width="48" height="13"/><polygon class="cls-29" points="370 954.6 370 969 338.8 969 367 966 370 954.6"/><polygon class="cls-29" points="462 930 462 943 430.8 943 459 940.29 462 930"/><g class="cls-5"><path class="cls-13" d="M545,823c-3.87,0-7-7.84-7-17.5a40.53,40.53,0,0,1,.48-6.31c-2.62,2.53-4.48,8.87-4.48,16.31,0,9.66,3.13,17.5,7,17.5,3,0,5.51-4.65,6.52-11.19A3.65,3.65,0,0,1,545,823Z"/></g><g class="cls-30"><path class="cls-13" d="M540.92,801.31c2.94,0,5.32,5.12,5.32,11.44,0,3.24.77,7.17-.24,9.25,1.45-2,1-6.56,1-10.56,0-6.32-2.38-11.44-5.32-11.44-1.43,0-2.72,1.22-3.68,3.19A3.74,3.74,0,0,1,540.92,801.31Z"/></g><path class="cls-11" d="M365,979.38V999H318V979.38c0-5.91,5.37-10.7,12-10.7l7-2.68h8l8,2.68a12.81,12.81,0,0,1,8,2.68A10.24,10.24,0,0,1,365,979.38Z"/><path class="cls-11" d="M461.11,954.24l-.8,19.76-30.24-1-16.73-.55.8-19.76c.25-6,5.81-10.59,12.44-10.38l7.1-2.46,8,.26,7.88,3a12.34,12.34,0,0,1,9.62,4.89A9.89,9.89,0,0,1,461.11,954.24Z"/><rect class="cls-15" x="318" y="993.65" width="47" height="5.35"/><polygon class="cls-15" points="460.53 968.61 413.56 967.06 413.34 972.45 460.31 974 460.53 968.61"/><path class="cls-27" d="M365,979.38V999H339.13c9.06-8.12,16.39-18.47,21.83-27.64A10.24,10.24,0,0,1,365,979.38Z"/><path class="cls-27" d="M461.11,954.24l-.8,19.76-30.24-1c12-5.81,23.85-18.81,29.11-25A9.89,9.89,0,0,1,461.11,954.24Z"/></g></g></svg>