<svg xmlns="http://www.w3.org/2000/svg" xmlns:xlink="http://www.w3.org/1999/xlink" viewBox="0 0 100 100"><defs><style>.cls-1{isolation:isolate;}.cls-2{fill:url(#未命名漸層_241);}.cls-3{fill:url(#未命名漸層_325);}.cls-4{fill:url(#未命名漸層_385);}.cls-5{fill:url(#未命名漸層_241-2);}.cls-6{fill:url(#未命名漸層_325-2);}.cls-7{fill:url(#未命名漸層_385-2);}.cls-8{fill:url(#未命名漸層_241-3);}.cls-9{fill:url(#未命名漸層_174);}.cls-10{fill:#575757;opacity:0.19;mix-blend-mode:multiply;}.cls-11{fill:url(#未命名漸層_107);}.cls-12{fill:url(#未命名漸層_88);}.cls-13{fill:url(#未命名漸層_4);}.cls-14{fill:url(#未命名漸層_67);}.cls-15{fill:url(#未命名漸層_115);}.cls-16{fill:url(#未命名漸層_242);}.cls-17{fill:url(#未命名漸層_178);}.cls-18{fill:url(#未命名漸層_226);}.cls-19{fill:url(#未命名漸層_170);}.cls-20{fill:url(#未命名漸層_170-2);}.cls-21,.cls-23,.cls-25,.cls-26{stroke-miterlimit:10;stroke-width:0.1px;}.cls-21{fill:url(#未命名漸層_277);stroke:url(#未命名漸層_296);}.cls-22{fill:url(#未命名漸層_265);}.cls-23{fill:url(#未命名漸層_433);stroke:url(#未命名漸層_436);}.cls-24{fill:#717073;}.cls-25{fill:url(#未命名漸層_422);stroke:url(#未命名漸層_415);}.cls-26{fill:url(#未命名漸層_409);stroke:url(#未命名漸層_412);}.cls-27{fill:url(#未命名漸層_397);}.cls-28{fill:url(#未命名漸層_399);}.cls-29{fill:url(#未命名漸層_399-2);}</style><linearGradient id="未命名漸層_241" x1="30.96" y1="85.69" x2="50.02" y2="85.69" gradientUnits="userSpaceOnUse"><stop offset="0.26" stop-color="#fff"/><stop offset="0.34" stop-color="#ededed"/><stop offset="0.51" stop-color="#bfbfbf"/><stop offset="0.74" stop-color="#757575"/><stop offset="0.83" stop-color="#575757"/></linearGradient><radialGradient id="未命名漸層_325" cx="35.76" cy="92.88" r="13.69" gradientUnits="userSpaceOnUse"><stop offset="0" stop-color="#fff"/><stop offset="0.09" stop-color="#ececec"/><stop offset="0.19" stop-color="#dcdcdc"/><stop offset="0.27" stop-color="#d6d6d6"/><stop offset="0.36" stop-color="#c1c1c1"/><stop offset="0.57" stop-color="#8c8c8c"/><stop offset="0.75" stop-color="#575757"/><stop offset="1" stop-color="#575757"/></radialGradient><linearGradient id="未命名漸層_385" x1="31.53" y1="92.32" x2="50.02" y2="92.32" gradientUnits="userSpaceOnUse"><stop offset="0" stop-color="gray"/><stop offset="0.06" stop-color="#7e7e7e"/><stop offset="0.07" stop-color="#777"/><stop offset="0.09" stop-color="#6c6c6c"/><stop offset="0.1" stop-color="#5b5b5b"/><stop offset="0.11" stop-color="#454545"/><stop offset="0.12" stop-color="#333"/><stop offset="0.12" stop-color="#454545"/><stop offset="0.13" stop-color="#5b5b5b"/><stop offset="0.14" stop-color="#6c6c6c"/><stop offset="0.16" stop-color="#777"/><stop offset="0.18" stop-color="#7e7e7e"/><stop offset="0.24" stop-color="gray"/><stop offset="0.3" stop-color="#7e7e7e"/><stop offset="0.32" stop-color="#777"/><stop offset="0.33" stop-color="#6c6c6c"/><stop offset="0.34" stop-color="#5b5b5b"/><stop offset="0.35" stop-color="#454545"/><stop offset="0.36" stop-color="#333"/><stop offset="0.37" stop-color="#444"/><stop offset="0.38" stop-color="#5a5a5a"/><stop offset="0.39" stop-color="#6b6b6b"/><stop offset="0.4" stop-color="#767676"/><stop offset="0.42" stop-color="#7d7d7d"/><stop offset="0.48" stop-color="#7f7f7f"/><stop offset="0.54" stop-color="#7d7d7d"/><stop offset="0.57" stop-color="#767676"/><stop offset="0.58" stop-color="#6b6b6b"/><stop offset="0.59" stop-color="#5a5a5a"/><stop offset="0.61" stop-color="#444"/><stop offset="0.61" stop-color="#333"/><stop offset="0.62" stop-color="#454545"/><stop offset="0.63" stop-color="#5b5b5b"/><stop offset="0.64" stop-color="#6c6c6c"/><stop offset="0.66" stop-color="#777"/><stop offset="0.68" stop-color="#7e7e7e"/><stop offset="0.73" stop-color="gray"/><stop offset="0.79" stop-color="#7e7e7e"/><stop offset="0.82" stop-color="#757575"/><stop offset="0.84" stop-color="#676767"/><stop offset="0.86" stop-color="#545454"/><stop offset="0.88" stop-color="#3a3a3a"/><stop offset="0.89" stop-color="#333"/><stop offset="0.9" stop-color="#434343"/><stop offset="0.91" stop-color="#4e4e4e"/><stop offset="0.94" stop-color="#555"/><stop offset="1" stop-color="#575757"/></linearGradient><linearGradient id="未命名漸層_241-2" x1="49" y1="86.35" x2="68.06" y2="86.35" xlink:href="#未命名漸層_241"/><radialGradient id="未命名漸層_325-2" cx="53.81" cy="92.88" r="13.69" xlink:href="#未命名漸層_325"/><linearGradient id="未命名漸層_385-2" x1="49.58" y1="92.32" x2="68.06" y2="92.32" xlink:href="#未命名漸層_385"/><linearGradient id="未命名漸層_241-3" x1="30.21" y1="63.22" x2="69.82" y2="63.22" xlink:href="#未命名漸層_241"/><linearGradient id="未命名漸層_174" x1="34.77" y1="54.08" x2="69.57" y2="36.07" gradientUnits="userSpaceOnUse"><stop offset="0.28" stop-color="#fff"/><stop offset="0.33" stop-color="#f6f6f6"/><stop offset="0.4" stop-color="#dcdcdc"/><stop offset="0.49" stop-color="#b2b2b2"/><stop offset="0.6" stop-color="#797979"/><stop offset="0.7" stop-color="#383838"/></linearGradient><radialGradient id="未命名漸層_107" cx="76.99" cy="28.77" r="11.33" gradientUnits="userSpaceOnUse"><stop offset="0.1" stop-color="#fff"/><stop offset="0.45" stop-color="#575757"/><stop offset="0.54" stop-color="#3e3e3e"/><stop offset="0.69" stop-color="#1c1c1c"/><stop offset="0.82" stop-color="#080808"/><stop offset="0.9"/></radialGradient><radialGradient id="未命名漸層_88" cx="20.04" cy="33" r="11.42" gradientUnits="userSpaceOnUse"><stop offset="0" stop-color="#fff"/><stop offset="0.45" stop-color="#a1a1a1"/><stop offset="0.83" stop-color="#575757"/></radialGradient><radialGradient id="未命名漸層_4" cx="32.77" cy="30.64" r="42.49" gradientUnits="userSpaceOnUse"><stop offset="0.3" stop-color="#fff"/><stop offset="0.4" stop-color="#fcfcfc"/><stop offset="0.48" stop-color="#f2f2f2"/><stop offset="0.55" stop-color="#e0e0e0"/><stop offset="0.62" stop-color="#c8c8c8"/><stop offset="0.69" stop-color="#a9a9a9"/><stop offset="0.76" stop-color="#838383"/><stop offset="0.82" stop-color="#555"/><stop offset="0.88" stop-color="#222"/><stop offset="0.92"/></radialGradient><radialGradient id="未命名漸層_67" cx="41.74" cy="25.61" r="26.51" gradientUnits="userSpaceOnUse"><stop offset="0" stop-color="#fff" stop-opacity="0.8"/><stop offset="0.01" stop-color="#eff6fb" stop-opacity="0.79"/><stop offset="0.08" stop-color="#9bc7e5" stop-opacity="0.72"/><stop offset="0.14" stop-color="#58a2d3" stop-opacity="0.67"/><stop offset="0.19" stop-color="#2887c7" stop-opacity="0.63"/><stop offset="0.23" stop-color="#0b77bf" stop-opacity="0.61"/><stop offset="0.25" stop-color="#0071bc" stop-opacity="0.6"/><stop offset="0.36" stop-color="#0878c0" stop-opacity="0.62"/><stop offset="0.53" stop-color="#208dcb" stop-opacity="0.68"/><stop offset="0.58" stop-color="#2793ce" stop-opacity="0.7"/><stop offset="0.66" stop-color="#2886bb" stop-opacity="0.75"/><stop offset="0.79" stop-color="#2c6287" stop-opacity="0.9"/><stop offset="0.86" stop-color="#2e4963"/><stop offset="1" stop-color="#1a0f2e" stop-opacity="0.9"/></radialGradient><linearGradient id="未命名漸層_115" x1="18.09" y1="58.75" x2="52.26" y2="64.22" gradientUnits="userSpaceOnUse"><stop offset="0.26" stop-color="#fff"/><stop offset="0.57" stop-color="#a1a1a1"/><stop offset="0.83" stop-color="#575757"/></linearGradient><linearGradient id="未命名漸層_242" x1="14.49" y1="69.88" x2="25.02" y2="75.14" gradientUnits="userSpaceOnUse"><stop offset="0.37" stop-color="#fff"/><stop offset="0.42" stop-color="#fafafa"/><stop offset="0.49" stop-color="#eaeaea"/><stop offset="0.57" stop-color="#d1d1d1"/><stop offset="0.65" stop-color="#adadad"/><stop offset="0.73" stop-color="gray"/><stop offset="0.8" stop-color="#575757"/></linearGradient><linearGradient id="未命名漸層_178" x1="68.02" y1="39.95" x2="76.22" y2="50.11" gradientUnits="userSpaceOnUse"><stop offset="0.16" stop-color="#fff"/><stop offset="0.21" stop-color="#eee"/><stop offset="0.49" stop-color="#959595"/><stop offset="0.69" stop-color="#5d5d5d"/><stop offset="0.79" stop-color="#474747"/></linearGradient><linearGradient id="未命名漸層_226" x1="72.06" y1="33.11" x2="85.98" y2="35.7" gradientUnits="userSpaceOnUse"><stop offset="0.16" stop-color="#fff"/><stop offset="0.25" stop-color="#f5f5f5"/><stop offset="0.4" stop-color="#d9d9d9"/><stop offset="0.46" stop-color="#ccc"/><stop offset="0.61" stop-color="#adadad"/><stop offset="0.68" stop-color="#9e9e9e"/><stop offset="0.87" stop-color="#595756"/><stop offset="1" stop-color="#2b2b2b"/></linearGradient><linearGradient id="未命名漸層_170" x1="20.43" y1="64.73" x2="26.15" y2="69.72" gradientUnits="userSpaceOnUse"><stop offset="0" stop-color="#575757"/><stop offset="0.05" stop-color="#555"/><stop offset="0.07" stop-color="#4e4e4e"/><stop offset="0.09" stop-color="#434343"/><stop offset="0.1" stop-color="#323232"/><stop offset="0.11" stop-color="#1c1c1c"/><stop offset="0.12" stop-color="#010101"/><stop offset="0.12"/><stop offset="0.12" stop-color="#050505"/><stop offset="0.12" stop-color="#242424"/><stop offset="0.13" stop-color="#403f40"/><stop offset="0.14" stop-color="#565556"/><stop offset="0.15" stop-color="#676667"/><stop offset="0.17" stop-color="#727172"/><stop offset="0.19" stop-color="#797879"/><stop offset="0.24" stop-color="#7b7a7b"/><stop offset="0.29" stop-color="#797879"/><stop offset="0.31" stop-color="#727172"/><stop offset="0.32" stop-color="#676667"/><stop offset="0.33" stop-color="#565556"/><stop offset="0.34" stop-color="#403f40"/><stop offset="0.35" stop-color="#242424"/><stop offset="0.36" stop-color="#050505"/><stop offset="0.36"/><stop offset="0.36" stop-color="#0a0a0a"/><stop offset="0.37" stop-color="#292929"/><stop offset="0.38" stop-color="#454445"/><stop offset="0.39" stop-color="#5b5a5b"/><stop offset="0.4" stop-color="#6c6b6c"/><stop offset="0.41" stop-color="#777677"/><stop offset="0.43" stop-color="#7e7d7e"/><stop offset="0.48" stop-color="#807f80"/><stop offset="0.54" stop-color="#7e7d7e"/><stop offset="0.56" stop-color="#777677"/><stop offset="0.57" stop-color="#6c6b6c"/><stop offset="0.58" stop-color="#5b5a5b"/><stop offset="0.59" stop-color="#454445"/><stop offset="0.6" stop-color="#292929"/><stop offset="0.61" stop-color="#0a0a0a"/><stop offset="0.61"/><stop offset="0.61" stop-color="#070707"/><stop offset="0.62" stop-color="#262626"/><stop offset="0.63" stop-color="#424142"/><stop offset="0.64" stop-color="#585758"/><stop offset="0.65" stop-color="#696869"/><stop offset="0.66" stop-color="#747374"/><stop offset="0.68" stop-color="#7b7a7b"/><stop offset="0.73" stop-color="#7d7c7d"/><stop offset="0.78" stop-color="#7b7a7b"/><stop offset="0.8" stop-color="#727172"/><stop offset="0.83" stop-color="#646464"/><stop offset="0.84" stop-color="#515051"/><stop offset="0.86" stop-color="#373637"/><stop offset="0.88" stop-color="#181818"/><stop offset="0.89"/><stop offset="0.89" stop-color="#010101"/><stop offset="0.89" stop-color="#1c1c1c"/><stop offset="0.9" stop-color="#323232"/><stop offset="0.92" stop-color="#434343"/><stop offset="0.93" stop-color="#4e4e4e"/><stop offset="0.95" stop-color="#555"/><stop offset="1" stop-color="#575757"/></linearGradient><linearGradient id="未命名漸層_170-2" x1="72.56" y1="37.59" x2="83.27" y2="40.79" xlink:href="#未命名漸層_170"/><linearGradient id="未命名漸層_277" x1="37.18" y1="62.27" x2="58.98" y2="64.93" gradientUnits="userSpaceOnUse"><stop offset="0.08" stop-color="#fff"/><stop offset="0.11" stop-color="#f6f6f6"/><stop offset="0.35" stop-color="#b2b2b2"/><stop offset="0.55" stop-color="#818181"/><stop offset="0.7" stop-color="#626262"/><stop offset="0.78" stop-color="#575757"/><stop offset="0.83" stop-color="#535353"/><stop offset="0.87" stop-color="#484848"/><stop offset="0.91" stop-color="#353535"/><stop offset="0.95" stop-color="#1a1a1a"/></linearGradient><linearGradient id="未命名漸層_296" x1="38.43" y1="62.43" x2="58.08" y2="64.82" gradientUnits="userSpaceOnUse"><stop offset="0" stop-color="#999" stop-opacity="0.3"/><stop offset="1" stop-color="#fff" stop-opacity="0"/></linearGradient><linearGradient id="未命名漸層_265" x1="34.65" y1="60.35" x2="57.49" y2="65.84" gradientUnits="userSpaceOnUse"><stop offset="0" stop-color="#575757"/><stop offset="0.15" stop-color="#8c8c8c"/><stop offset="0.31" stop-color="#bdbdbd"/><stop offset="0.45" stop-color="#e1e1e1"/><stop offset="0.57" stop-color="#f7f7f7"/><stop offset="0.64" stop-color="#fff"/><stop offset="0.69" stop-color="#fafafa"/><stop offset="0.75" stop-color="#ececec"/><stop offset="0.81" stop-color="#d5d5d5"/><stop offset="0.87" stop-color="#b5b5b5"/><stop offset="0.94" stop-color="#8c8c8c"/><stop offset="1" stop-color="#5e5e5e"/></linearGradient><radialGradient id="未命名漸層_433" cx="46.06" cy="64.5" r="2.2" gradientUnits="userSpaceOnUse"><stop offset="0" stop-color="#2015ca"/><stop offset="0.19" stop-color="#2318cb"/><stop offset="0.32" stop-color="#2c21cd"/><stop offset="0.44" stop-color="#3b31d0"/><stop offset="0.56" stop-color="#5148d6"/><stop offset="0.66" stop-color="#6c65dc"/><stop offset="0.76" stop-color="#8e89e4"/><stop offset="0.86" stop-color="#b7b3ee"/><stop offset="0.95" stop-color="#e5e3f9"/><stop offset="1" stop-color="#fff"/></radialGradient><linearGradient id="未命名漸層_436" x1="43.81" y1="64.5" x2="48.31" y2="64.5" gradientUnits="userSpaceOnUse"><stop offset="0" stop-color="#fff"/><stop offset="0.11" stop-color="#fafafe"/><stop offset="0.24" stop-color="#edecfb"/><stop offset="0.38" stop-color="#d7d5f6"/><stop offset="0.53" stop-color="#b8b5ee"/><stop offset="0.67" stop-color="#918be5"/><stop offset="0.83" stop-color="#6059d9"/><stop offset="0.98" stop-color="#281ecc"/><stop offset="1" stop-color="#2015ca"/></linearGradient><radialGradient id="未命名漸層_422" cx="51.34" cy="66.26" r="1.32" gradientUnits="userSpaceOnUse"><stop offset="0" stop-color="#00944c"/><stop offset="0.18" stop-color="#03954e"/><stop offset="0.31" stop-color="#0c9955"/><stop offset="0.43" stop-color="#1ca060"/><stop offset="0.54" stop-color="#33a970"/><stop offset="0.64" stop-color="#50b684"/><stop offset="0.74" stop-color="#74c59d"/><stop offset="0.83" stop-color="#9fd7bb"/><stop offset="0.92" stop-color="#ceebdd"/><stop offset="1" stop-color="#fff"/></radialGradient><linearGradient id="未命名漸層_415" x1="49.97" y1="66.26" x2="52.71" y2="66.26" gradientUnits="userSpaceOnUse"><stop offset="0" stop-color="#fff"/><stop offset="0.11" stop-color="#fafdfc"/><stop offset="0.23" stop-color="#ecf7f2"/><stop offset="0.36" stop-color="#d5ede2"/><stop offset="0.5" stop-color="#b5e0cb"/><stop offset="0.64" stop-color="#8bceae"/><stop offset="0.79" stop-color="#59b98a"/><stop offset="0.93" stop-color="#1ea061"/><stop offset="1" stop-color="#00944c"/></linearGradient><radialGradient id="未命名漸層_409" cx="51.48" cy="61" r="1.3" gradientUnits="userSpaceOnUse"><stop offset="0" stop-color="#e90d00"/><stop offset="0.18" stop-color="#e91003"/><stop offset="0.31" stop-color="#ea190c"/><stop offset="0.43" stop-color="#eb281c"/><stop offset="0.54" stop-color="#ed3d33"/><stop offset="0.64" stop-color="#f05950"/><stop offset="0.74" stop-color="#f37b74"/><stop offset="0.83" stop-color="#f7a39f"/><stop offset="0.92" stop-color="#fbd1ce"/><stop offset="1" stop-color="#fff"/></radialGradient><linearGradient id="未命名漸層_412" x1="49.97" y1="60.98" x2="52.71" y2="60.98" gradientUnits="userSpaceOnUse"><stop offset="0" stop-color="#fff"/><stop offset="0.11" stop-color="snow"/><stop offset="0.23" stop-color="#fdedec"/><stop offset="0.36" stop-color="#fbd7d5"/><stop offset="0.5" stop-color="#f9b9b5"/><stop offset="0.64" stop-color="#f5918b"/><stop offset="0.79" stop-color="#f16159"/><stop offset="0.93" stop-color="#ec291e"/><stop offset="1" stop-color="#e90d00"/></linearGradient><linearGradient id="未命名漸層_397" x1="23.99" y1="57.51" x2="35.29" y2="57.51" gradientUnits="userSpaceOnUse"><stop offset="0" stop-color="#f3d8c2"/><stop offset="0.15" stop-color="#eacfba"/><stop offset="0.4" stop-color="#d0b8a3"/><stop offset="0.52" stop-color="#c1aa96"/><stop offset="0.79" stop-color="#a38d72"/><stop offset="0.99" stop-color="#81725e"/></linearGradient><linearGradient id="未命名漸層_399" x1="70.78" y1="43.34" x2="74.46" y2="48.32" gradientUnits="userSpaceOnUse"><stop offset="0" stop-color="#f3d8c2"/><stop offset="0.1" stop-color="#eacfb9"/><stop offset="0.27" stop-color="#d0b8a2"/><stop offset="0.43" stop-color="#b39d87"/><stop offset="0.72" stop-color="#8e7458"/><stop offset="0.99" stop-color="#716250"/></linearGradient><linearGradient id="未命名漸層_399-2" x1="43.69" y1="63.65" x2="49.66" y2="71.74" xlink:href="#未命名漸層_399"/></defs><g class="cls-1"><g id="圖層_2" data-name="圖層 2"><path class="cls-2" d="M50,77.71v13.2s-1.76,7-18.49,2.64V91.79l0-.05c0-.12-.13-.45-.23-.9a8.94,8.94,0,0,1-.06-4.47c0-.09.07-.19.11-.26s.08-.17.11-.25l.14-.24.12-.17a3.25,3.25,0,0,1,.23-.29,2.5,2.5,0,0,1,.34-.31l.06,0,.08-.06V76.39Z"/><path class="cls-3" d="M48.7,88.71c0,4.4-7.56,4.4-11.45,4.4-2.25,0-4.42-.31-5.74-1.37,0-.12-.13-.45-.23-.9a8.94,8.94,0,0,1-.06-4.47c0-.09.07-.19.11-.26s.08-.17.11-.25l.14-.24.12-.17a3.25,3.25,0,0,1,.23-.29,2.5,2.5,0,0,1,.34-.31l.06,0a8.91,8.91,0,0,1,4.92-1.38C41.14,83.43,48.7,85.19,48.7,88.71Z"/><path class="cls-4" d="M50,89.64v1.27s-1.76,7-18.49,2.64V91.79S45.62,95.42,50,89.64Z"/><path class="cls-5" d="M68.06,77.71v13.2s-1.76,7-18.48,2.64V91.79l0-.05c0-.12-.13-.45-.23-.9a8.94,8.94,0,0,1-.06-4.47c0-.09.07-.19.1-.26s.08-.17.12-.25l.13-.24a1.36,1.36,0,0,0,.12-.17,3.25,3.25,0,0,1,.23-.29,2.59,2.59,0,0,1,.35-.31.09.09,0,0,1,.06,0l.08-.06V78.59Z"/><path class="cls-6" d="M66.74,88.71c0,4.4-7.55,4.4-11.44,4.4-2.25,0-4.42-.31-5.74-1.37,0-.12-.13-.45-.23-.9a8.94,8.94,0,0,1-.06-4.47c0-.09.07-.19.1-.26s.08-.17.12-.25l.13-.24a1.36,1.36,0,0,0,.12-.17,3.25,3.25,0,0,1,.23-.29,2.59,2.59,0,0,1,.35-.31.09.09,0,0,1,.06,0,8.91,8.91,0,0,1,4.92-1.38C59.19,83.43,66.74,85.19,66.74,88.71Z"/><path class="cls-7" d="M68.06,89.64v1.27s-1.76,7-18.48,2.64V91.79S63.66,95.42,68.06,89.64Z"/><path class="cls-8" d="M31.42,73.08a5.69,5.69,0,0,0,1,4.19s11.89,4,17.17,1.32c0,0,15,2.64,18.48-.88V76a8.19,8.19,0,0,0,.79-3.12,3.07,3.07,0,0,0-.59-1.94,2.09,2.09,0,0,0-.2-.22s1.76-1.77.88-3.53c0,0,.88-2.64,0-3.52l.88-1.76-2.64-15-37,.88.12,2.94s3.4,4.1,2.52,8.5c0,0-1.76.88-1.76,6.16,0,0-.88,1.76,0,2.64a2.05,2.05,0,0,0,.41,3.17Z"/><path class="cls-9" d="M28.67,48.19a2.13,2.13,0,0,0,1,2.19c2.51,1.46,8.94,4.22,20.74,3.56,15.84-.88,17.6-5.28,17.6-5.28l-.63-4-38.1-.36Z"/><path class="cls-10" d="M56.84,71.21l-15,.77a1.09,1.09,0,0,1-1.13-1L40,58.1a1.1,1.1,0,0,1,1-1.18l15-.78a1.09,1.09,0,0,1,1.13,1L57.86,70A1.1,1.1,0,0,1,56.84,71.21Z"/><path class="cls-11" d="M71.58,28.41s5.29-.88,5.29,2.64l-1.76,8.81H69.82Z"/><path class="cls-12" d="M23.17,29.29a39.11,39.11,0,0,0-3.9.62,1.35,1.35,0,0,0-1.07,1.63l2.09,9.06a1.15,1.15,0,0,0,1.27.87l5.13-.73Z"/><path class="cls-13" d="M72.46,28c0,12.89-5.28,23.33-23.32,23.33-19.81,0-26-10-26-22.89s13.08-23.77,26-23.77A23.33,23.33,0,0,1,72.46,28Z"/><path class="cls-14" d="M72.46,29.29c0,16.07-9.45,19.37-21.12,19.37-15,0-23.77-6.91-23.77-17.61s12.1-22,23.77-22S72.46,17,72.46,29.29Z"/><path class="cls-15" d="M36.37,51.3l-.88,7-.2.45-.9,2L31.09,68c-3.52,2.65-4.4,1.77-4.4,1.77-1.76,1.76-1.76.88-1.76.88-.88-3.53-5.28-4.41-5.28-4.41.12-.72.26-1.41.43-2.08A27.32,27.32,0,0,1,24,55.38c.27-.39.53-.76.8-1.11h0a20.81,20.81,0,0,1,3.65-3.85l.88-.88Z"/><path class="cls-16" d="M24.05,70.67s-1.76,3.52-2.64,3.52v4.4s-1.76,1.76-2.64,0-4.4-5.28-2.64-7.92c0,0,1.76-4.41,3.52-4.41s5.74,1.38,5.07,3.77Z"/><path class="cls-17" d="M83.47,39.42,83,42.5a47.16,47.16,0,0,1-3.35,10c-.37.78-.75,1.5-1.13,2.15-4.19,7.16-8.73,7.16-8.73,7.16l-2.64-15a10.79,10.79,0,0,0,2.31-2.49,16.57,16.57,0,0,0,1.15-1.9,24.6,24.6,0,0,0,1.62-3.77c.13-.41.2-.65.2-.65l.88-1.76A11.55,11.55,0,0,0,83.47,39.42Z"/><path class="cls-18" d="M83.93,35.34s1.68-3.56-.1-4.4c0,0-.94-2.62-2.66-.82,0,0-.06-2.64-1.78-.84,0,0-.94-2.62-2.62.94L76,33.76s-2.74-4.34-2.64.06l.06,2.64s3.66,6.08,9.76,3.3Z"/><path class="cls-19" d="M26.69,69.79c-1.76,1.76-1.76.88-1.76.88-.88-3.53-5.28-4.41-5.28-4.41.12-.72.26-1.41.43-2.08C21.9,64.51,26,65.7,26.69,69.79Z"/><path class="cls-20" d="M83.47,39.05v2.13c-3.91,1.38-10-1.86-11.21-2.73.13-.36.2-.57.2-.57l.88-1.55A12.73,12.73,0,0,0,83.47,39.05Z"/><path class="cls-21" d="M56.38,70.72,41,71.49a1.1,1.1,0,0,1-1.16-1L39.08,57.7a1.1,1.1,0,0,1,1.05-1.17l15.39-.77a1.1,1.1,0,0,1,1.16,1l.75,12.75A1.1,1.1,0,0,1,56.38,70.72Z"/><path class="cls-22" d="M54.25,68.74l-11.36.57a.67.67,0,0,1-.71-.63l-.56-9.46a.68.68,0,0,1,.64-.72l11.37-.57a.69.69,0,0,1,.71.64L54.89,68A.67.67,0,0,1,54.25,68.74Z"/><circle class="cls-23" cx="46.06" cy="64.5" r="2.2"/><circle class="cls-24" cx="51.34" cy="60.98" r="1.32"/><circle class="cls-25" cx="51.34" cy="66.26" r="1.32"/><circle class="cls-24" cx="51.34" cy="60.98" r="1.32"/><circle class="cls-26" cx="51.34" cy="60.98" r="1.32"/><path class="cls-27" d="M35.29,58.79l-.9,2A73.36,73.36,0,0,1,24,55.38c.27-.39.53-.76.8-1.11h0s7.61,4.51,10.25,4.51Z"/><path class="cls-28" d="M79.68,52.55c-.37.78-.75,1.5-1.13,2.15-3-3.15-7.44-7.82-9.06-10.29a16.57,16.57,0,0,0,1.15-1.9A103.35,103.35,0,0,0,79.68,52.55Z"/><path class="cls-29" d="M68.85,72.83c-6.51,1.8-15.78,4.21-19.71,3.56-4.18-.7-13-2-17.72-3.31a10.86,10.86,0,0,1,.11-2c4.59,1.38,15.85,4.4,18.49,4.4,0,0,12.32-1.54,18.24-4.62A3.07,3.07,0,0,1,68.85,72.83Z"/><path d="M57.78,54.55a.3.3,0,0,0,.09.13.8.8,0,0,0,.16.08l.2.05.22,0,.27,0A.78.78,0,0,1,59,55a.7.7,0,0,1,.17.13.53.53,0,0,1,.13.19.45.45,0,0,1,0,.25.39.39,0,0,1-.07.23.52.52,0,0,1-.18.18.9.9,0,0,1-.3.12.84.84,0,0,1-.27,0l-.27,0A.6.6,0,0,1,58,56a.12.12,0,0,1-.05-.13.09.09,0,0,1,.08,0,.31.31,0,0,1,.13,0l.27,0a1,1,0,0,0,.29,0,.44.44,0,0,0,.17-.07.43.43,0,0,0,.12-.11.44.44,0,0,0,0-.15.23.23,0,0,0,0-.16.33.33,0,0,0-.1-.14l-.15-.09-.17-.05-.18,0-.3,0-.26-.07a.53.53,0,0,1-.19-.13.5.5,0,0,1-.13-.21.42.42,0,0,1,.07-.42.61.61,0,0,1,.17-.14A.9.9,0,0,1,58,54a1.15,1.15,0,0,1,.26,0l.23,0a.34.34,0,0,1,.16.08.09.09,0,0,1,0,.11s0,.05-.07.06h-.12l-.2-.05a.54.54,0,0,0-.22,0,.36.36,0,0,0-.25.14A.23.23,0,0,0,57.78,54.55Z"/><path d="M60.61,54.47a.57.57,0,0,0-.25-.29.52.52,0,0,0-.35,0,.71.71,0,0,0-.16.07.46.46,0,0,0-.12.12.38.38,0,0,0,0,.36c.12.28.26.56.39.84,0,.07,0,.12-.08.14h-.1a.12.12,0,0,1-.08-.06c-.31-.65-.6-1.3-.85-2a.11.11,0,0,1,0-.08.13.13,0,0,1,.09,0c.08,0,.13,0,.15.07l.33.77a.28.28,0,0,1,0-.12.26.26,0,0,1,.08-.13.65.65,0,0,1,.12-.11L60,54a1,1,0,0,1,.24,0,.85.85,0,0,1,.23,0,.63.63,0,0,1,.2.13.49.49,0,0,1,.16.21c.15.3.3.6.46.89,0,.07,0,.12-.07.15a.13.13,0,0,1-.18-.06C60.88,55,60.74,54.74,60.61,54.47Z"/><path d="M62.73,54.39a.56.56,0,0,1-.07.3.56.56,0,0,1-.28.21.71.71,0,0,1-.32.07.85.85,0,0,1-.31-.06.91.91,0,0,1-.27-.18.86.86,0,0,1-.21-.29.76.76,0,0,1-.12-.37.59.59,0,0,1,0-.3.48.48,0,0,1,.15-.22.87.87,0,0,1,.25-.15.63.63,0,0,1,.66.13c0-.07-.07-.14-.11-.2a.1.1,0,0,1,0-.09.12.12,0,0,1,.07-.07.09.09,0,0,1,.1,0,.13.13,0,0,1,.07.06c.23.41.46.82.71,1.22a.09.09,0,0,1,0,.08s0,.06-.07.08a.17.17,0,0,1-.12,0,.11.11,0,0,1-.07-.06A1,1,0,0,1,62.73,54.39Zm-1.21,0a.72.72,0,0,0,.36.35.57.57,0,0,0,.46,0,.52.52,0,0,0,.18-.13.37.37,0,0,0,.08-.18.53.53,0,0,0,0-.21.72.72,0,0,0-.1-.22.8.8,0,0,0-.15-.21.62.62,0,0,0-.19-.14.58.58,0,0,0-.21-.07.6.6,0,0,0-.22,0,.56.56,0,0,0-.2.12.51.51,0,0,0-.09.18.81.81,0,0,0,0,.22A1.18,1.18,0,0,0,61.52,54.35Z"/><path d="M64.28,53.55a.59.59,0,0,1,0,.29.56.56,0,0,1-.25.23.9.9,0,0,1-.23.08.49.49,0,0,1-.24,0,.47.47,0,0,1-.22-.09.59.59,0,0,1-.18-.2c-.16-.26-.31-.52-.46-.78,0-.06,0-.11.06-.15s.13,0,.16,0l.42.7a.46.46,0,0,0,.29.24.45.45,0,0,0,.33-.05.71.71,0,0,0,.14-.1.34.34,0,0,0,.1-.32.5.5,0,0,0-.09-.2c-.14-.22-.28-.44-.41-.66a.09.09,0,0,1,0-.15.2.2,0,0,1,.1,0,.18.18,0,0,1,.07,0c.25.41.52.82.8,1.22a.52.52,0,0,1,.1.23.47.47,0,0,1,0,.23.65.65,0,0,1-.16.22,1,1,0,0,1-.27.2,1.28,1.28,0,0,1-.33.11,1.05,1.05,0,0,1-.31,0,.13.13,0,0,1-.09,0,.15.15,0,0,1,0-.08.09.09,0,0,1,0-.07.14.14,0,0,1,.11,0,.66.66,0,0,0,.24,0,1,1,0,0,0,.27-.1.64.64,0,0,0,.29-.27.27.27,0,0,0,0-.3Z"/><path d="M65.45,52.14a.48.48,0,0,0-.28-.23.39.39,0,0,0-.3.07.58.58,0,0,0-.12.1.42.42,0,0,0-.09.14.47.47,0,0,0,0,.17.36.36,0,0,0,.08.18c.17.26.35.51.53.76a.09.09,0,0,1,0,.15.13.13,0,0,1-.1,0,.1.1,0,0,1-.08,0c-.28-.39-.55-.78-.8-1.18a.09.09,0,0,1,0-.08.12.12,0,0,1,.07-.07.11.11,0,0,1,.16,0l.09.15a.71.71,0,0,1,0-.14.43.43,0,0,1,0-.14.51.51,0,0,1,.09-.13.47.47,0,0,1,.13-.11.67.67,0,0,1,.21-.1.69.69,0,0,1,.2,0,.5.5,0,0,1,.2.08.64.64,0,0,1,.19.18c.19.27.39.53.6.79,0,.06,0,.11,0,.16s-.13,0-.17,0Z"/><path d="M67.11,52.25a.79.79,0,0,1-.31.14.76.76,0,0,1-.3,0,.79.79,0,0,1-.28-.13A1.25,1.25,0,0,1,66,52a1.12,1.12,0,0,1-.16-.28.79.79,0,0,1,0-.3.55.55,0,0,1,.07-.28.7.7,0,0,1,.2-.23.85.85,0,0,1,.26-.12.69.69,0,0,1,.25,0,.86.86,0,0,1,.24.11,1.19,1.19,0,0,1,.2.19.42.42,0,0,1,.08.14.13.13,0,0,1-.06.11c-.25.19-.51.39-.78.58a.44.44,0,0,0,.14.13.66.66,0,0,0,.19.09.72.72,0,0,0,.21,0,.4.4,0,0,0,.2-.09.56.56,0,0,0,.25-.4.08.08,0,0,1,0-.07s0,0,0,0h.08a.12.12,0,0,1,0,.08.43.43,0,0,1,0,.16,1,1,0,0,1-.1.21A1,1,0,0,1,67.11,52.25Zm-.27-1-.14-.14a.54.54,0,0,0-.16-.1.52.52,0,0,0-.18,0,.41.41,0,0,0-.19.09.39.39,0,0,0-.15.17.69.69,0,0,0,0,.2.61.61,0,0,0,.05.18.83.83,0,0,0,.09.16Z"/></g></g></svg>