<svg xmlns="http://www.w3.org/2000/svg" viewBox="0 0 40 40"><defs><style>.cls-1{isolation:isolate;}.cls-2,.cls-4{fill:#d4d4d4;}.cls-18,.cls-21,.cls-3,.cls-5,.cls-7{fill:#fff;}.cls-3{opacity:0.3;}.cls-14,.cls-19,.cls-22,.cls-24,.cls-25,.cls-4,.cls-8,.cls-9{mix-blend-mode:multiply;}.cls-5{opacity:0.33;}.cls-6,.cls-8{fill:#d1d2d0;}.cls-7{opacity:0.34;}.cls-9{fill:#ffa446;}.cls-10{fill:#ffd55e;}.cls-11{fill:#ffad4e;}.cls-12{fill:#ffde5b;}.cls-13,.cls-14{fill:#c40002;}.cls-15,.cls-16{fill:#cc000a;}.cls-16{opacity:0.39;}.cls-16,.cls-26{mix-blend-mode:color-dodge;}.cls-17,.cls-19{fill:#f7f7f7;}.cls-20,.cls-22{fill:#4c4c4c;}.cls-21{opacity:0.22;}.cls-22{opacity:0.69;}.cls-23,.cls-24{fill:#636363;}.cls-24{opacity:0.73;}.cls-25,.cls-26{fill:#4f7bec;}.cls-26{opacity:0.29;}</style></defs><g class="cls-1"><g id="圖層_2" data-name="圖層 2"><path class="cls-2" d="M29.1,23.84,29,25.19l-.17,1.67L8.24,24.64,6.71,23.08a.48.48,0,0,1-.11-.19.34.34,0,0,1,.11-.32A22.4,22.4,0,0,1,9,21.3Z"/><path class="cls-3" d="M6.73,23.06a26.65,26.65,0,0,1,2.51-1.38L29.09,24v-.12L9,21.3a22.4,22.4,0,0,0-2.33,1.27.34.34,0,0,0-.11.32.48.48,0,0,0,.11.19h0Z"/><path class="cls-4" d="M29,25.19l-.17,1.67L8.24,24.64,6.71,23.08a.48.48,0,0,1-.11-.19Z"/><path class="cls-2" d="M29.62,19.41l-.24,2.08L29.07,24,5.18,21,2.88,19.2a.94.94,0,0,1-.22-.44.68.68,0,0,1,.23-.59A11.38,11.38,0,0,1,5.22,16.9Z"/><path class="cls-5" d="M2.91,18.66A11.71,11.71,0,0,1,5.3,17.33L27.54,19.2,5.22,16.9a11.38,11.38,0,0,0-2.33,1.27.68.68,0,0,0-.23.59.64.64,0,0,0,.06.18A.66.66,0,0,1,2.91,18.66Z"/><path class="cls-6" d="M29.9,16.59l.24,1.24v0l-.53,1.54-20.29-2-2-1.56,0-.05a.26.26,0,0,1-.07-.15.34.34,0,0,1,.1-.32,15.8,15.8,0,0,1,2.07-1Z"/><path class="cls-7" d="M7.43,16a.35.35,0,0,1,.11-.32,15.8,15.8,0,0,1,2.07-1L30,16.82l-.05-.23L9.35,14.36a15.8,15.8,0,0,0-2.07,1,.34.34,0,0,0-.1.32.26.26,0,0,0,.07.15l0,.05.18.14Z"/><path class="cls-8" d="M30.14,17.83v0l-.53,1.54-20.29-2-2-1.56,0-.05a.26.26,0,0,1-.07-.15Z"/><path class="cls-9" d="M35.19,26.11l0,0c-5.17,3.05-5.92-.3-5.92-.3v-.52C32,22.7,34.84,25.71,35.19,26.11Z"/><path class="cls-4" d="M29.38,21.49,29.07,24,5.18,21,2.88,19.2a.94.94,0,0,1-.22-.44Z"/><path class="cls-10" d="M33.94,25.88s-2.16-2.33-4.17-.42l0,.34S30.58,28.16,33.94,25.88Z"/><path class="cls-11" d="M39.37,22.58s-2.81-2.85-4.86-2.87-3.35.23-4.39,1.76a3.22,3.22,0,0,0,3,3,3.87,3.87,0,0,0,1.85-.13C36.22,24,38.79,23.15,39.37,22.58Z"/><path class="cls-12" d="M37.57,22.31l-2.41-1.56a2.08,2.08,0,0,0-1-.33c-.94-.08-2.79-.07-3.56,1.06a2.66,2.66,0,0,0,1.71,2.05,3.25,3.25,0,0,0,2.45,0C35.63,23.15,36.91,22.63,37.57,22.31Z"/><path class="cls-11" d="M35.8,18.43l-1.68-1.28a2,2,0,0,0-.9-.38c-.86-.14-2.5-.19-3.07,1.1a2.81,2.81,0,0,0,2.94,1.89A10.39,10.39,0,0,0,35.8,18.43Z"/><path class="cls-12" d="M34.77,18.43a8.64,8.64,0,0,1-1.28-.79c-.25-.25-2.3-.79-2.83.24,0,0,0,1,1.79,1.3A5.87,5.87,0,0,0,34.77,18.43Z"/><polygon class="cls-13" points="16.22 22.9 16.21 24.19 21.6 25.26 27.48 29.68 28.04 24.54 16.22 22.9"/><polygon class="cls-14" points="16.22 22.9 16.21 24.19 21.6 25.26 27.48 29.68 28.04 24.54 16.22 22.9"/><polygon class="cls-15" points="16.78 17.25 17.05 15.97 22.96 16.27 29.42 12.98 28.86 18.12 16.78 17.25"/><polygon class="cls-16" points="17.31 16.23 23.22 16.53 29.37 13.39 29.42 12.98 22.96 16.27 17.05 15.97 16.78 17.25 17.09 17.27 17.31 16.23"/><path class="cls-17" d="M29.89,18.13l-.38,3.2-.45,3.74L13.4,23.15S10.88,21,10.76,19.7h0s0-.05,0-.07v0a.81.81,0,0,1,0-.16h0c.33-1.29,3.16-2.82,3.16-2.82Z"/><path class="cls-18" d="M12.54,22.35A5.09,5.09,0,0,1,11,20h0a.17.17,0,0,1,0-.07v0a.81.81,0,0,1,0-.16h0c.32-1.29,3.15-2.82,3.15-2.82l15.67,1.48,0-.23L13.94,16.62s-2.83,1.53-3.16,2.82h0a.81.81,0,0,0,0,.16v0s0,.05,0,.07h0A5.69,5.69,0,0,0,12.54,22.35Z"/><path class="cls-19" d="M29.51,21.33l-.45,3.74L13.4,23.15S10.88,21,10.76,19.7h0s0-.05,0-.07v0Z"/><polygon class="cls-20" points="28.53 27.12 29.91 16.07 30.94 16.08 29.56 27.64 28.53 27.12"/><polyline class="cls-21" points="29.56 27.64 30.94 16.08 29.91 16.07 29.91 16.07 30.68 16.34"/><polygon class="cls-22" points="29.05 26.61 30.36 16.08 29.91 16.07 28.53 27.12 29.56 27.64 29.64 26.91 29.05 26.61"/><polygon class="cls-23" points="30.36 24.3 30.91 19.17 30.56 19.1 29.92 24.22 30.36 24.3"/><polygon class="cls-24" points="30.18 23.96 30.78 19.14 30.56 19.1 29.92 24.22 30.36 24.3 30.39 24 30.18 23.96"/><path class="cls-25" d="M14.65,17.77,14.37,20l-.26,2.07L12.64,20.3a.71.71,0,0,1-.22-.49.85.85,0,0,1,.23-.54Z"/><path class="cls-26" d="M12.67,20.07a.84.84,0,0,1,.24-.54l1.67-1.26.07-.5-2,1.5a.85.85,0,0,0-.23.54.71.71,0,0,0,.22.49"/><path class="cls-25" d="M14.37,20l-.26,2.07L12.64,20.3a.71.71,0,0,1-.22-.49Z"/><path d="M18,21.35l-.5-2.19h0l-.24,2.1-.35,0,.27-2.39.59.07L18.2,21h0l.88-1.92.61.07-.28,2.39-.36,0,.24-2.1h0c-.06.18-.38.85-.95,2Z"/><path d="M21.36,19.28a1.18,1.18,0,0,1,1,1.38,1.13,1.13,0,0,1-1.32,1.07,1.11,1.11,0,0,1-1-1.34A1.15,1.15,0,0,1,21.36,19.28Zm-.28,2.16c.5,0,.8-.24.89-.83s-.18-.92-.66-1-.79.27-.89.84S20.6,21.35,21.08,21.44Z"/><path d="M24.77,22.13l-.47-.06L23.68,21l-.54-.06-.12,1-.36,0,.27-2.38,1.11.12c.53.08.79.34.77.79a.65.65,0,0,1-.74.61Zm-1.51-2.3-.09.81.66.08c.37,0,.57-.07.6-.34s-.14-.43-.5-.47Z"/><path d="M26.89,22.37l-1.83-.21.27-2.39,1.78.21,0,.3-1.41-.16-.08.71,1.33.15,0,.3-1.33-.15-.09.78,1.46.17Z"/></g></g></svg>