<svg xmlns="http://www.w3.org/2000/svg" xmlns:xlink="http://www.w3.org/1999/xlink" viewBox="0 0 50 50"><defs><style>.cls-1,.cls-12{fill:none;}.cls-2{isolation:isolate;}.cls-3{fill:#ead0c2;}.cls-4{fill:#8e8d8d;}.cls-11,.cls-5,.cls-7{fill:#433e3f;}.cls-5{opacity:0.2;}.cls-11,.cls-12,.cls-13,.cls-5{mix-blend-mode:multiply;}.cls-6{fill:#fff;}.cls-8{fill:#464041;}.cls-9{fill:#f4f0ed;}.cls-10{fill:#5b5a5d;}.cls-12{stroke:#000;stroke-miterlimit:10;stroke-width:0.15px;}.cls-12,.cls-13{opacity:0.07;}.cls-14{fill:#ea1548;}.cls-15{fill:#7f7f7f;opacity:0.11;}.cls-16{clip-path:url(#clip-path);}.cls-17{fill:#db1f17;}.cls-18{fill:#feff03;}</style><clipPath id="clip-path"><rect class="cls-1" x="29.87" y="34.72" width="4.49" height="2.59" transform="translate(-3.29 3.23) rotate(-5.47)"/></clipPath></defs><g class="cls-2"><g id="圖層_2" data-name="圖層 2"><path class="cls-3" d="M12.87,32.94l1.92,7c.05.18.49,2.26,3.47,4.36l2.63,2a9.1,9.1,0,0,0,2.5,1.28,7.81,7.81,0,0,0,1.76.31,7.08,7.08,0,0,0,4.38-1.43l2.95-2.18a8.62,8.62,0,0,0,2.93-4.32L37.46,33a.91.91,0,0,0,0-.23V26.44L37,21.34c0-.43-.92-3.16-1.43-3.22l-12.89.8H16.62c-.44,0-1.78-.6-2-.26L12.52,25.7l0,.09-.28,5.33a.66.66,0,0,0,.06.34l.56,1.39A.16.16,0,0,1,12.87,32.94Z"/><path class="cls-4" d="M11.23,19.63s0,8.44.36,9.08a23,23,0,0,0,1.34,2s-.31-5.79,1.13-6.26.66-3.62.59-3.88a1,1,0,0,1,.27-.95c.27-.23-3.46-1.29-3.46-1.29A6.64,6.64,0,0,0,11.23,19.63Z"/><path class="cls-4" d="M38.74,19.63s0,8.44-.36,9.08-1.34,2-1.34,2,.31-5.79-1.13-6.26-.67-3.62-.59-3.88a1,1,0,0,0-.28-.95c-.26-.23,3.47-1.29,3.47-1.29A7.54,7.54,0,0,1,38.74,19.63Z"/><path class="cls-5" d="M38.13,17.59l.38.38v.71L35.05,20,32.12,21l.11-.94-2.82,1.25S30,19.49,28.25,21l-.56.56-.16-.47-.68.95-.25-.57-.77.75-.39-.52a3.39,3.39,0,0,0-.11.52c0,.14-.74-.88-.74-.88l.19,1.27L22.4,20.89s-.68-.27-.57.71c0,0-2.65-1.73-3.13-1.57s.25,1.16.46,1.27S18,20.64,18,20.64s-.31,0-.22.48l-2.23-.95-.57-.2-3-.94-.42-.35.1-1.3"/><path class="cls-6" d="M27.55,31.43V32l1.16.39s1.82.24,2.07.25,1.83-.15,1.91-.19.22,0,.59-.17l.65-.42a1.4,1.4,0,0,0,0-.32,4.91,4.91,0,0,0-6.41-.22Z"/><path d="M32.27,30.61s.33,1.82-1.24,1.91-1.91-.43-1.89-1.91A3.58,3.58,0,0,1,32.27,30.61Z"/><path d="M27.55,32v-.52c3.77-2.51,6,.11,6,.11l-.26.69.63-.4,0,0,.23-.15L34,31.49a4.91,4.91,0,0,0-6.41-.22l-.15.11Z"/><path d="M27.55,32a9.39,9.39,0,0,0,5.73.28A8,8,0,0,1,27.55,32Z"/><path class="cls-7" d="M11.23,17.28l-.65-2,1.22.4s.56-.73.49-1.16a18.06,18.06,0,0,1,.24-2.37l.82.39S14.77,8.34,15.63,8c0,0,0,1.42.3,1.61s1.28-2.14,2.14-2.11S19.26,6,19.52,5.54c0,0,.33.06.5,1.55l2.11-3.2s.1,2.61.53,2.94A6.81,6.81,0,0,0,24,4.25a4.53,4.53,0,0,0,0-2.11,23.19,23.19,0,0,1,1.48,4.29c.23,1.52,1.65-3.6,1.65-3.6s.76,4.75,1.48,4.89.76-2.21.73-2.68,2.87,2.84,3.45,4.39l-.55-2.77s4.58,3.76,4.66,6.23L38,12.37a9.24,9.24,0,0,1-.17,2.24l1.39,1.15a6.11,6.11,0,0,0-.48,1.39c.08.13.84,1.06.84,1.06l-.23.29-.5-.16h-.34L35,19.63,32.11,20.7l.11-.94L29.41,21s.61-1.86-1.16-.34l-.57.56-.16-.47-.68.95-.25-.57-.77.75-.38-.52a3.15,3.15,0,0,0-.12.52c0,.14-.73-.88-.73-.88l.19,1.27L22.4,20.55s-.68-.27-.57.71c0,0-2.65-1.73-3.13-1.57s.25,1.16.45,1.27L18,20.3s-.32,0-.23.48l-2.22-1-.58-.2-3.05-.94-.41-.35-.5.22-.52-.48L11,17.9l-.55-.52Z"/><path d="M24,44.24c.36,0,.7.06,1,0a9.21,9.21,0,0,0,1,0,1.81,1.81,0,0,1-1,.3A1.88,1.88,0,0,1,24,44.24Z"/><path d="M23.14,39.33a.34.34,0,0,1,.4-.18,1.74,1.74,0,0,1,.41.2,8.16,8.16,0,0,0,.8.36c.25.13.44,0,.71-.17l.78-.42,0,0a.3.3,0,0,1,.33-.11.82.82,0,0,1,.28.14.73.73,0,0,0-.29-.07.23.23,0,0,0-.2.1h0l0,0c-.24.17-.48.34-.73.5a3.76,3.76,0,0,1-.41.23.64.64,0,0,1-.51,0,4.11,4.11,0,0,1-.8-.43,3.31,3.31,0,0,0-.35-.25A.28.28,0,0,0,23.14,39.33Z"/><path class="cls-3" d="M12.93,30.72s-1.29-3.64-3.2-1.55c-1.43,1.57.11,4.11.3,4.36l2.63,4.65s1.1,1.43,1.67.3.2-.67.2-.67Z"/><path class="cls-8" d="M22.37,29.13l-3.64-1.32a1.52,1.52,0,0,0-1.76.26,7.18,7.18,0,0,1-1.26,1.06,17.7,17.7,0,0,1,2.55,0c1.09.11,3.86.73,3.86.73S22.57,29.47,22.37,29.13Z"/><path class="cls-8" d="M16.81,27.85a11.61,11.61,0,0,1-1.75,1.4"/><path class="cls-8" d="M17.17,27.77a12.61,12.61,0,0,1-1.79,1.48"/><circle class="cls-6" cx="29.84" cy="31" r="0.26"/><path d="M13.08,31.59s-1.53-2-2.38-1.43a2.14,2.14,0,0,0-.56,2.28S9.87,28.08,13.08,31.59Z"/><path d="M11.56,35s1.3,2.19,2.2,1.88C13.76,36.91,12.86,37.61,11.56,35Z"/><path class="cls-8" d="M27.16,29.13l3.64-1.32a1.52,1.52,0,0,1,1.76.26,7.66,7.66,0,0,0,1.26,1.06,17.55,17.55,0,0,0-2.54,0c-1.09.11-3.86.73-3.86.73S27,29.47,27.16,29.13Z"/><path class="cls-8" d="M32.73,27.85a11.44,11.44,0,0,0,1.74,1.4"/><path class="cls-8" d="M32.36,27.77a12.23,12.23,0,0,0,1.8,1.48"/><path class="cls-9" d="M24.59,36.91l.4,1.77-.83-.41a.2.2,0,0,1-.1-.27A5.79,5.79,0,0,1,24.59,36.91Z"/><polygon class="cls-9" points="14.9 35.08 15.87 39.93 15.55 39.37 14.65 34.75 14.9 35.08"/><path class="cls-9" d="M17.83,27.24a.5.5,0,0,0-.74.08C16.72,27.73,17.37,27.1,17.83,27.24Z"/><polygon points="11.56 32.06 11.23 32.74 12.21 33.72 11.89 34.75 11.99 33.72 10.99 32.64 11.56 32.06"/><polygon class="cls-10" points="14.65 13.93 14.65 16.22 15.06 17.38 13.97 16.26 14.65 13.93"/><path class="cls-10" d="M16.68,14.39s-.18-3.5,2.39-4.67c0,0-.56,3.42.17,3.81a1.48,1.48,0,0,1-.93-1.32S17.48,12.07,16.68,14.39Z"/><path class="cls-10" d="M20.82,10.5S23.08,11,23,12.9a1.53,1.53,0,0,0-1.07-.85s-.89.22-.89.85A2.91,2.91,0,0,0,20.82,10.5Z"/><path class="cls-10" d="M21.67,15.22s1,.84.88,1.76l-.88-.7A1.68,1.68,0,0,0,21.67,15.22Z"/><path class="cls-10" d="M17.17,15.55s.57,1.86,1,2l-1.34-.86S16.72,15.9,17.17,15.55Z"/><path class="cls-10" d="M19.24,16.32l.89,2-1.29-1A3.81,3.81,0,0,1,19.24,16.32Z"/><path class="cls-11" d="M18.56,19.85c-.2.19.07.67.31,1l.28.15C19,20.87,18.47,20.18,18.56,19.85Z"/><polygon class="cls-11" points="11.3 17.48 11.01 16.6 11.23 17.28 10.44 17.38 10.63 17.56 11.3 17.48"/><path class="cls-11" d="M17.76,20.45a.33.33,0,0,0-.08.31l0,0A.45.45,0,0,1,17.76,20.45Z"/><path class="cls-11" d="M29.32,5.83a15.62,15.62,0,0,1,3.14,4.11l-.35-1.72C31.06,6.61,29.29,4.68,29.32,5,29.33,5.18,29.33,5.48,29.32,5.83Z"/><path class="cls-11" d="M11.86,15.93s.55-.7.48-1.11a16.8,16.8,0,0,1,.24-2.28l.81.38s1.39-4,2.23-4.4c0,0,0,1.36.29,1.55S17.18,8,18,8s1.17-1.36,1.42-1.83c0,0,.33.06.49,1.49L22,4.62s.1,2.51.52,2.82A6.42,6.42,0,0,0,23.83,5c0-.12,0-.23.05-.34a7.35,7.35,0,0,1-1.22,2.2c-.43-.33-.53-2.94-.53-2.94L20,7.09c-.17-1.49-.5-1.55-.5-1.55-.26.49-.59,1.94-1.45,1.91s-1.81,2.31-2.14,2.11S15.63,8,15.63,8c-.86.39-2.28,4.58-2.28,4.58l-.82-.39a18.06,18.06,0,0,0-.24,2.37c.07.43-.49,1.16-.49,1.16l-1.22-.4.09.28Z"/><path class="cls-11" d="M22,20.61c-.14,0-.27.19-.25.57l.12.08C21.79,20.89,21.86,20.7,22,20.61Z"/><path class="cls-11" d="M24.08,3.52a18.19,18.19,0,0,1,1.2,3.54c.22,1.46,1.62-3.45,1.62-3.45s.74,4.56,1.46,4.69c.28,0,.45-.29.56-.73a.35.35,0,0,1-.33.15c-.72-.14-1.48-4.89-1.48-4.89S25.69,8,25.46,6.43A23.19,23.19,0,0,0,24,2.14,4.1,4.1,0,0,1,24.08,3.52Z"/><polygon class="cls-11" points="11.06 18.07 10.9 17.93 10.44 18.08 10.6 18.23 11.06 18.07"/><polygon class="cls-11" points="34.69 19.73 32.12 20.66 32.11 20.7 35.04 19.63 37.69 18.65 34.69 19.73"/><path class="cls-11" d="M28,20.73l-.38.37,0,.13.57-.56a3.38,3.38,0,0,1,.7-.5A2.17,2.17,0,0,0,28,20.73Z"/><path class="cls-11" d="M31.92,19.86l-2.49,1.08,0,.07,2.51-1.12Z"/><path class="cls-11" d="M38.74,17.15a6.11,6.11,0,0,1,.48-1.39l-1.39-1.15A9.24,9.24,0,0,0,38,12.37l-1.12.52c-.08-2.47-4.66-6.23-4.66-6.23l.21,1.06c1.18,1,4,3.67,4.07,5.55l1.09-.51a8.93,8.93,0,0,1-.16,2.16L38.79,16a5.59,5.59,0,0,0-.47,1.33c.08.12.83,1,.83,1l0,.05.25.08.23-.29S38.82,17.28,38.74,17.15Z"/><path class="cls-11" d="M24.42,21.06l.17,1.08.19.14-.14-.93Z"/><polygon class="cls-11" points="27.3 20.82 26.77 21.55 26.84 21.71 27.36 20.98 27.3 20.82"/><path class="cls-11" d="M25.25,21.41l-.09.35c.09.11.16.17.16.13a1.72,1.72,0,0,1,.06-.32Z"/><polygon class="cls-11" points="26.39 21.19 25.75 21.8 25.82 21.89 26.44 21.29 26.39 21.19"/><path class="cls-3" d="M37.07,30.72s1.29-3.64,3.2-1.55c1.43,1.57-.11,4.11-.3,4.36l-2.63,4.65s-1.1,1.43-1.67.3-.2-.67-.2-.67Z"/><path d="M36.92,31.59s1.53-2,2.38-1.43a2.14,2.14,0,0,1,.56,2.28S40.13,28.08,36.92,31.59Z"/><path d="M38.44,35s-1.3,2.19-2.2,1.88C36.24,36.91,37.14,37.61,38.44,35Z"/><polygon points="38.44 32.06 38.77 32.74 37.79 33.72 38.11 34.75 38.01 33.72 39.01 32.64 38.44 32.06"/><path d="M34.07,30.74a7.29,7.29,0,0,0-6.62.2A8.65,8.65,0,0,1,34.07,30.74Z"/><path class="cls-12" d="M23.14,39.33s.16-.12.62.2a4.72,4.72,0,0,0,1,.52.55.55,0,0,0,.5,0l1-.62a.58.58,0,0,1,.45-.2"/><g class="cls-13"><path d="M24,44.24a2.18,2.18,0,0,0,1,.27,1.84,1.84,0,0,0,1-.25,1.49,1.49,0,0,1-1,.4A1.59,1.59,0,0,1,24,44.24Z"/></g><path class="cls-14" d="M21.45,42.29l.5.07,6.45-.09.22-.07S25.69,45.5,21.45,42.29Z"/><path d="M16.51,31.82a7.6,7.6,0,0,1,5.89.07h0l.14,0a.18.18,0,0,0-.14-.12,10.46,10.46,0,0,0-6.41-.2,1.49,1.49,0,0,0-.2.15l.22.17.22.25Z"/><path class="cls-9" d="M24.52,43.88l.26.09a.63.63,0,0,0,.35,0l.46-.09S25,44.41,24.52,43.88Z"/><path d="M15.65,30.94a7.28,7.28,0,0,1,6.62.19A8.64,8.64,0,0,0,15.65,30.94Z"/><path class="cls-6" d="M22.57,42.66s4.27,0,4.85,0l.15.12.17-.17.58-.1.3-.27-.22.07L22,42.36l-.5-.07.53.37h.21"/><path class="cls-15" d="M21.76,42.47s6.44.05,6.68-.11l.18-.16-.22.07L22,42.36l-.5-.07S21.64,42.47,21.76,42.47Z"/><path d="M21.45,42.29s3.73,3.41,7.17-.09A5.33,5.33,0,0,1,21.45,42.29Z"/><path d="M21,42.16a4.76,4.76,0,0,0,1.84.15l1.87,0,3.73,0h0a.83.83,0,0,0,.46-.22.9.9,0,0,1-.46.27h0l-3.73.07h-2.8A2.82,2.82,0,0,1,21,42.16Z"/><g class="cls-16"><rect class="cls-17" x="29.85" y="33.85" width="4.43" height="4.35" transform="translate(-3.22 3.15) rotate(-5.36)"/><polygon class="cls-18" points="31.99 35.24 32.22 35.83 32.88 35.76 32.34 36.17 32.65 36.75 32.1 36.37 31.62 36.85 31.82 36.22 31.21 35.91 31.87 35.86 31.99 35.24"/></g></g></g></svg>