<?xml version="1.0" encoding="utf-8"?>
<!-- Generator: Adobe Illustrator 24.1.0, SVG Export Plug-In . SVG Version: 6.00 Build 0)  -->
<svg version="1.1" id="圖層_1" xmlns="http://www.w3.org/2000/svg" xmlns:xlink="http://www.w3.org/1999/xlink" x="0px" y="0px"
	 viewBox="0 0 1920 1250" style="enable-background:new 0 0 1920 1250;" xml:space="preserve">
<style type="text/css">
	.st0{clip-path:url(#SVGID_2_);}
	.st1{fill:none;stroke:#662D91;stroke-width:5;stroke-miterlimit:10;}
	.st2{fill:none;stroke:#AFCA00;stroke-width:5;stroke-miterlimit:10;}
	.st3{fill:none;stroke:#0071BC;stroke-width:5;stroke-miterlimit:10;}
	.st4{fill:none;stroke:#006837;stroke-width:5;stroke-miterlimit:10;}
	.st5{fill:none;stroke:#A200CE;stroke-width:5;stroke-miterlimit:10;}
	.st6{fill:none;stroke:#F7931E;stroke-width:5;stroke-miterlimit:10;}
	.st7{fill:none;stroke:#22B573;stroke-width:5;stroke-miterlimit:10;}
	.st8{fill:none;stroke:#C62100;stroke-width:5;stroke-miterlimit:10;}
	.st9{fill:#006837;}
	.st10{fill:#0071BC;}
	.st11{fill:#FFFFFF;}
	.st12{font-family:'FZLTTHB--B51-0';}
	.st13{font-size:36px;}
	.st14{fill:#C62100;}
	.st15{fill:#F7931E;}
	.st16{fill:#22B573;}
	.st17{fill:#A200CE;}
	.st18{fill:#AFCA00;}
	.st19{fill:none;stroke:#AFCA00;stroke-miterlimit:10;}
	.st20{fill:#AFCA00;stroke:#AFCA00;stroke-width:0.2;stroke-miterlimit:10;}
	.st21{fill:none;stroke:#FFFFFF;stroke-width:0.25;stroke-miterlimit:10;}
	.st22{fill:#E64C18;}
	.st23{fill:#F36518;}
	.st24{fill:#006BC0;}
	.st25{fill:#0096DC;}
	.st26{fill:#E5A32A;}
	.st27{fill:#E6C61B;}
	.st28{fill:#A200CE;stroke:#FFFFFF;stroke-width:0.25;stroke-miterlimit:10;}
	.st29{fill:#A200CE;stroke:#FFFFFF;stroke-width:0.75;stroke-miterlimit:10;}
</style>
<g>
	<defs>
		<rect id="SVGID_1_" x="0" y="170.3" width="1920" height="1080"/>
	</defs>
	<clipPath id="SVGID_2_">
		<use xlink:href="#SVGID_1_"  style="overflow:visible;"/>
	</clipPath>
	<g class="st0">
		<ellipse cx="960" cy="1329.3" rx="1206.5" ry="214"/>
	</g>
</g>
<path class="st1" d="M1009.3,1115.3v-313c0-22.1,17.9-40,40-40l0,0h116.2c22.1,0,40-17.9,40-40V614.8"/>
<path class="st2" d="M989.6,1115.3v-205c0-22.1-17.9-40-40-40H744.5c-33.1,0-60-26.9-60-60V579.8"/>
<path class="st3" d="M969.9,1115.3V746.2c0-11,8.9-19.9,19.8-20l24-0.2c11-0.1,19.8-9,19.8-20V496.8"/>
<path class="st4" d="M950.2,1115.3V842.1c0-44.1-35.7-79.9-79.8-80l-54-0.2c-22-0.1-39.9-18-39.9-40V408.8"/>
<path class="st5" d="M930.5,1115.3v-269c0-11,9-20,20-20h337.1c27.6,0,50-22.4,50-50V496.8"/>
<path class="st6" d="M910.8,1115.3v-191c0-11,9-20,20-20h169.8c11,0,20-9,20-20V283.8"/>
<path class="st7" d="M1029,1115.3v-385c0-27.6-22.4-50-50-50l0,0h-65.5c-27.6,0-50-22.4-50-50V91.8"/>
<path class="st8" d="M891,1115.3v-259c0-33.1,26.9-60,60-60h245.5c33.1,0,60-26.9,60-60V347.8"/>
<path class="st9" d="M863,96.6c0,0-60.3,7.4-69-61c0,0,37.3,9.8,67.9,57.1c0,0-32.3-17.6-47.5-33.9C814.4,58.8,843.1,89,863,96.6z"
	/>
<path class="st9" d="M866,91.3c0,0,11-23,29-26c0,0,15-2,24-5c0,0-19,40-56,34c0,0,11-2,41-24C904,70.3,878,87.3,866,91.3z"/>
<ellipse transform="matrix(0.1602 -0.9871 0.9871 0.1602 358.7876 1403.2242)" class="st10" cx="1004" cy="490.8" rx="50" ry="50"/>
<path id="Icon_awesome-brain" class="st11" d="M993.8,458.1c-3.7,0-7,2.5-7.9,6.1h-0.3c-4.5,0-8.2,3.7-8.2,8.2
	c0,0.6,0.1,1.2,0.2,1.8c-5.2,2.1-7.7,8-5.6,13.2c0.1,0.2,0.2,0.5,0.3,0.7c-4.9,2.8-6.6,9-3.8,13.8c1.1,2,2.9,3.5,5,4.4
	c-0.1,0.6-0.2,1.2-0.2,1.8c0,5.1,4.1,9.2,9.2,9.2c0,0,0,0,0,0l0,0c0.5,0,1-0.1,1.5-0.2c1.6,4.8,6.8,7.4,11.6,5.8
	c3.7-1.2,6.3-4.7,6.3-8.7v-48C1002,461.8,998.3,458.1,993.8,458.1z M1040.8,496.9c0-3.6-2-7-5.1-8.8c2.5-5,0.5-11.1-4.5-13.5
	c-0.2-0.1-0.5-0.2-0.7-0.3c1-4.3-1.7-8.7-6-9.7c0,0,0,0,0,0c-0.6-0.1-1.3-0.2-1.9-0.2c-0.1,0-0.2,0-0.3,0c-1.2-4.3-5.6-6.9-10-5.7
	c-3.5,0.9-6,4.1-6,7.7v47.9c0,5.1,4.1,9.2,9.1,9.2c4,0,7.5-2.5,8.7-6.3c0.5,0.1,1,0.2,1.5,0.2c5.1,0,9.2-4.1,9.2-9.2l0,0
	c0-0.6-0.1-1.2-0.2-1.8C1038.3,504.7,1040.8,501,1040.8,496.9z"/>
<circle class="st9" cx="776.6" cy="653.2" r="41"/>
<path id="Icon_awesome-tree" class="st11" d="M798.6,667.7l-9.4-10.7h3.6c1,0,2-0.6,2.5-1.5c0.5-0.9,0.3-2.1-0.4-2.8l-9.2-10.7h3.4
	c1.1,0,2-0.6,2.5-1.6c0.4-1,0.2-2.1-0.5-2.8l-13-13.9c-0.8-0.7-2-0.7-2.8,0l0,0l-13,13.9c-0.7,0.8-0.9,1.9-0.5,2.8
	c0.4,1,1.4,1.6,2.5,1.6h3.4l-9.2,10.7c-0.7,0.8-0.8,1.9-0.4,2.8c0.4,0.9,1.4,1.5,2.5,1.5h3.6l-9.4,10.7c-0.7,0.8-0.9,1.9-0.4,2.9
	c0.5,1,1.4,1.6,2.5,1.6h16.2v2.9l-3.6,5.7c-0.5,0.9-0.1,2.1,0.8,2.5c0.3,0.1,0.6,0.2,0.8,0.2h11.3c1,0,1.9-0.8,1.9-1.9
	c0-0.3-0.1-0.6-0.2-0.8l-3.6-5.7v-2.9h16.2c1.1,0,2-0.6,2.5-1.6C799.4,669.6,799.3,668.5,798.6,667.7z"/>
<text transform="matrix(1 0 0 1 732.49 410.33)" class="st9 st12 st13">ECO</text>
<circle class="st14" cx="1255.6" cy="373.9" r="26.5"/>
<circle class="st15" cx="1128.4" cy="283.2" r="26.5"/>
<g id="Icon_ionic-ios-desktop">
	<path id="Path_19" class="st11" d="M1262.1,386.5c0-0.2-0.1-0.3-0.3-0.3l-1.5-0.1c-0.8-0.3-1.4-1-1.5-1.9l-0.1-0.5h-6.2l-0.1,0.5
		c-0.1,0.9-0.7,1.6-1.5,1.9l-1.5,0.1c-0.1,0-0.3,0.1-0.3,0.3c0,0.2,0.1,0.4,0.3,0.4h12.4C1261.9,386.9,1262.1,386.7,1262.1,386.5
		C1262.1,386.5,1262.1,386.5,1262.1,386.5z"/>
	<path id="Path_20" class="st11" d="M1270.2,361.3c-0.3-0.3-0.7-0.5-1.2-0.5H1242c-0.4,0-0.8,0.2-1.2,0.5c-0.3,0.3-0.5,0.7-0.5,1.2
		v18.4c0,0.4,0.2,0.9,0.5,1.2c0.3,0.3,0.7,0.5,1.1,0.5h27.1c0.4,0,0.8-0.2,1.1-0.5c0.3-0.3,0.5-0.7,0.5-1.1v-18.4
		C1270.7,362.1,1270.5,361.7,1270.2,361.3z M1255.6,380.9c-0.3,0-0.5-0.2-0.5-0.5c0-0.3,0.2-0.5,0.5-0.5c0.3,0,0.5,0.2,0.5,0.5l0,0
		C1256.1,380.7,1255.8,380.9,1255.6,380.9C1255.6,380.9,1255.6,380.9,1255.6,380.9L1255.6,380.9z M1269.4,378.2h-27.6
		c-0.1,0-0.3-0.1-0.3-0.3v-15.2c0-0.5,0.4-0.8,0.8-0.8h26.5c0.4,0,0.8,0.4,0.8,0.8v15.2C1269.6,378.1,1269.5,378.2,1269.4,378.2
		L1269.4,378.2L1269.4,378.2z"/>
</g>
<path id="Icon_awesome-hammer" class="st15" d="M1166.9,519.3l-1.6-1.6c-0.4-0.4-1.1-0.4-1.6,0c0,0,0,0,0,0l0,0l-0.8,0.8l-2-2
	c0.4-1.5,0-3.2-1.2-4.3l-3.2-3.2c-4.4-4.4-11.5-4.4-15.9,0l6.4,3.2v1.3c0,1.2,0.5,2.3,1.3,3.2l3.4,3.5c1.1,1.1,2.8,1.6,4.3,1.2l2,2
	l-0.8,0.8c-0.4,0.4-0.4,1.1,0,1.6c0,0,0,0,0,0l0,0l1.6,1.6c0.4,0.4,1.1,0.4,1.6,0c0,0,0,0,0,0l0,0l6.4-6.4
	C1167.4,520.5,1167.4,519.8,1166.9,519.3C1166.9,519.4,1166.9,519.4,1166.9,519.3L1166.9,519.3z M1146.8,518.3
	c-0.3-0.3-0.5-0.5-0.7-0.8l-17.9,16.7c-1.8,1.6-2,4.3-0.4,6.1c1.6,1.8,4.3,2,6.1,0.4c0.1-0.1,0.1-0.1,0.2-0.2
	c0.1-0.1,0.2-0.2,0.2-0.2l16.7-17.9c-0.3-0.2-0.6-0.4-0.8-0.7L1146.8,518.3z"/>
<path id="Icon_awesome-wrench" class="st15" d="M1074.7,395.1c2,5.8,8.3,9,14.2,7l16.6,16.6l0.1,0.1c2.1,1.7,5.3,1.4,7-0.7
	c1.5-1.9,1.5-4.6-0.1-6.5l-16.6-16.6c2-5.8-1.1-12.2-6.9-14.1c-2-0.7-4.2-0.8-6.3-0.3c-0.2,0-0.3,0.1-0.4,0.2c-0.4,0.4-0.4,1,0,1.3
	c0,0,0,0,0,0l5.8,5.8l-0.9,5.3l-5.3,0.9l-5.8-5.8c-0.4-0.4-0.9-0.4-1.3,0c-0.1,0.1-0.2,0.3-0.3,0.4
	C1073.9,390.9,1074,393.1,1074.7,395.1z M1109,417.1c-1,0-1.9-0.8-1.9-1.9s0.8-1.9,1.9-1.9c1,0,1.9,0.8,1.9,1.9l0,0
	C1110.9,416.2,1110,417.1,1109,417.1z"/>
<path id="Icon_metro-home" class="st11" d="M1146.6,286.6l-18.2-14.2l-18.2,14.2v-5.8l18.2-14.2l18.2,14.2V286.6z M1142.1,286.1
	v13.7h-9.1v-9.1h-9.1v9.1h-9.1v-13.7l13.7-10.3L1142.1,286.1z"/>
<circle class="st16" cx="913.4" cy="682.8" r="34.9"/>
<circle class="st17" cx="1349.6" cy="654.7" r="28.8"/>
<path id="Icon_awesome-graduation-cap" class="st11" d="M938.2,674.3l-23-7c-1.3-0.4-2.6-0.4-3.8,0l-23,7c-1,0.3-1.7,1.3-1.4,2.3
	c0,0,0,0,0,0c0.2,0.7,0.7,1.2,1.4,1.4l4,1.2c-0.9,1.1-1.4,2.4-1.5,3.9c-1.2,0.7-1.7,2.2-1,3.4c0.2,0.4,0.5,0.7,0.8,0.9l-2.1,9.5
	c-0.2,0.7,0.3,1.4,1,1.6c0,0,0,0,0,0c0.1,0,0.2,0,0.3,0h4.6c0.7,0,1.3-0.6,1.3-1.3c0,0,0,0,0,0c0-0.1,0-0.2,0-0.3l-2.1-9.5
	c1.2-0.8,1.5-2.3,0.7-3.5c-0.2-0.3-0.5-0.6-0.9-0.8c0.1-1.2,0.7-2.3,1.7-3l16.1,4.9c1.3,0.4,2.6,0.4,3.8,0l23-7.1
	c1-0.3,1.7-1.3,1.4-2.4C939.5,675,939,674.5,938.2,674.3L938.2,674.3z M916.1,687.6c-1.8,0.5-3.6,0.5-5.4,0l-11.9-3.6l-1.2,9.3
	c0,2.9,7.1,5.3,15.8,5.3s15.8-2.3,15.8-5.3L928,684L916.1,687.6L916.1,687.6z"/>
<path id="Icon_awesome-user" class="st17" d="M1284.7,793.7c5.1,0,9.2-4.1,9.2-9.2c0-5.1-4.1-9.2-9.2-9.2c-5.1,0-9.2,4.1-9.2,9.2
	c0,0,0,0,0,0C1275.6,789.6,1279.7,793.7,1284.7,793.7z M1291.1,796h-1.2c-3.3,1.5-7.1,1.5-10.4,0h-1.2c-5.3,0-9.6,4.3-9.6,9.6
	c0,0,0,0,0,0v3c0,1.9,1.5,3.4,3.4,3.4h25.1c1.9,0,3.4-1.5,3.4-3.4v-3C1300.8,800.3,1296.5,796,1291.1,796
	C1291.2,796,1291.1,796,1291.1,796z"/>
<path id="Icon_material-phone-iphone" class="st14" d="M1290.6,520.2l-11.7-2.7c-2-0.5-4,0.8-4.5,2.8l-5.6,24.9
	c-0.5,2,0.8,4,2.8,4.5l11.7,2.7c2,0.5,4-0.8,4.5-2.8l5.6-24.9C1293.9,522.7,1292.7,520.6,1290.6,520.2
	C1290.7,520.2,1290.6,520.2,1290.6,520.2z M1277.8,549.6c-1.2-0.3-2-1.5-1.7-2.7c0.3-1.2,1.5-2,2.7-1.7c1.2,0.3,2,1.5,1.7,2.7
	C1280.3,549.1,1279.1,549.8,1277.8,549.6C1277.8,549.6,1277.8,549.6,1277.8,549.6z M1285.7,545.2l-13.2-3l4.6-20.5l13.2,3
	L1285.7,545.2z"/>
<path id="Icon_awesome-pencil-alt" class="st18" d="M661.8,675l-3.2,3.3c-0.3,0.3-0.9,0.3-1.2,0l0,0l-7.9-7.7
	c-0.3-0.3-0.3-0.9,0-1.2c0,0,0,0,0,0l0,0l3.2-3.3c1.3-1.3,3.4-1.3,4.8,0c0,0,0,0,0,0l4.3,4.2C663.1,671.6,663.2,673.7,661.8,675
	L661.8,675z M646.8,672.1l-18.3,18.6l-1.4,8.5c-0.2,0.9,0.4,1.8,1.3,2c0,0,0,0,0,0c0.2,0,0.4,0,0.6,0l8.5-1.6l18.3-18.7
	c0.3-0.3,0.3-0.9,0-1.2l0,0l-7.9-7.7C647.7,671.8,647.1,671.8,646.8,672.1L646.8,672.1z M635.7,689.1c-0.4-0.4-0.4-1,0-1.4l0,0
	l10.7-10.9c0.3-0.5,0.9-0.6,1.4-0.2c0.5,0.3,0.6,0.9,0.2,1.4c-0.1,0.1-0.1,0.2-0.2,0.2l-10.7,10.9
	C636.7,689.5,636.1,689.5,635.7,689.1L635.7,689.1z M633.2,695h3.4v2.5l-4.5,0.8l-2.2-2.2l0.8-4.5h2.5L633.2,695z"/>
<path id="Icon_awesome-ruler-horizontal" class="st18" d="M705.2,582.7l-0.6,3.3l6.1,1.1c0.3,0.1,0.5,0.4,0.5,0.7l0,0l-0.2,1.1
	c0,0.3-0.3,0.5-0.6,0.5c0,0,0,0,0,0l0,0l-6.1-1.1l-0.8,4.4l6.1,1.1c0.3,0,0.5,0.3,0.5,0.6c0,0,0,0,0,0l0,0l-0.2,1.1
	c-0.1,0.3-0.4,0.5-0.7,0.5l0,0l-6.1-1.1l-0.8,4.4l6.1,1.1c0.3,0.1,0.5,0.3,0.5,0.7c0,0,0,0,0,0l0,0l-0.2,1.1
	c-0.1,0.3-0.4,0.5-0.7,0.5l0,0l-6.1-1.1l-0.8,4.4l6.1,1.1c0.3,0.1,0.5,0.3,0.5,0.7l0,0l-0.2,1.1c-0.1,0.3-0.3,0.5-0.7,0.5l0,0
	l-6.1-1.1l-0.8,4.4l6.1,1.1c0.3,0.1,0.5,0.3,0.5,0.7c0,0,0,0,0,0l0,0l-0.2,1.1c-0.1,0.3-0.3,0.5-0.7,0.5l0,0l-6.1-1.1l-0.6,3.3
	c-0.2,1.2,0.6,2.4,1.8,2.6c0,0,0,0,0,0l13.3,2.5c1.2,0.2,2.4-0.6,2.6-1.8l6.6-35.4c0.2-1.2-0.6-2.4-1.8-2.6c0,0,0,0,0,0l-13.3-2.5
	C706.6,580.7,705.4,581.5,705.2,582.7z"/>
<line class="st19" x1="628.4" y1="701.3" x2="592.2" y2="701.3"/>
<line class="st20" x1="705.2" y1="582.7" x2="698.6" y2="618.1"/>
<circle class="st20" cx="674.9" cy="818.3" r="41.5"/>
<path class="st11" d="M655.9,807.9l-6.5,17.5h7.6c0,0-1.5,11.7,7.3,11.8c11.1,0.2,14.9,0,14.9,0L679,847l16.8,0.2v-33.8
	c0,0,4.9-27.7-18.9-27.7S655.9,807.9,655.9,807.9z"/>
<polyline class="st19" points="669.3,809.7 669.2,809.4 668.5,807.7 667.6,805.6 666.7,803.5 665.8,801.4 660.2,803.9 664.7,815.1 
	665.5,814.7 "/>
<line class="st19" x1="666.7" y1="803.5" x2="664" y2="804.7"/>
<line class="st19" x1="667.6" y1="805.6" x2="666" y2="806.4"/>
<line class="st19" x1="668.5" y1="807.7" x2="666" y2="808.7"/>
<path class="st19" d="M669.4,790.5l-0.7,6.6c0,0,3.1,2.6,4.5-0.9L669.4,790.5z"/>
<line class="st19" x1="676.2" y1="808.7" x2="673.2" y2="796.2"/>
<line class="st19" x1="671.8" y1="809.5" x2="668.7" y2="797.1"/>
<path class="st18" d="M669.1,793.4c0,0,1.5,0.7,1.8-0.6l-1.5-2.3L669.1,793.4z"/>
<path class="st18" d="M680.7,790.5c0,0,0.2,2.9-1.6,4.4c-1.8,1.5-2,4-0.4,4.9c1.6,0.9,3.6,0.3,3.6,0.3S686.9,796.3,680.7,790.5z"/>
<path class="st19" d="M678.3,807.1c-0.1-0.9-0.1-2.1-0.1-3.4c0-1.3,0.2-2.6,0.5-3.9c0,0,0.2,0,3.6,0.3c0,0,0.1,1.1,0.1,2.7
	c0,0,0,0.1,0,0.1v0.1c0,1-0.1,2.1-0.2,3.3"/>
<path class="st18" d="M691.5,797.6l-4,2.2c0,0,0,2-0.8,3.6c0,0,1,2.1,3.9,1.7c0,0,1-2.6,2-3.1L691.5,797.6z"/>
<line class="st21" x1="690.1" y1="800.9" x2="691.5" y2="797.6"/>
<path class="st19" d="M685.1,807.3l1.6-3.8c0,0,0,0,0,0c1,1.8,3.4,1.7,3.8,1.7c0.1,0,0.1,0,0.1,0l-2.6,6"/>
<path class="st19" d="M663.6,822.9h25.7c0,0,4.1-1.4,2.9-4.9s-4.1-2.9-4.1-2.9s1.3-6.2-4.2-8.3s-9.2,3.6-9.2,3.6s-4-1.7-6.1-0.3
	c-2,1.4-3.1,3.5-3.4,5.5c0,0-3.9-1.5-5.1,3.2S663.6,822.9,663.6,822.9z"/>
<path class="st19" d="M682.7,817.4c0,0-1.4-2.3-3.5-0.9c0,0-1.5-2.2-3.6-1.1c-2.2,1.1-1.3,3.5-1.3,3.5"/>
<path class="st19" d="M680.3,808.2c0,0-2.2,0.5-2.6,2.4"/>
<path class="st19" d="M668.2,814.6c0,0-0.1-1.8,1.6-2.4"/>
<path class="st18" d="M678.4,802.5c0,0,2.4,0.4,4,0.3l0,1.3l-4.1-0.4L678.4,802.5z"/>
<polygon class="st22" points="1148.9,737.5 1183.6,737.5 1180.6,770.7 1166.2,775.4 1151.5,770.5 "/>
<polygon class="st23" points="1180.3,740.8 1177.8,768.2 1166,772.1 1166,740.8 "/>
<polygon class="st24" points="1179.6,601.9 1217,601.9 1213.7,637.6 1198.3,642.7 1182.4,637.4 "/>
<polygon class="st25" points="1213.7,605.5 1211,634.9 1198.3,639.1 1198.3,605.5 "/>
<polygon class="st26" points="1212.1,678 1241.7,678 1239.1,706.3 1226.9,710.3 1214.3,706.1 "/>
<polygon class="st27" points="1239.1,680.8 1236.9,704.1 1226.9,707.5 1226.9,680.8 "/>
<g>
	<path class="st11" d="M1152.4,749.8h2v2.3h2.2v-2.3h2v6.5h-2v-2.6h-2.2v2.6h-2V749.8z"/>
	<path class="st11" d="M1159.5,749.8h6.1v1.6h-2.1v4.9h-2v-4.9h-2.1V749.8z"/>
	<path class="st11" d="M1166.5,749.8h2.6l1,4l1-4h2.6v6.5h-1.6v-5l-1.3,5h-1.5l-1.3-5v5h-1.6V749.8z"/>
	<path class="st11" d="M1175.1,749.8h2v4.9h3.1v1.6h-5.2V749.8z"/>
</g>
<g>
	<path class="st11" d="M1191.7,621.6l2.2,0.7c-0.1,0.6-0.4,1.1-0.7,1.5c-0.3,0.4-0.7,0.7-1.2,0.9c-0.5,0.2-1.1,0.3-1.8,0.3
		c-0.9,0-1.6-0.1-2.1-0.4c-0.6-0.3-1-0.7-1.4-1.3c-0.4-0.6-0.6-1.5-0.6-2.4c0-1.3,0.4-2.3,1.1-3.1c0.7-0.7,1.7-1.1,3-1.1
		c1,0,1.8,0.2,2.4,0.6c0.6,0.4,1,1,1.3,1.9l-2.2,0.5c-0.1-0.2-0.2-0.4-0.2-0.5c-0.1-0.2-0.3-0.3-0.5-0.4c-0.2-0.1-0.4-0.2-0.7-0.2
		c-0.6,0-1,0.2-1.3,0.7c-0.2,0.3-0.3,0.9-0.3,1.6c0,0.9,0.1,1.5,0.4,1.8c0.3,0.3,0.6,0.5,1.1,0.5c0.5,0,0.8-0.1,1.1-0.4
		C1191.4,622.5,1191.5,622.1,1191.7,621.6z"/>
	<path class="st11" d="M1194.6,622.2l2.4-0.1c0.1,0.4,0.2,0.7,0.3,0.9c0.3,0.3,0.6,0.5,1.1,0.5c0.4,0,0.6-0.1,0.8-0.2
		c0.2-0.2,0.3-0.4,0.3-0.6c0-0.2-0.1-0.4-0.3-0.6c-0.2-0.2-0.6-0.3-1.3-0.5c-1.1-0.2-1.9-0.6-2.3-1c-0.5-0.4-0.7-0.9-0.7-1.5
		c0-0.4,0.1-0.8,0.4-1.2c0.2-0.4,0.6-0.7,1.1-0.9c0.5-0.2,1.1-0.3,2-0.3c1,0,1.8,0.2,2.3,0.6c0.5,0.4,0.9,1,1,1.8l-2.3,0.1
		c-0.1-0.4-0.2-0.6-0.4-0.8c-0.2-0.2-0.5-0.2-0.8-0.2c-0.3,0-0.5,0.1-0.7,0.2c-0.1,0.1-0.2,0.3-0.2,0.4c0,0.1,0.1,0.2,0.2,0.3
		c0.1,0.1,0.4,0.2,0.8,0.3c1.1,0.2,1.9,0.5,2.3,0.7c0.5,0.2,0.8,0.5,1,0.9c0.2,0.4,0.3,0.7,0.3,1.2c0,0.5-0.1,1-0.4,1.4
		c-0.3,0.4-0.7,0.8-1.2,1c-0.5,0.2-1.2,0.3-1.9,0.3c-1.4,0-2.3-0.3-2.8-0.8S1194.7,623,1194.6,622.2z"/>
	<path class="st11" d="M1202.7,622.2l2.4-0.1c0.1,0.4,0.2,0.7,0.3,0.9c0.3,0.3,0.6,0.5,1.1,0.5c0.4,0,0.6-0.1,0.8-0.2
		c0.2-0.2,0.3-0.4,0.3-0.6c0-0.2-0.1-0.4-0.3-0.6c-0.2-0.2-0.6-0.3-1.3-0.5c-1.1-0.2-1.9-0.6-2.3-1c-0.5-0.4-0.7-0.9-0.7-1.5
		c0-0.4,0.1-0.8,0.4-1.2c0.2-0.4,0.6-0.7,1.1-0.9c0.5-0.2,1.1-0.3,2-0.3c1,0,1.8,0.2,2.3,0.6c0.5,0.4,0.9,1,1,1.8l-2.3,0.1
		c-0.1-0.4-0.2-0.6-0.4-0.8c-0.2-0.2-0.5-0.2-0.8-0.2c-0.3,0-0.5,0.1-0.7,0.2c-0.1,0.1-0.2,0.3-0.2,0.4c0,0.1,0.1,0.2,0.2,0.3
		c0.1,0.1,0.4,0.2,0.8,0.3c1.1,0.2,1.9,0.5,2.3,0.7c0.5,0.2,0.8,0.5,1,0.9c0.2,0.4,0.3,0.7,0.3,1.2c0,0.5-0.1,1-0.4,1.4
		c-0.3,0.4-0.7,0.8-1.2,1c-0.5,0.2-1.2,0.3-1.9,0.3c-1.4,0-2.3-0.3-2.8-0.8S1202.8,623,1202.7,622.2z"/>
</g>
<g>
	<path class="st11" d="M1223.8,689h2.2v3.9c0,0.8-0.1,1.4-0.2,1.9s-0.4,0.8-0.9,1.1c-0.4,0.3-1,0.4-1.7,0.4c-0.7,0-1.3-0.1-1.7-0.3
		s-0.7-0.5-0.9-0.9c-0.2-0.4-0.3-0.8-0.4-1.4l2.1-0.3c0,0.3,0,0.5,0.1,0.7c0.1,0.2,0.1,0.3,0.3,0.4c0.1,0.1,0.2,0.1,0.4,0.1
		c0.2,0,0.4-0.1,0.5-0.3c0.1-0.2,0.2-0.5,0.2-0.9V689z"/>
	<path class="st11" d="M1227.1,693.8l2.1-0.1c0,0.3,0.1,0.6,0.3,0.8c0.2,0.3,0.6,0.4,1,0.4c0.3,0,0.6-0.1,0.7-0.2
		c0.2-0.1,0.3-0.3,0.3-0.5c0-0.2-0.1-0.4-0.2-0.5c-0.2-0.1-0.5-0.3-1.1-0.4c-1-0.2-1.7-0.5-2.1-0.9c-0.4-0.4-0.6-0.8-0.6-1.4
		c0-0.4,0.1-0.7,0.3-1c0.2-0.3,0.5-0.6,1-0.8s1-0.3,1.8-0.3c0.9,0,1.6,0.2,2.1,0.5c0.5,0.3,0.8,0.9,0.9,1.6l-2.1,0.1
		c-0.1-0.3-0.2-0.6-0.3-0.7c-0.2-0.1-0.4-0.2-0.7-0.2c-0.3,0-0.4,0.1-0.6,0.2s-0.2,0.2-0.2,0.4c0,0.1,0.1,0.2,0.2,0.3
		c0.1,0.1,0.4,0.2,0.7,0.3c1,0.2,1.7,0.4,2.1,0.6c0.4,0.2,0.7,0.5,0.9,0.8c0.2,0.3,0.3,0.7,0.3,1.1c0,0.5-0.1,0.9-0.4,1.3
		c-0.3,0.4-0.6,0.7-1.1,0.9c-0.5,0.2-1,0.3-1.7,0.3c-1.2,0-2.1-0.2-2.5-0.7C1227.5,695.1,1227.2,694.5,1227.1,693.8z"/>
</g>
<path id="Icon_material-computer" class="st14" d="M1241.1,467.1c1.7,0,3-1.3,3-3l0-15c0-1.7-1.3-3-3-3h-24c-1.7,0-3,1.3-3,3v15
	c0,1.7,1.3,3,3,3h-6v3h36v-3H1241.1z M1217.1,449.1h24v15h-24V449.1z"/>
<rect x="1339.5" y="666.4" class="st17" width="21.8" height="5.2"/>
<path class="st11" d="M1331.7,671.2h7.8v-4.8l6.7,0.2c0,0,1.1-0.2,1.2-1.4c0.1-1.2-1.1-1.3-1.1-1.3h-4.2l-3.7-4.6h-5.4
	c0,0-1.2,0.2-1.2,2.5S1331.7,671.2,1331.7,671.2z"/>
<ellipse class="st11" cx="1335.6" cy="655.8" rx="3.3" ry="4.2"/>
<ellipse class="st11" cx="1350.4" cy="655.8" rx="3.3" ry="4.2"/>
<ellipse class="st11" cx="1365.2" cy="655.8" rx="3.3" ry="4.2"/>
<path class="st28" d="M1339.2,654.3c0,0-1.2,0.6-3.1-0.3c0,0,0.7,3.8-3.6,3.2c0,0-2.3-6.6,3.1-5.7c0,0,3.5,0.3,3.9,0
	C1339.9,651.3,1339.2,654.3,1339.2,654.3z"/>
<path class="st11" d="M1345.1,660.7v5.8h10.6v-5.8c0,0-1-2.4-5.1-2.5C1346.5,658.2,1345.1,660.7,1345.1,660.7z"/>
<path class="st28" d="M1353.7,651.9c-0.5-0.1-1.7-0.3-2.7-0.7c-0.2-0.3-0.3-0.7-0.3-0.7l-0.2,0.4c-0.3-0.2-0.6-0.4-0.7-0.7
	c0,0-1.1,1.8-2.4,1.7c-1.2-0.1-0.3,2.7-0.3,2.7l1.1-0.4l0.6,0.2l0.7-0.3l0.7,0.3l0.7-0.3l0.7,0.3l0.7-0.3l1.3,0.5
	C1353.6,654.6,1354.4,652.1,1353.7,651.9z"/>
<path class="st11" d="M1361.3,665.7v5.5h7.7v-10.5c0,0-0.2-2-3.4-2c-3.2,0-3.2,0.5-3.2,0.5l-3.6,4.4l-4.1-0.1c0,0-1.5,0.3-1.5,1.6
	c0,1.3,1.5,1.7,1.5,1.7l5.5,0.1L1361.3,665.7l2-2.5"/>
<path class="st28" d="M1364.7,654.2c0,0-1.6,1.3-2.7,0.4c-1.1-0.9,1.8-3.5,1.8-3.5s2.4-0.9,3.8,0.4c1.4,1.3,1.8,3.2,1.7,5
	s0.6,8.2,0.8,8.3c0.2,0.1-1.7-0.3-2.5,0.2s-2.2,0.2-2.3-0.2c-0.1-0.4,1.1-6.8,0.6-8.2C1365.9,656.6,1364.8,656.1,1364.7,654.2z"/>
<path class="st29" d="M1360.3,651.9v-2.6c0,0,2.1-0.1,2.1-2.2c0-2.1,0-5.6,0-5.6s-0.2-1.9-2.1-1.9c-1.9,0-9.9,0-9.9,0v-1.9
	c0,0,0-2.6-2.6-2.6s-12.8,0-12.8,0s-2.7-0.4-2.7,2.8c0,3.1,0,7.3,0,7.3s0.3,2,2.6,2v2.6l2.8-2.7h8.7c0,0-0.1,2.1,1.8,2.1h9.3
	L1360.3,651.9z"/>
<line class="st21" x1="1336.1" y1="638.4" x2="1346" y2="638.4"/>
<line class="st21" x1="1336.1" y1="641.4" x2="1346" y2="641.4"/>
<line class="st21" x1="1336.1" y1="644.2" x2="1340.8" y2="644.2"/>
<polygon class="st11" points="1353.3,642 1353.9,642.9 1352.8,642.9 1351.7,642.9 1352.2,641.9 1352.8,641 "/>
<rect x="1356" y="642" class="st11" width="2.3" height="2.3"/>
<circle class="st11" cx="1353.7" cy="646.1" r="1.6"/>
<rect x="861" y="91.8" class="st9" width="5" height="4.9"/>
</svg>
