<svg xmlns="http://www.w3.org/2000/svg" xmlns:xlink="http://www.w3.org/1999/xlink" viewBox="0 0 30 30"><defs><style>.cls-1{isolation:isolate;}.cls-2{fill:url(#未命名漸層_149);}.cls-3{opacity:0.48;mix-blend-mode:multiply;fill:url(#未命名漸層_143);}.cls-4{fill:url(#未命名漸層_487);}</style><radialGradient id="未命名漸層_149" cx="15" cy="15" r="14.83" gradientUnits="userSpaceOnUse"><stop offset="0" stop-color="#f15a24"/><stop offset="0.21" stop-color="#f15c24" stop-opacity="0.99"/><stop offset="0.36" stop-color="#f26224" stop-opacity="0.95"/><stop offset="0.48" stop-color="#f26c24" stop-opacity="0.89"/><stop offset="0.59" stop-color="#f37b23" stop-opacity="0.8"/><stop offset="0.69" stop-color="#f58e23" stop-opacity="0.68"/><stop offset="0.79" stop-color="#f7a622" stop-opacity="0.54"/><stop offset="0.88" stop-color="#f9c122" stop-opacity="0.37"/><stop offset="0.97" stop-color="#fbe121" stop-opacity="0.18"/><stop offset="1" stop-color="#fcee21" stop-opacity="0.1"/></radialGradient><radialGradient id="未命名漸層_143" cx="15" cy="15" r="12.78" gradientUnits="userSpaceOnUse"><stop offset="0" stop-color="#f15a24"/><stop offset="0.21" stop-color="#f15a24" stop-opacity="0.99"/><stop offset="0.36" stop-color="#f15a24" stop-opacity="0.95"/><stop offset="0.48" stop-color="#f15a24" stop-opacity="0.89"/><stop offset="0.59" stop-color="#f15a24" stop-opacity="0.8"/><stop offset="0.69" stop-color="#f15a24" stop-opacity="0.68"/><stop offset="0.79" stop-color="#f15a24" stop-opacity="0.54"/><stop offset="0.88" stop-color="#f15a24" stop-opacity="0.37"/><stop offset="0.97" stop-color="#f15a24" stop-opacity="0.18"/><stop offset="1" stop-color="#f15a24" stop-opacity="0.1"/></radialGradient><radialGradient id="未命名漸層_487" cx="16.41" cy="13.13" r="9.79" gradientUnits="userSpaceOnUse"><stop offset="0.22" stop-color="#fcee21"/><stop offset="0.26" stop-color="#fce621" stop-opacity="0.96"/><stop offset="0.51" stop-color="#f9ba1f" stop-opacity="0.77"/><stop offset="0.68" stop-color="#f89e1e" stop-opacity="0.65"/><stop offset="0.77" stop-color="#f7931e" stop-opacity="0.6"/><stop offset="0.86" stop-color="#f8aa1f" stop-opacity="0.57"/><stop offset="0.99" stop-color="#fcea21" stop-opacity="0.5"/><stop offset="1" stop-color="#fcee21" stop-opacity="0.5"/></radialGradient></defs><g class="cls-1"><g id="圖層_1" data-name="圖層 1"><path class="cls-2" d="M15,.17l.56,2.94A1.91,1.91,0,0,0,19,3.8l1.64-2.5-.6,2.93A1.91,1.91,0,0,0,23,6.2l2.47-1.68L23.8,7a1.91,1.91,0,0,0,2,2.94l2.93-.6L26.2,11a1.91,1.91,0,0,0,.69,3.47l2.94.56-2.94.56A1.91,1.91,0,0,0,26.2,19l2.5,1.64-2.93-.6a1.91,1.91,0,0,0-2,2.94l1.68,2.47L23,23.8a1.91,1.91,0,0,0-2.94,2l.6,2.93L19,26.2a1.91,1.91,0,0,0-3.47.69L15,29.83l-.56-2.94A1.91,1.91,0,0,0,11,26.2L9.33,28.7l.6-2.93A1.91,1.91,0,0,0,7,23.8L4.52,25.48,6.2,23a1.91,1.91,0,0,0-2-2.94l-2.93.6L3.8,19a1.91,1.91,0,0,0-.69-3.47L.17,15l2.94-.56A1.91,1.91,0,0,0,3.8,11L1.3,9.33l2.93.6A1.91,1.91,0,0,0,6.2,7L4.52,4.52,7,6.2a1.91,1.91,0,0,0,2.94-2L9.33,1.3,11,3.8a1.91,1.91,0,0,0,3.47-.69Z"/><path class="cls-3" d="M15,2.22l.48,2.53a1.65,1.65,0,0,0,3,.6l1.42-2.16-.52,2.53A1.64,1.64,0,0,0,21.9,7.41L24,6,22.59,8.1a1.64,1.64,0,0,0,1.69,2.53l2.53-.52-2.16,1.42a1.65,1.65,0,0,0,.6,3l2.53.48-2.53.48a1.65,1.65,0,0,0-.6,3l2.16,1.42-2.53-.52a1.64,1.64,0,0,0-1.69,2.53L24,24,21.9,22.59a1.64,1.64,0,0,0-2.53,1.69l.52,2.53-1.42-2.16a1.65,1.65,0,0,0-3,.6L15,27.78l-.48-2.53a1.65,1.65,0,0,0-3-.6l-1.42,2.16.52-2.53A1.64,1.64,0,0,0,8.1,22.59L6,24,7.41,21.9a1.64,1.64,0,0,0-1.69-2.53l-2.53.52,2.16-1.42a1.65,1.65,0,0,0-.6-3L2.22,15l2.53-.48a1.65,1.65,0,0,0,.6-3L3.19,10.11l2.53.52A1.64,1.64,0,0,0,7.41,8.1L6,6,8.1,7.41a1.64,1.64,0,0,0,2.53-1.69l-.52-2.53,1.42,2.16a1.65,1.65,0,0,0,3-.6Z"/><circle class="cls-4" cx="15.38" cy="14.62" r="8.44"/></g></g></svg>